<?xml version="1.0" standalone="no"?>
<!DOCTYPE svg PUBLIC "-//W3C//DTD SVG 20010904//EN"
 "http://www.w3.org/TR/2001/REC-SVG-20010904/DTD/svg10.dtd">
<svg version="1.0" xmlns="http://www.w3.org/2000/svg"
 width="1920.000000pt" height="1080.000000pt" viewBox="0 0 1920.000000 1080.000000"
 preserveAspectRatio="xMidYMid meet">
<metadata>
Created by potrace 1.15, written by Peter Selinger 2001-2017
</metadata>
<g transform="translate(0.000000,1080.000000) scale(0.100000,-0.100000)"
fill="#000000" stroke="none">
<path d="M0 10703 c0 -60 4 -93 9 -84 13 20 25 8 46 -43 15 -35 26 -48 51 -56
23 -8 33 -18 37 -38 3 -16 0 -30 -7 -34 -13 -8 -14 -66 -2 -87 9 -14 73 -14
82 0 4 7 21 9 45 5 21 -3 47 -2 56 2 10 5 32 16 48 25 27 14 37 14 85 1 30 -8
62 -11 70 -8 8 4 21 6 28 5 8 -1 25 5 38 14 24 15 28 15 68 -4 49 -24 67 -26
85 -8 11 10 13 10 7 0 -4 -7 -2 -13 4 -13 6 0 8 -5 4 -11 -5 -8 -8 -8 -14 0
-9 15 -29 -7 -35 -38 -3 -16 2 -22 21 -27 13 -3 22 -9 19 -13 -2 -4 13 -7 34
-7 25 1 37 5 34 13 -3 6 -12 9 -20 6 -13 -5 -15 1 -11 35 2 23 0 42 -4 42 -5
0 -8 4 -8 10 0 13 80 51 92 44 5 -3 27 4 49 15 40 21 74 28 65 12 -6 -9 83
-12 99 -3 16 10 32 12 175 17 74 3 180 7 236 9 55 3 121 10 145 16 40 11 126
15 232 10 24 -1 37 -6 34 -13 -4 -12 -28 -16 -132 -18 -33 -1 -65 -6 -72 -11
-7 -5 -17 -7 -23 -3 -5 3 -10 1 -10 -6 0 -7 -10 -9 -30 -5 -17 3 -30 1 -30 -4
0 -6 -7 -10 -15 -10 -9 0 -18 -7 -21 -15 -4 -8 -10 -12 -15 -9 -5 3 -18 -5
-28 -17 l-18 -22 1 24 c1 13 -3 23 -9 23 -5 -1 -25 -5 -44 -9 -26 -6 -32 -4
-26 6 6 9 3 11 -9 6 -10 -4 -20 -7 -22 -7 -2 0 -4 -7 -4 -15 0 -8 5 -15 10
-15 6 0 10 -7 10 -16 0 -19 -41 -15 -48 5 -3 8 0 11 7 7 6 -4 11 -3 11 2 0 12
-47 25 -60 17 -7 -4 -7 -13 0 -24 14 -26 -28 -59 -43 -33 -2 4 -2 2 -1 -5 2
-7 -3 -10 -10 -7 -17 6 -31 -12 -16 -21 5 -3 18 -1 29 4 13 8 27 8 43 1 22
-10 22 -10 -4 -7 -29 4 -43 -14 -25 -32 6 -6 7 -14 3 -18 -4 -5 -13 0 -20 10
-14 18 -36 23 -36 8 0 -5 6 -12 13 -15 6 -4 2 -4 -10 -2 -13 2 -23 0 -23 -6 0
-6 -9 -8 -20 -5 -11 3 -23 -1 -28 -8 -8 -14 -172 -36 -172 -23 0 4 -8 8 -17 8
-9 0 -13 -3 -9 -7 9 -10 -76 -31 -154 -38 -75 -7 -168 -17 -365 -40 -81 -10
-161 -14 -190 -10 -107 15 -126 14 -119 -7 3 -10 0 -18 -6 -18 -6 0 -9 4 -5
10 3 5 -8 16 -25 25 l-30 16 0 -30 c0 -16 -5 -33 -11 -37 -6 -3 -8 -16 -5 -28
3 -12 6 -112 6 -221 1 -110 6 -267 11 -350 4 -82 13 -334 19 -560 5 -225 12
-473 15 -550 25 -638 26 -943 3 -929 -4 3 -8 14 -8 24 0 25 -16 34 -24 14 -4
-10 -2 -13 6 -8 6 4 8 3 4 -4 -7 -12 -55 -10 -64 4 -32 44 -32 44 -32 -2882
l0 -2896 35 5 c19 3 35 2 35 0 0 -11 -35 -32 -52 -33 -17 0 -18 -25 -18 -390
l0 -389 33 5 c17 4 93 21 167 40 74 18 173 42 220 54 47 11 117 29 155 39 l70
19 0 115 c0 65 4 120 10 125 6 5 47 37 93 71 45 34 90 70 100 80 9 10 33 26
52 36 19 10 69 47 110 82 97 83 113 82 121 -7 3 -36 4 -102 1 -147 -7 -118 6
-233 25 -233 9 0 56 9 105 21 l89 21 -4 91 c-3 51 -10 158 -16 238 -15 185
-10 200 56 200 27 0 140 3 253 7 219 7 250 15 265 62 3 11 11 20 16 20 13 0
29 44 34 96 2 23 9 52 15 64 7 12 12 53 12 91 0 50 3 69 13 69 15 0 45 -69 45
-105 0 -13 4 -26 8 -29 4 -3 14 -27 21 -54 14 -51 45 -82 63 -64 6 6 16 8 23
6 7 -3 15 6 19 20 8 31 22 34 31 6 7 -21 -21 -84 -34 -75 -5 2 -14 -2 -21 -10
-10 -12 -10 -21 0 -44 12 -29 7 -51 -10 -51 -5 0 -7 8 -3 17 10 28 -7 8 -67
-77 -70 -99 -159 -207 -235 -285 -33 -34 -71 -76 -84 -93 -14 -18 -42 -53 -63
-79 -55 -69 -72 -109 -59 -142 5 -14 13 -57 16 -96 9 -85 19 -106 84 -170 28
-27 51 -55 51 -62 0 -8 12 -18 26 -23 14 -6 24 -15 22 -20 -3 -10 83 -110 95
-110 6 0 -11 79 -20 94 -4 6 -8 19 -8 28 -1 10 -9 26 -18 36 -9 10 -17 23 -17
28 0 6 -16 37 -36 70 -27 44 -34 66 -30 88 5 22 3 27 -9 22 -26 -10 -11 32 28
78 36 44 77 66 77 41 0 -7 -7 -18 -16 -26 -20 -16 -44 -63 -44 -84 0 -32 32
-85 51 -85 20 0 27 34 9 45 -17 10 -11 39 21 111 43 96 67 124 158 188 44 30
99 74 123 96 24 23 62 55 86 72 23 17 42 34 42 38 0 6 25 39 67 89 20 24 22
25 40 9 13 -12 23 -14 36 -7 29 17 40 0 35 -57 -3 -33 0 -56 6 -59 7 -3 7 -7
-2 -11 -13 -6 -17 -34 -4 -34 4 0 16 14 25 30 18 30 52 40 60 18 2 -7 8 4 12
25 4 20 11 39 15 42 14 9 41 -7 36 -21 -4 -10 5 -14 34 -14 29 0 42 -5 50 -20
18 -33 25 -220 10 -264 -14 -45 -108 -149 -149 -166 -17 -7 -37 -23 -46 -36
-8 -13 -24 -24 -35 -24 -11 0 -28 -4 -38 -9 -9 -5 -26 -13 -37 -17 -19 -7 -19
-8 3 -11 12 -3 22 -9 22 -15 0 -19 -70 -74 -161 -128 -49 -30 -94 -60 -100
-67 -7 -7 -18 -13 -26 -13 -10 0 -13 -9 -11 -27 3 -28 3 -28 113 -38 l109 -10
-39 -37 c-34 -32 -37 -38 -19 -38 11 0 47 14 79 30 81 41 102 40 96 -7 -2 -13
31 -17 90 -13 21 1 28 -4 33 -24 3 -14 10 -26 15 -26 10 0 56 42 58 53 8 34
21 40 74 34 49 -6 52 -5 35 8 -11 8 -30 15 -42 15 -38 0 -46 21 -27 76 20 61
55 107 99 135 19 11 53 36 75 55 38 32 78 47 64 23 -4 -5 10 -1 31 10 21 12
49 21 62 21 19 0 22 -4 17 -22 -6 -22 -5 -22 17 3 13 14 28 35 35 45 10 16 12
16 12 3 1 -9 -17 -39 -39 -67 -61 -76 -51 -85 28 -22 27 22 53 40 56 40 10 0
-10 -33 -49 -79 -19 -24 -35 -47 -35 -52 0 -14 29 2 35 19 3 10 23 26 44 38
l39 21 16 -65 c9 -35 13 -68 10 -73 -3 -5 0 -26 5 -46 9 -31 8 -40 -4 -49 -26
-20 -17 -33 19 -27 39 6 59 -13 33 -32 -19 -14 -12 -25 15 -25 14 0 17 -5 12
-24 -3 -13 -1 -27 5 -30 6 -4 11 -16 11 -27 0 -10 4 -19 8 -19 4 0 14 -21 21
-47 8 -27 19 -59 24 -73 13 -33 17 -52 23 -127 5 -53 4 -62 -12 -71 -24 -13
-80 -10 -95 5 -8 8 -19 9 -37 2 -14 -5 -33 -7 -41 -3 -9 4 -26 6 -38 5 -14 -1
-24 5 -28 18 -7 23 -35 18 -35 -8 0 -14 -2 -14 -11 -1 -8 11 -12 12 -16 3 -6
-17 -23 -16 -23 1 0 22 -39 26 -87 10 -25 -9 -47 -14 -49 -11 -5 4 22 31 51
52 19 14 19 14 -5 15 -14 0 -38 -9 -55 -20 -21 -14 -25 -20 -13 -20 29 0 9
-29 -26 -38 -47 -12 -33 -27 25 -27 40 0 57 5 76 22 13 13 31 23 40 23 14 0
14 -3 -2 -20 -23 -26 -14 -35 23 -22 24 8 35 6 58 -9 16 -11 37 -18 46 -15 12
3 22 -8 35 -40 10 -24 21 -44 25 -44 14 0 19 21 8 35 -7 8 -9 24 -5 37 7 20 9
18 28 -21 11 -23 26 -45 34 -48 18 -7 51 24 48 45 -1 9 0 12 2 5 2 -6 17 -16
34 -22 16 -5 29 -17 29 -25 0 -14 335 -16 3410 -16 3193 0 3411 1 3417 17 4 9
2 18 -4 20 -14 5 -4 43 11 43 7 0 17 -5 24 -12 9 -9 12 -9 12 1 0 21 23 7 26
-16 4 -23 -10 -38 -41 -46 -11 -2 61 -5 159 -5 171 -1 180 0 198 20 10 12 18
16 18 10 0 -22 20 -12 32 16 11 26 12 26 15 5 4 -23 23 -33 23 -12 0 5 5 7 10
4 6 -3 10 0 10 7 0 10 2 10 9 -1 5 -8 26 -15 46 -16 23 -2 41 -9 47 -19 9 -16
11 -16 29 0 18 16 19 16 13 1 -7 -20 15 -23 35 -4 11 9 14 9 18 0 4 -10 83
-13 349 -13 189 0 344 3 344 8 0 8 -23 23 -81 54 -31 16 -38 25 -34 39 9 27 1
24 -42 -17 -78 -73 -113 -81 -113 -26 0 39 26 62 43 38 12 -16 15 -16 40 4 22
18 25 25 16 36 -6 8 -17 14 -25 14 -30 0 -22 21 15 39 82 42 111 130 69 211
-30 58 -66 81 -162 104 -42 10 -80 24 -82 31 -8 21 13 52 41 59 13 3 31 20 40
36 11 22 25 31 53 36 20 3 52 11 69 17 26 9 39 8 68 -6 21 -10 46 -15 60 -11
18 4 33 -3 68 -35 24 -23 49 -41 55 -41 6 0 19 -15 28 -32 9 -18 28 -43 41
-56 21 -19 24 -29 20 -70 -3 -26 -10 -59 -16 -75 -12 -32 3 -37 19 -6 11 19
12 20 24 3 10 -13 20 -15 42 -10 16 4 63 11 104 16 41 5 76 9 78 9 1 1 2 8 2
16 0 8 5 15 10 15 6 0 10 -6 10 -13 0 -19 53 -47 88 -47 31 0 72 -38 72 -65 0
-7 11 -16 25 -19 23 -6 55 -50 55 -77 0 -6 12 -23 26 -36 18 -16 24 -29 19
-41 -4 -9 -10 -36 -12 -59 l-4 -43 213 1 c137 0 205 3 191 9 -15 6 -23 18 -23
32 0 26 -42 53 -97 64 -18 4 -33 10 -33 14 0 12 26 19 52 14 12 -3 -2 6 -32
21 -55 25 -55 25 -15 19 22 -4 80 -20 128 -35 49 -16 94 -29 100 -29 7 0 19
15 28 33 11 22 24 33 42 35 15 2 27 -1 27 -7 0 -6 -10 -11 -22 -12 -14 0 -17
-2 -8 -6 8 -2 22 -7 30 -10 8 -3 21 -7 28 -9 8 -1 21 -9 30 -17 10 -8 25 -17
35 -20 11 -4 15 -12 11 -19 -4 -7 -4 -10 1 -6 4 4 16 3 25 -2 14 -8 23 -2 45
26 l28 36 23 -28 c14 -17 23 -38 20 -51 -2 -15 5 -28 20 -38 20 -13 72 -15
327 -15 l303 0 125 46 c118 43 155 66 143 86 -3 5 -14 6 -25 3 -34 -11 -33 22
4 77 19 29 39 63 46 75 13 26 31 30 31 8 0 -17 46 -39 62 -29 5 3 37 -6 71
-22 34 -15 82 -33 107 -40 25 -7 38 -13 29 -13 -8 -1 -53 10 -100 24 -46 13
-90 25 -96 25 -18 0 -16 -51 3 -78 33 -47 171 -99 366 -137 119 -23 149 -25
428 -25 l299 0 11 43 c6 23 20 71 30 106 11 35 17 74 14 87 -4 15 -2 24 5 24
13 0 10 22 -4 32 -5 4 0 8 13 8 13 0 22 6 22 15 0 9 16 58 35 109 l35 94 -30
218 c-26 187 -70 449 -110 664 -6 30 -24 141 -40 245 -38 241 -39 245 -54 245
-12 0 -14 -8 -16 -85 -1 -27 -6 -43 -12 -39 -5 3 -7 12 -4 19 2 7 -1 16 -9 18
-7 3 -13 21 -13 42 0 59 -12 64 -162 70 -74 3 -162 10 -195 15 -34 5 -84 9
-112 9 -28 -1 -55 1 -61 5 -16 9 -59 -38 -59 -65 1 -39 -13 -100 -31 -128 -10
-17 -11 -22 -2 -14 20 18 25 16 37 -10 7 -16 8 -29 1 -41 -5 -10 -9 -41 -7
-69 5 -116 -1 -206 -16 -220 -11 -11 -14 -37 -12 -104 1 -74 -2 -99 -20 -139
-12 -27 -24 -58 -28 -68 -3 -12 -9 -16 -15 -10 -5 5 -6 42 -1 90 4 44 6 95 3
112 -2 18 1 39 8 47 8 9 14 53 16 107 2 50 8 114 14 143 12 60 11 122 -4 147
-7 11 -6 33 2 69 11 48 10 70 -3 57 -7 -7 -38 -138 -55 -232 -11 -57 -10 -70
1 -77 11 -6 11 -9 -2 -14 -10 -4 -21 -29 -28 -63 -7 -31 -17 -76 -22 -99 -12
-57 -11 -110 3 -119 8 -5 7 -10 -4 -18 -8 -6 -18 -20 -22 -31 -11 -28 -8 -207
4 -219 6 -6 4 -13 -6 -21 -14 -10 -14 -14 3 -43 15 -28 16 -34 4 -41 -20 -13
-80 -8 -89 6 -4 6 -21 13 -37 15 -25 2 -31 8 -33 33 -5 48 -22 54 -23 9 -2
-97 -7 -146 -15 -153 -5 -5 -23 -12 -41 -16 -29 -6 -32 -4 -38 26 -12 52 4
219 21 226 8 3 21 -3 28 -13 13 -17 14 -16 25 4 7 13 17 20 23 16 7 -4 8 1 2
17 -4 13 -7 29 -6 34 33 295 45 517 32 565 l-7 25 -11 -26 c-6 -15 -16 -46
-22 -70 -6 -24 -18 -61 -26 -83 -29 -76 -94 -526 -94 -653 0 -37 6 -76 15 -92
10 -20 12 -41 7 -72 l-7 -42 -76 74 c-89 87 -214 253 -283 375 -142 248 -224
587 -199 819 5 50 8 97 6 106 -5 17 6 16 -373 44 -107 8 -226 19 -265 25 -92
12 -195 13 -195 0 0 -5 -4 -10 -10 -10 -5 0 -10 7 -10 15 0 9 -9 15 -22 15
-13 0 -86 7 -163 15 -161 17 -405 39 -617 55 -112 9 -151 9 -168 0 -12 -7 -20
-8 -16 -2 3 5 -13 12 -37 15 -23 3 -43 2 -45 -3 -4 -12 -183 -1 -197 11 -5 5
-33 9 -62 9 -41 0 -57 -5 -70 -20 -12 -13 -30 -20 -55 -20 -33 0 -37 3 -35 22
2 22 -3 23 -78 29 -43 4 -81 12 -83 18 -2 6 -17 11 -34 11 -23 0 -29 4 -24 15
8 21 -32 20 -57 -2 -18 -17 -19 -17 -32 0 -6 9 -17 17 -24 17 -15 0 -14 45 2
59 8 6 17 8 20 4 4 -3 7 -1 7 5 0 7 8 12 18 12 16 1 16 1 -1 14 -23 18 -12 45
22 52 39 8 56 19 56 38 0 26 27 37 66 26 20 -6 37 -6 42 -1 5 5 16 7 23 4 8
-3 14 0 14 7 0 8 -10 9 -29 5 -21 -4 -32 -2 -38 10 -8 13 -14 13 -41 4 -25 -8
-36 -8 -47 1 -8 7 -12 16 -9 21 3 5 0 9 -7 9 -35 0 -51 83 -28 149 11 32 39
43 39 15 0 -8 7 -23 16 -31 9 -9 13 -24 10 -34 -16 -51 -14 -60 4 -24 23 47
24 62 8 80 -45 49 -46 56 -21 76 13 11 17 11 20 2 7 -20 22 -15 20 7 -1 11 -5
20 -9 20 -19 0 -98 -57 -98 -70 0 -9 -9 -23 -19 -32 -17 -14 -18 -22 -11 -50
10 -34 4 -72 -9 -63 -5 2 -11 19 -15 37 -5 24 -9 29 -15 19 -6 -9 -11 -10 -15
-2 -4 6 -5 15 -2 19 6 10 -30 52 -44 52 -6 0 -9 3 -8 8 2 7 -32 82 -37 82 -1
0 -15 -7 -31 -15 -23 -12 -25 -15 -11 -21 24 -9 22 -22 -15 -100 -19 -39 -35
-92 -38 -123 l-5 -54 -35 29 -35 29 25 -35 c13 -19 32 -40 41 -47 38 -28 24
-92 -25 -114 -11 -5 -29 -15 -38 -21 -14 -10 -22 -10 -38 -1 -16 11 -21 10
-30 -7 -15 -28 -67 -47 -121 -45 -54 3 -73 11 -65 31 4 10 -3 14 -21 14 -16 0
-39 12 -55 27 -25 23 -32 26 -48 15 -24 -15 -53 -15 -67 -1 -8 8 -13 5 -18
-10 -3 -11 -4 -24 -1 -29 2 -4 -4 -9 -16 -9 -12 -1 -18 3 -15 10 3 7 -1 21 -9
31 -43 59 -17 212 48 283 20 21 20 21 0 32 -12 6 -25 11 -30 11 -16 0 -62
-108 -62 -147 l-1 -38 -16 29 c-21 40 -11 130 23 207 33 74 28 104 -23 126
-21 8 -53 28 -72 44 -20 16 -47 29 -61 29 -49 0 -70 11 -70 36 0 12 -4 26 -10
29 -5 3 -10 19 -10 34 0 21 6 30 21 34 30 8 18 32 -15 32 -20 0 -32 -8 -44
-30 -30 -54 -44 -57 -57 -12 -7 20 -21 37 -39 46 -25 12 -33 11 -57 -3 -15 -9
-44 -16 -64 -16 -57 0 -74 -14 -69 -55 2 -20 10 -53 18 -75 7 -21 12 -51 10
-66 -1 -15 4 -37 12 -48 17 -25 18 -63 2 -70 -10 -3 -8 -9 5 -19 21 -17 23
-63 2 -71 -8 -3 -15 -11 -14 -18 0 -10 2 -10 6 0 7 17 23 15 23 -3 0 -8 -4
-15 -10 -15 -5 0 -10 -4 -10 -10 0 -5 7 -7 15 -4 10 4 15 0 15 -15 0 -12 8
-39 19 -60 12 -27 15 -44 9 -55 -6 -11 -6 -22 1 -30 6 -7 8 -16 4 -19 -3 -4 0
-13 6 -21 7 -8 10 -20 6 -26 -4 -6 -1 -17 5 -25 8 -10 9 -15 2 -15 -13 0 16
-88 36 -109 7 -7 10 -22 7 -32 -4 -12 -1 -21 9 -25 9 -3 14 -10 11 -14 -3 -5
1 -27 9 -50 15 -45 13 -83 -5 -89 -6 -2 1 -15 15 -30 15 -15 28 -37 31 -49 2
-12 7 -28 11 -34 5 -7 7 -27 5 -44 -3 -39 14 -53 77 -61 45 -5 51 -9 65 -42
19 -46 27 -91 15 -91 -5 0 -22 -10 -38 -22 -26 -19 -34 -20 -67 -10 -32 10
-40 9 -49 -3 -15 -20 -26 -19 -58 6 -15 12 -26 30 -26 45 0 13 -4 24 -10 24
-16 0 -12 15 10 40 11 13 20 36 20 52 0 15 4 28 9 28 5 0 8 8 6 18 -2 9 -4 21
-4 25 -1 5 -5 6 -10 3 -22 -14 -41 11 -71 95 l-33 90 -31 -6 c-38 -8 -77 -21
-133 -46 -24 -11 -54 -19 -67 -19 -14 0 -50 -6 -80 -14 -31 -8 -71 -12 -91 -9
-33 5 -35 4 -35 -21 0 -14 -4 -26 -8 -26 -5 0 -20 -16 -34 -36 -14 -19 -44
-45 -66 -57 -63 -35 -184 -157 -205 -207 -4 -8 -14 -25 -23 -38 -14 -19 -14
-22 -1 -22 21 0 40 -26 33 -47 -3 -10 -30 -34 -58 -53 -29 -19 -56 -40 -61
-47 -4 -7 -15 -9 -24 -6 -10 4 -14 2 -10 -4 4 -6 0 -13 -8 -17 -8 -3 -17 -1
-20 4 -3 5 -17 5 -33 -1 -31 -11 -41 -55 -13 -62 11 -3 9 -5 -6 -6 -36 -2 -84
-34 -79 -53 5 -22 -3 -22 -29 -1 -16 13 -17 15 -2 10 9 -4 17 -2 17 3 0 19
-29 10 -41 -12 -10 -18 -8 -24 7 -35 10 -7 24 -13 31 -13 21 0 15 -17 -9 -25
-13 -4 -27 -6 -32 -6 -5 1 -13 -4 -17 -11 -7 -10 -9 -10 -9 1 0 11 -3 11 -15
1 -8 -7 -15 -19 -15 -26 0 -17 -5 -17 -31 -4 -10 6 -19 18 -19 28 0 10 -3 13
-8 7 -8 -12 -44 -16 -37 -5 6 10 -20 32 -29 23 -3 -4 -12 1 -19 9 -6 9 -35 23
-64 31 -61 17 -91 12 -225 -40 -91 -34 -123 -40 -133 -24 -6 10 -18 10 -135
-5 -36 -4 -69 -7 -74 -5 -5 1 -12 -3 -16 -9 -5 -8 -14 -8 -34 1 -56 26 -32 34
244 78 153 24 409 113 549 190 75 42 213 148 326 251 33 31 78 68 100 84 58
42 135 118 129 128 -3 4 -15 8 -27 8 -17 0 -27 11 -40 41 -17 39 -17 42 -1 60
9 11 23 19 29 19 14 0 29 -46 20 -60 -3 -5 6 -20 20 -34 l25 -25 51 35 c28 19
58 34 68 35 25 1 50 5 121 19 68 13 350 98 362 109 4 3 1 31 -6 61 -35 144
-68 231 -63 164 2 -25 -1 -29 -23 -26 -14 1 -81 5 -150 8 -69 3 -174 7 -235
10 l-110 5 -12 -26 c-9 -20 -8 -25 3 -25 17 0 18 -12 2 -28 -7 -7 -13 -20 -13
-29 0 -30 -25 -26 -26 4 0 15 -2 40 -3 55 -1 17 4 30 14 33 41 17 -36 28 -214
31 -105 2 -217 6 -248 9 -38 4 -58 2 -58 -5 0 -5 -4 -10 -10 -10 -5 0 -10 6
-10 13 0 7 -14 14 -32 15 -18 1 -46 5 -61 8 -17 3 -34 0 -44 -8 -13 -10 -17
-10 -20 0 -3 6 -21 12 -41 12 -20 1 -56 5 -79 9 -30 6 -50 4 -68 -5 -14 -7
-23 -9 -20 -4 4 6 -3 10 -14 10 -12 0 -21 -4 -21 -10 0 -5 -5 -10 -11 -10 -6
0 -9 7 -5 15 5 13 -10 15 -117 11 -67 -2 -127 0 -133 5 -12 10 -66 17 -209 29
-103 8 -135 15 -135 31 0 5 2 9 5 9 2 0 54 7 115 15 122 18 311 23 379 11 62
-11 44 8 -21 22 -29 7 -118 17 -198 22 -223 16 -407 43 -427 63 -10 11 -17 44
-14 75 1 8 17 12 47 12 47 0 84 13 84 30 0 6 -17 10 -39 10 -53 0 -98 18 -104
41 -3 11 -1 34 4 52 5 17 9 64 9 104 0 81 10 114 43 146 70 68 107 164 93 239
-10 57 -62 151 -109 199 -24 25 -85 72 -136 104 -50 33 -91 65 -91 72 0 8 9
33 20 55 11 23 20 57 20 76 0 23 7 40 23 53 l22 20 -25 -3 c-35 -4 -38 30 -6
65 14 15 23 34 20 42 -4 9 1 17 12 21 32 11 55 36 75 81 10 23 27 48 38 55 10
7 21 23 25 35 4 11 25 38 48 60 23 21 56 52 73 69 17 18 46 39 63 48 30 15 32
15 32 0 0 -44 -82 -165 -195 -288 -25 -26 -25 -28 -6 -23 25 6 25 4 6 -33 -46
-88 35 22 121 165 81 135 114 217 142 358 29 145 -33 354 -159 539 -11 15 -19
34 -19 43 0 9 -4 25 -10 35 -5 10 -14 70 -20 134 -6 64 -13 126 -16 138 -2 13
-9 61 -15 108 -6 47 -15 99 -20 116 -5 17 -9 39 -9 49 0 10 -5 33 -12 51 -9
25 -8 50 1 111 6 43 14 92 16 108 l4 30 -19 -23 c-18 -22 -40 -23 -40 -2 0 14
31 41 43 37 13 -4 47 23 47 38 0 6 9 30 20 53 11 22 20 45 20 51 0 5 25 38 56
73 31 35 63 79 71 98 9 19 21 46 28 60 6 14 17 45 24 70 7 25 17 59 22 76 5
17 9 39 9 50 0 11 5 25 11 31 6 6 14 41 16 77 8 92 21 95 48 11 6 -19 7 -19
16 -2 10 17 2 58 -21 112 -34 79 -63 199 -70 288 -13 150 -27 234 -70 412 -43
176 -67 316 -80 473 -4 56 -13 108 -18 115 -13 15 -23 117 -28 273 -2 66 -6
139 -8 164 -2 25 -7 115 -11 200 -6 142 -9 160 -35 215 -25 53 -29 74 -33 185
-6 150 -27 209 -102 280 -31 30 -59 71 -81 120 -24 51 -53 94 -92 133 -31 31
-60 57 -65 57 -27 0 -135 62 -145 84 -21 46 -124 171 -150 183 -15 6 -43 28
-62 48 -34 36 -87 65 -119 65 -24 1 -155 89 -332 226 -30 23 -103 67 -163 98
-116 60 -181 72 -212 41 -9 -8 -24 -15 -33 -15 -39 0 -46 27 -49 187 l-4 153
-163 0 -163 0 6 -110 c6 -128 3 -131 -82 -111 -28 6 -88 17 -133 23 -46 7 -83
14 -83 17 0 4 10 14 23 23 122 96 132 105 135 131 3 23 0 27 -22 27 -23 0 -26
-4 -26 -34 0 -28 -8 -41 -53 -79 -77 -65 -149 -91 -201 -71 -22 8 -22 89 -1
98 8 3 15 17 15 31 0 21 -4 25 -19 20 -14 -4 -21 0 -26 15 -4 13 -15 20 -32
20 l-25 0 4 -90 c3 -49 2 -90 -2 -90 -9 0 -20 77 -20 136 0 32 -4 44 -15 44
-16 0 -18 -11 -20 -125 0 -63 -3 -70 -21 -73 -27 -4 -34 19 -34 121 0 71 -2
77 -21 77 -19 0 -20 -5 -17 -101 3 -109 -2 -119 -54 -119 -14 0 -33 -3 -42 -6
-11 -4 -16 -1 -16 10 0 20 -14 21 -30 1 -7 -9 -19 -14 -25 -11 -7 2 -17 0 -23
-6 -17 -17 -30 -1 -34 41 -3 31 -1 37 9 29 17 -14 25 9 21 54 -2 21 -8 33 -18
33 -11 0 -15 11 -14 38 1 32 -2 37 -22 37 -23 0 -23 -1 -27 -127 l-3 -128 -2
128 c-2 120 -3 127 -22 127 -20 0 -20 -5 -18 -147 l3 -147 -75 -48 c-41 -26
-82 -51 -90 -54 -8 -4 -53 -35 -99 -68 -85 -61 -501 -462 -501 -483 0 -6 9 -9
19 -6 33 9 18 -25 -30 -67 -24 -21 -41 -41 -37 -45 4 -5 13 -3 20 2 15 12 48
24 48 18 0 -2 -18 -25 -40 -52 -21 -26 -50 -61 -63 -78 -13 -16 -52 -82 -87
-145 -34 -63 -68 -122 -75 -130 -23 -27 -47 -81 -41 -95 3 -8 -2 -19 -10 -26
-14 -11 -54 -89 -54 -105 0 -3 6 -4 14 -1 33 13 18 -8 -56 -81 -82 -79 -144
-169 -153 -223 -3 -17 -24 -65 -46 -106 -22 -41 -38 -77 -35 -80 3 -3 17 2 31
11 19 13 26 14 24 4 -1 -7 -1 -26 0 -43 l2 -30 27 33 c34 42 99 60 119 34 20
-27 15 -59 -13 -81 -15 -12 -32 -21 -39 -21 -7 0 -15 -7 -19 -15 -4 -12 3 -15
34 -15 l38 0 -3 -117 c-2 -65 -6 -163 -10 -219 -9 -112 -1 -184 18 -165 12 12
44 15 50 4 3 -5 -4 -55 -14 -113 -20 -111 -23 -172 -10 -205 5 -11 4 -32 -1
-47 -8 -22 -6 -33 10 -55 33 -46 16 -118 -84 -360 -24 -56 -34 -97 -34 -133 0
-28 -6 -63 -14 -79 -16 -31 -26 -140 -12 -140 5 1 12 -5 17 -12 11 -18 113 93
145 158 14 29 39 63 55 75 16 13 52 44 79 70 46 44 110 86 110 73 0 -10 -27
-34 -32 -29 -3 2 -12 -6 -21 -20 -23 -35 -10 -39 37 -12 23 13 53 26 68 30 16
3 49 20 75 36 83 53 103 29 21 -25 -25 -16 -77 -59 -116 -95 -64 -57 -72 -69
-78 -110 -9 -67 -26 -109 -46 -116 -10 -3 -18 -9 -18 -13 0 -5 -11 -25 -25
-45 -14 -21 -27 -45 -28 -54 -1 -9 -5 -21 -9 -27 -3 -5 -9 -27 -12 -48 -3 -21
-11 -47 -16 -57 -6 -10 -10 -32 -10 -49 0 -16 -5 -33 -10 -36 -12 -7 -12 -7
-15 68 -2 31 -8 63 -14 70 -6 8 -8 16 -5 19 9 10 13 98 4 103 -5 3 -4 20 1 38
5 17 9 36 9 41 0 14 -43 -47 -65 -91 -10 -21 -22 -46 -27 -55 -10 -21 -2 -23
17 -4 8 7 11 16 8 20 -10 9 10 7 27 -4 32 -20 -33 -52 -79 -39 -8 2 -29 -23
-54 -64 -29 -47 -43 -63 -49 -54 -10 19 -13 127 -4 154 4 12 2 24 -4 28 -15 9
-12 41 6 55 16 14 16 75 0 75 -5 0 -24 -29 -42 -64 l-34 -65 20 -33 c11 -19
14 -31 8 -27 -10 5 -10 4 -1 -6 9 -10 9 -18 1 -34 -6 -12 -11 -23 -10 -26 1
-3 -4 -5 -10 -5 -7 0 -20 -14 -28 -31 -26 -51 -59 -92 -60 -72 0 9 4 20 10 23
16 10 12 141 -4 158 -14 13 -19 40 -17 85 1 26 38 31 47 7 8 -21 26 -7 23 18
0 12 0 24 1 27 1 3 3 28 5 55 2 28 7 70 11 95 12 68 11 203 -2 207 -20 7 -55
-113 -59 -198 -1 -44 -6 -83 -9 -86 -11 -11 -35 31 -36 60 0 36 -32 67 -60 60
-12 -3 -23 -11 -25 -17 -30 -106 -39 -128 -72 -156 -24 -21 -36 -42 -40 -68
-7 -43 -29 -92 -43 -92 -19 0 -48 -43 -75 -113 -15 -40 -32 -77 -36 -83 -18
-23 -40 -101 -44 -156 -3 -31 -16 -82 -30 -113 -13 -31 -29 -74 -35 -95 -7
-27 -17 -40 -34 -44 -30 -7 -50 -38 -70 -106 -20 -68 -20 -73 2 -61 21 11 82
120 82 145 0 9 5 16 11 16 18 0 80 73 110 130 28 55 68 112 69 98 0 -5 -14
-37 -30 -71 -17 -35 -30 -67 -30 -70 0 -4 -11 -31 -25 -61 -14 -30 -25 -58
-25 -63 0 -15 -81 -167 -106 -201 -14 -17 -32 -54 -40 -81 -8 -27 -21 -54 -29
-61 -13 -11 -65 -110 -65 -124 0 -4 -13 -25 -30 -48 -16 -22 -30 -45 -30 -50
0 -12 -27 -39 -37 -38 -4 0 -9 -10 -11 -22 -9 -72 -19 -84 -39 -43 -9 21 -8
30 14 62 13 20 34 66 45 102 39 128 61 162 107 165 8 1 21 17 28 36 l14 35
-20 -22 c-22 -26 -41 -30 -41 -8 0 8 5 15 12 15 9 0 9 3 1 11 -9 9 -5 25 14
64 16 32 23 60 19 70 -6 17 -9 16 -34 -8 -41 -40 -124 -213 -163 -342 -28 -92
-62 -183 -97 -256 -17 -36 -47 -113 -67 -171 -19 -58 -42 -119 -50 -135 -8
-15 -15 -37 -15 -48 0 -11 -8 -49 -18 -85 -11 -40 -17 -87 -15 -121 3 -42 0
-61 -12 -72 -14 -14 -13 -16 6 -22 18 -6 20 -13 16 -58 -14 -136 -26 -234 -32
-249 -4 -11 0 -20 14 -28 17 -8 21 -8 21 3 0 8 8 22 19 31 10 9 21 35 24 57 3
23 14 51 25 62 11 12 24 36 28 52 4 17 11 35 16 41 5 7 11 36 14 65 3 30 8 61
11 69 4 8 7 19 7 24 1 5 6 11 12 13 15 5 24 -29 24 -89 0 -53 11 -61 28 -23
13 29 32 33 30 8 -3 -37 2 -63 12 -63 11 0 31 43 33 73 1 11 7 15 16 12 8 -3
25 5 39 17 l25 23 -7 -25 c-4 -14 -11 -47 -16 -75 -5 -27 -16 -74 -24 -104
-14 -49 -14 -146 1 -191 7 -23 21 7 33 70 5 29 23 79 38 113 47 100 82 213 82
261 0 15 4 34 9 44 11 21 66 188 85 257 38 139 86 299 94 309 5 6 12 34 15 62
6 53 34 111 75 156 14 15 22 33 20 40 -3 7 5 21 19 31 23 18 24 18 19 -5 -2
-13 -18 -61 -36 -108 -52 -141 -90 -259 -90 -280 0 -20 -5 -43 -50 -240 -13
-52 -28 -139 -35 -194 -12 -89 -26 -129 -40 -114 -3 2 -1 26 4 52 5 25 5 48 1
51 -11 7 -52 -121 -85 -260 -15 -66 -31 -131 -36 -145 -7 -24 -7 -24 -8 5 -1
17 -5 37 -11 45 -11 17 -12 15 -30 -75 -7 -33 -16 -71 -21 -85 -5 -14 -7 -56
-6 -95 2 -63 4 -70 22 -70 14 0 21 -8 23 -25 2 -14 10 -29 18 -33 8 -4 14 -17
14 -28 0 -10 5 -28 11 -38 7 -10 9 -30 5 -45 -5 -22 -10 -25 -31 -20 -27 7
-35 -12 -14 -33 7 -7 -1 -29 -26 -72 -40 -68 -85 -165 -85 -183 0 -6 11 -1 24
12 15 14 31 20 41 16 15 -5 15 -9 -4 -39 -14 -22 -17 -37 -10 -44 6 -6 -1 -20
-21 -41 -16 -18 -30 -43 -30 -56 0 -13 -9 -35 -20 -49 -11 -14 -20 -31 -20
-39 0 -7 -12 -51 -27 -97 -20 -65 -32 -87 -53 -99 -32 -18 -60 -64 -60 -98 0
-36 -44 -127 -82 -170 -19 -22 -45 -61 -58 -87 -25 -53 -40 -49 -40 11 0 28
-3 32 -26 32 -23 0 -25 3 -20 24 3 14 2 28 -4 31 -5 3 -10 16 -10 28 0 35 46
140 74 169 29 30 33 59 12 77 -18 15 -41 -7 -68 -64 -11 -22 -29 -54 -41 -71
-38 -55 -61 -99 -58 -113 1 -7 -12 -34 -30 -58 -26 -37 -32 -55 -33 -101 -1
-47 -4 -57 -20 -60 -16 -3 -18 0 -12 30 4 18 7 42 7 53 0 131 -1 146 -16 151
-8 4 -22 1 -30 -6 -20 -16 -19 -5 1 26 10 14 23 23 30 20 9 -3 16 7 20 32 4
23 20 50 40 70 22 21 33 42 33 60 0 69 12 124 41 188 18 41 30 81 28 99 -3 28
-5 26 -44 -40 -23 -39 -45 -81 -48 -95 -12 -42 -50 -120 -59 -120 -5 0 -6 14
-2 30 4 18 2 36 -5 44 -8 11 -4 19 20 36 30 21 40 53 20 65 -7 4 -5 14 5 28 8
12 15 31 15 42 -1 19 -2 19 -20 -4 l-20 -23 0 27 c0 26 -2 27 -40 22 -23 -3
-40 -1 -40 5 0 5 -8 8 -17 7 -37 -3 -44 1 -41 23 2 19 8 22 34 20 24 -2 33 2
41 21 9 19 17 23 36 20 25 -5 48 20 60 65 7 28 -16 87 -38 95 -9 4 -15 19 -15
37 0 18 -6 33 -15 36 -8 4 -15 13 -15 21 0 19 -63 96 -97 118 -24 16 -26 16
-47 -4 -27 -25 -53 -27 -84 -5 -29 20 -28 58 3 82 43 34 28 99 -34 155 -17 15
-31 36 -31 46 0 24 -50 37 -79 21 -28 -15 -46 -49 -32 -63 7 -7 4 -19 -10 -38
-19 -28 -19 -28 0 -38 27 -15 49 -14 58 4 6 10 13 11 23 5 13 -8 11 -13 -11
-32 -44 -40 -53 -56 -39 -73 7 -8 9 -15 6 -15 -4 0 -2 -9 4 -19 6 -11 6 -22 1
-25 -14 -9 -22 -71 -13 -97 12 -33 5 -56 -19 -62 -11 -3 -17 -1 -13 5 4 6 1 8
-7 6 -8 -3 -13 -12 -11 -22 2 -11 -4 -16 -22 -16 -25 0 -47 -25 -39 -46 8 -23
-29 -23 -58 -1 l-31 22 -19 -24 c-23 -28 -25 -59 -3 -68 8 -3 20 -17 25 -30 8
-21 15 -24 46 -21 31 3 38 8 44 32 5 16 4 37 -2 48 -13 24 2 23 24 -2 22 -26
22 -43 -2 -64 -11 -10 -17 -24 -14 -32 7 -19 47 -18 63 1 7 8 18 15 25 15 13
0 42 66 37 84 -2 5 5 6 14 2 46 -18 59 -17 69 6 8 18 21 25 60 30 50 7 120 -6
110 -22 -4 -6 -43 -18 -77 -24 -14 -2 -19 -16 -22 -67 -2 -30 -9 -72 -15 -94
-18 -64 -22 -118 -9 -126 9 -6 8 -11 -2 -23 -7 -9 -10 -19 -7 -22 3 -3 1 -19
-5 -35 -9 -25 -7 -32 8 -44 18 -13 18 -14 -1 -35 -31 -34 -45 -86 -29 -107 17
-23 17 -48 0 -62 -18 -15 -26 -80 -13 -108 7 -16 6 -27 -3 -38 -7 -9 -12 -44
-12 -90 0 -41 -4 -78 -9 -81 -5 -3 -9 -44 -10 -92 -1 -156 -4 -207 -10 -217
-4 -5 -7 -69 -7 -142 -1 -147 -10 -354 -18 -395 -4 -19 -16 -31 -45 -42 -22
-9 -50 -16 -62 -16 -13 0 -94 -16 -180 -35 -85 -20 -172 -36 -192 -38 l-36 -2
-4 55 c-5 64 -20 362 -40 785 -8 165 -19 379 -24 475 -5 96 -13 247 -16 335
-4 88 -8 167 -10 175 -3 8 -9 139 -15 290 -6 151 -12 307 -15 345 -6 84 -22
434 -35 755 -19 467 -23 541 -31 545 -4 3 -6 -3 -4 -12 2 -10 6 -130 9 -268 6
-235 24 -663 45 -1050 10 -184 16 -327 31 -735 5 -146 12 -321 15 -390 2 -69
7 -201 10 -295 3 -93 10 -235 15 -315 5 -80 12 -246 14 -370 l5 -225 -13 165
c-8 91 -19 262 -25 380 -6 118 -16 287 -21 375 -11 183 -37 668 -45 860 -3 72
-10 209 -15 305 -13 237 -28 579 -40 905 -6 149 -19 457 -30 685 -11 228 -26
591 -35 805 -8 215 -19 489 -25 610 -6 121 -8 229 -6 240 2 11 5 106 7 210 2
170 3 181 10 108 26 -249 27 -250 23 -18 -2 127 -9 390 -14 585 -5 195 -12
479 -15 630 -3 151 -8 298 -10 325 -2 28 -7 227 -11 444 -5 283 -4 392 4 387
6 -4 18 6 27 24 10 19 23 30 36 30 18 0 20 -4 14 -27 -4 -16 -8 -63 -9 -107
-1 -69 1 -80 20 -92 21 -14 21 -14 19 63 -2 94 13 161 40 179 19 12 98 21 635
74 202 20 548 56 875 91 105 11 258 24 340 29 154 9 390 35 405 45 8 5 7 47
-5 275 -1 30 -3 108 -4 173 l-1 117 -1345 0 -1345 0 0 -97z m5571 -2227 c-7
-8 -11 -21 -9 -29 2 -8 -16 -30 -39 -50 -37 -30 -48 -34 -83 -31 -46 4 -80 19
-80 34 0 6 -8 10 -17 10 -13 0 -14 3 -6 11 6 6 23 12 37 12 14 0 24 3 21 7 -9
14 23 31 48 25 16 -5 41 2 73 18 49 26 79 22 55 -7z m721 -101 c4 -5 -1 -18
-10 -29 -16 -18 -16 -19 1 -13 15 6 16 4 7 -13 -10 -19 -5 -25 21 -22 4 1 4
-18 2 -41 -7 -63 -5 -79 9 -89 8 -5 2 -6 -16 -2 l-29 7 22 -22 c33 -33 27 -45
-20 -37 -27 4 -38 3 -34 -4 3 -6 -1 -13 -9 -16 -9 -3 -16 -15 -16 -25 0 -21
-1 -22 -24 -13 -13 5 -14 9 -5 20 9 11 6 14 -14 14 -16 0 -31 -8 -37 -19 -11
-22 -52 -20 -77 4 -8 8 -26 15 -41 16 -69 2 -192 45 -192 68 0 17 136 101 164
101 14 0 26 6 26 13 0 8 4 7 10 -3 6 -10 10 -11 10 -2 0 6 6 12 13 12 11 0 86
46 115 70 6 6 12 8 12 4 0 -3 12 1 26 11 14 9 28 14 32 11 3 -3 0 -6 -6 -6 -7
0 -12 -4 -12 -10 0 -18 19 -10 25 10 7 21 34 24 47 5z m-722 -268 c8 -3 27 -8
43 -11 56 -13 24 -48 -68 -74 -46 -13 -94 -25 -115 -28 -8 -2 -33 -7 -55 -13
-47 -11 -126 -7 -152 8 -14 8 -14 10 -3 11 13 0 13 2 1 9 -25 16 11 39 121 76
82 27 114 34 158 30 30 -2 62 -6 70 -8z m712 -349 l36 -2 7 -90 c3 -50 10
-113 15 -141 10 -52 8 -104 -3 -123 -4 -5 -2 -12 4 -14 37 -12 62 -409 31
-488 -5 -14 -9 -28 -8 -31 0 -4 -7 -16 -18 -27 -17 -20 -20 -20 -60 -5 -22 9
-48 22 -57 30 -8 7 -23 13 -33 13 -9 0 -27 5 -38 11 -12 7 -54 13 -94 15 -87
4 -144 25 -144 53 0 11 5 23 10 26 19 12 80 15 80 5 0 -5 11 -10 25 -10 15 0
39 -7 55 -15 41 -21 78 -6 75 29 -2 14 1 26 6 26 14 0 32 49 33 88 1 33 -27
73 -41 59 -3 -4 -15 1 -26 10 -17 16 -20 16 -30 2 -7 -9 -22 -19 -35 -23 -12
-4 -22 -13 -22 -19 -1 -23 -50 -47 -110 -54 l-60 -6 0 31 c0 25 -5 33 -25 38
-20 5 -25 12 -25 38 0 18 6 40 13 50 17 24 2 60 -30 75 -36 16 -29 41 11 41
18 0 45 9 59 20 14 11 30 20 36 20 11 0 15 12 12 42 -1 9 3 19 9 23 8 5 6 11
-4 18 -14 11 -11 19 20 65 25 36 34 60 30 75 -7 29 11 47 48 47 55 0 75 -31
77 -120 1 -43 7 -64 18 -71 14 -9 14 -10 -1 -5 -18 6 -25 -8 -9 -18 5 -3 0
-23 -10 -43 -12 -23 -15 -39 -9 -41 6 -2 7 -8 4 -14 -4 -6 1 -8 15 -3 13 4 28
1 36 -5 12 -10 15 -9 16 4 3 33 4 37 17 45 15 9 26 71 12 71 -5 0 -8 14 -8 31
1 17 -5 34 -12 39 -9 6 -10 15 -3 36 5 16 8 44 6 63 -2 19 2 40 7 46 6 7 10
17 9 21 -5 20 30 76 42 68 3 -2 22 -4 41 -6z m-1216 -48 c-3 -23 1 -33 14 -40
15 -8 19 -21 18 -55 0 -40 -3 -45 -20 -39 -19 6 -19 5 -1 -15 10 -12 19 -17
21 -11 2 6 13 1 23 -11 13 -15 19 -17 19 -8 1 10 5 8 15 -5 8 -10 12 -23 9
-27 -3 -5 0 -9 5 -9 6 0 11 -6 11 -14 0 -9 7 -12 23 -9 18 4 19 3 7 -6 -14
-10 -12 -13 7 -10 3 0 10 -7 15 -16 10 -17 52 -38 80 -39 9 -1 23 -7 30 -13 6
-7 20 -13 30 -13 10 0 18 -4 18 -9 0 -5 10 -7 23 -4 16 3 18 2 9 -5 -11 -7
-10 -10 3 -16 26 -10 67 -7 60 4 -10 16 11 12 25 -5 7 -8 19 -15 27 -15 8 0
11 -4 8 -10 -3 -5 -2 -10 3 -10 5 0 19 -9 31 -19 20 -17 20 -20 6 -35 -9 -9
-21 -16 -26 -16 -6 0 -7 -10 -4 -22 7 -23 7 -23 -9 -3 -15 20 -15 20 -11 -3 2
-14 -5 -31 -21 -47 -13 -13 -24 -28 -24 -34 0 -5 -9 -13 -20 -16 -11 -3 -20
-14 -20 -23 0 -15 -2 -15 -10 -2 -9 13 -14 8 -12 -11 1 -4 -12 -12 -28 -19
-17 -7 -30 -19 -30 -27 0 -12 -7 -14 -31 -9 -18 3 -37 2 -44 -4 -6 -5 -45 -12
-86 -14 -66 -4 -72 -3 -55 10 19 13 19 14 -7 14 -20 0 -25 4 -22 20 2 11 -1
20 -6 20 -6 0 -8 4 -5 9 3 5 -1 14 -9 21 -8 7 -12 17 -9 22 3 5 -3 12 -15 15
-18 5 -23 15 -20 39 0 4 -5 10 -12 15 -7 4 -14 15 -15 25 -2 9 -6 20 -11 23
-4 3 -14 20 -22 36 -7 17 -17 38 -22 47 -5 9 -6 32 -2 49 4 21 2 30 -4 26 -6
-4 -10 6 -11 23 0 17 4 30 9 30 6 0 7 6 3 12 -11 18 -12 48 -2 48 4 0 7 3 7 8
-3 20 2 42 14 54 6 7 12 19 13 26 3 41 5 44 20 38 8 -3 12 -2 9 4 -3 6 2 10
12 10 11 0 14 3 7 8 -17 11 -15 92 3 92 10 0 13 -8 9 -30z m-4968 -640 c12
-12 22 -25 22 -30 0 -6 5 -9 12 -7 7 1 12 -16 15 -43 4 -63 -1 -72 -32 -60
-24 9 -30 4 -26 -22 0 -5 -9 -8 -21 -8 -32 0 -8 -22 26 -23 14 -1 26 -6 26
-10 0 -5 5 -5 11 -2 7 5 9 -10 6 -44 -5 -62 -13 -74 -19 -31 -3 17 -1 33 3 36
14 8 -2 34 -22 34 -21 0 -23 -15 -10 -72 5 -22 5 -36 0 -32 -5 3 -9 1 -9 -5 0
-5 8 -15 18 -20 16 -10 16 -10 0 -11 -11 0 -15 -5 -12 -14 3 -8 13 -12 26 -8
14 3 19 1 14 -6 -4 -7 -3 -12 2 -12 6 0 8 -9 5 -20 -3 -11 -9 -17 -14 -14 -5
3 -9 -1 -10 -8 0 -7 -2 -26 -4 -42 -3 -25 -2 -26 9 -11 9 13 15 15 20 6 10
-15 -1 -44 -13 -37 -5 3 -15 -1 -22 -10 -7 -8 -8 -14 -3 -13 40 7 43 2 44 -96
0 -11 5 -30 11 -41 9 -17 7 -37 -5 -86 -9 -35 -16 -85 -16 -111 0 -33 -6 -53
-19 -66 -11 -11 -17 -22 -13 -25 3 -4 -2 -12 -11 -19 -15 -11 -15 -17 -2 -67
18 -65 20 -93 6 -70 -6 8 -8 17 -5 21 2 4 -6 9 -18 11 -15 2 -23 10 -23 23 0
11 -3 25 -6 30 -8 12 -4 99 5 113 3 6 2 13 -4 17 -5 3 -9 39 -7 80 1 41 -1 75
-5 75 -4 0 -5 6 -3 13 7 20 13 185 7 191 -7 7 -10 178 -4 190 7 13 5 177 -2
223 -3 21 -2 45 4 53 5 8 10 11 10 5 1 -9 30 52 30 62 0 2 -4 1 -10 -2 -12 -7
-12 -3 -4 19 8 21 16 20 42 -4z m5583 -330 c5 0 9 -6 9 -13 0 -9 13 -14 36
-15 20 -1 43 -7 51 -14 8 -7 24 -13 34 -15 11 -2 32 -11 46 -20 l26 -18 -34
-6 c-18 -4 -37 -5 -42 -2 -5 3 -41 6 -81 7 -50 2 -82 8 -104 21 -33 20 -38 41
-8 39 9 -1 19 8 22 23 4 16 11 22 21 19 8 -3 19 -6 24 -6z m-2166 -152 c-4
-24 -23 -88 -42 -143 -19 -55 -37 -129 -39 -165 -3 -36 -12 -87 -19 -115 -8
-27 -21 -77 -29 -110 -29 -113 -49 -165 -66 -165 -9 0 -21 -5 -27 -11 -29 -29
-41 17 -24 94 5 23 17 89 26 147 23 142 69 286 116 364 21 36 39 68 39 72 0 8
61 74 68 74 2 0 1 -19 -3 -42z m2057 -38 c20 -28 23 -29 44 -15 34 22 62 18
89 -11 21 -22 30 -25 59 -20 27 5 40 2 65 -19 24 -21 34 -24 50 -15 15 7 32 6
66 -6 26 -8 59 -13 75 -9 18 4 40 0 64 -13 l36 -19 -50 -52 c-47 -49 -75 -62
-96 -41 -6 6 -25 4 -53 -6 -40 -13 -45 -13 -62 2 -12 11 -28 15 -47 11 -16 -3
-33 -2 -38 2 -5 5 -31 14 -59 20 -80 19 -102 31 -115 62 -9 21 -19 29 -38 29
-14 0 -34 7 -44 17 -24 22 -25 88 0 102 25 15 29 14 54 -19z m-76 -555 c14
-14 31 -25 39 -25 18 0 105 -59 105 -71 0 -5 7 -9 15 -9 8 0 19 -9 24 -19 8
-15 7 -20 -6 -26 -14 -5 -15 -8 -4 -14 10 -6 9 -10 -4 -15 -9 -3 -13 -10 -10
-16 8 -13 -15 -13 -35 0 -9 6 -17 5 -22 -3 -5 -8 -16 -4 -35 15 -15 15 -40 31
-56 37 -15 6 -32 21 -37 33 -8 20 -9 21 -9 4 -1 -20 -1 -20 -15 0 -9 11 -11
23 -5 30 9 11 -39 54 -60 54 -15 0 -22 17 -8 17 48 4 67 9 67 20 0 21 29 15
56 -12z m1503 -1695 c4 0 7 -37 6 -82 0 -69 -3 -83 -17 -86 -10 -2 -25 12 -41
38 -16 28 -26 37 -30 27 -3 -8 3 -27 14 -43 31 -47 22 -58 -20 -22 -23 19 -35
35 -29 39 6 4 9 13 6 20 -10 25 -8 34 5 34 6 0 13 10 15 22 4 27 50 66 70 58
7 -3 17 -5 21 -5z m-4090 -602 c0 -99 -16 -134 -107 -236 l-34 -37 6 59 c6 58
17 88 57 171 17 36 63 95 74 95 2 0 4 -24 4 -52z m1861 -1333 l0 -265 -30 0
-30 0 0 265 0 265 30 0 30 0 0 -265z m-1662 230 c51 -16 52 -16 52 -55 0 -22
-3 -40 -6 -40 -3 0 -18 9 -34 20 -15 11 -51 25 -80 31 -91 20 -160 -16 -160
-82 0 -40 39 -65 131 -85 123 -26 169 -66 169 -145 0 -46 -34 -97 -85 -127
-35 -20 -51 -22 -125 -19 -58 2 -98 9 -125 22 -35 17 -40 25 -43 58 -2 20 -1
37 3 37 3 0 22 -11 43 -25 106 -70 262 -44 262 44 0 49 -27 69 -115 87 -44 9
-97 25 -117 35 -95 48 -90 186 9 238 47 25 147 28 221 6z m366 -119 c61 -25
66 -42 66 -218 l0 -158 -30 0 c-23 0 -30 5 -30 19 0 19 -2 19 -42 -4 -59 -34
-126 -34 -167 0 -55 47 -63 123 -17 174 30 33 74 50 155 57 77 7 86 18 56 61
-25 36 -106 39 -191 6 -10 -4 -14 4 -14 30 0 29 4 36 23 40 52 10 160 6 191
-7z m440 -16 c21 -19 37 -27 41 -20 12 20 84 50 119 50 47 0 79 -16 99 -50 14
-23 17 -56 17 -184 l0 -156 -30 0 -30 0 0 140 c0 136 -1 142 -25 165 -30 31
-58 31 -110 2 l-40 -23 -3 -142 -3 -142 -29 0 -29 0 -3 146 c-3 141 -4 146
-28 166 -29 24 -80 19 -120 -10 -24 -19 -25 -22 -28 -161 l-3 -141 -29 0 -30
0 0 190 0 190 30 0 c23 0 30 -5 30 -19 0 -19 2 -19 43 4 61 36 117 34 161 -5z
m656 -8 c96 -96 73 -288 -42 -348 -31 -16 -105 -18 -142 -4 l-26 10 0 -75 0
-75 -35 0 -35 0 0 260 0 260 35 0 c29 0 35 -4 35 -22 0 -20 1 -20 18 -5 26 24
62 36 111 36 37 1 49 -4 81 -37z m550 15 c44 -29 66 -69 74 -134 l7 -53 -141
0 -140 0 0 -29 c0 -17 11 -42 25 -60 47 -55 129 -64 203 -20 18 10 35 19 38
19 2 0 4 -15 4 -34 0 -32 -3 -35 -47 -50 -54 -18 -139 -21 -180 -5 -145 55
-151 313 -8 375 49 22 127 18 165 -9z m6106 -673 c36 14 56 -22 35 -62 -5 -9
-12 -25 -15 -34 -4 -13 -16 -18 -40 -18 -40 0 -44 -4 -51 -56 -23 -161 -39
-253 -60 -339 -25 -106 -35 -156 -61 -325 -8 -58 -24 -140 -35 -184 -10 -43
-19 -93 -19 -110 0 -51 -11 -76 -31 -76 -11 0 -19 5 -19 12 0 7 18 100 40 208
21 107 48 245 59 305 118 669 119 672 158 694 14 7 19 6 21 -5 2 -9 10 -13 18
-10z m-9096 -242 c0 -14 -164 -174 -205 -200 -22 -13 -89 -73 -149 -133 -60
-60 -112 -109 -117 -109 -22 0 6 86 39 124 26 29 252 208 297 236 22 13 58 39
79 57 39 33 56 40 56 25z m7760 -145 c5 -28 11 -61 14 -73 6 -28 46 -113 67
-145 10 -14 27 -57 37 -95 48 -174 56 -195 68 -190 6 2 45 -4 85 -14 86 -22
135 -64 125 -106 -8 -31 16 -32 37 -1 16 22 16 22 16 1 1 -11 -10 -31 -24 -44
-14 -13 -25 -31 -25 -40 0 -10 -18 -30 -40 -45 -44 -30 -47 -37 -26 -54 11 -9
9 -17 -15 -42 -16 -17 -26 -35 -23 -40 3 -5 -2 -12 -10 -15 -9 -3 -13 -11 -9
-17 3 -6 1 -7 -6 -3 -9 6 -9 11 1 24 11 13 11 14 -2 10 -8 -2 -17 -15 -20 -29
-4 -17 -13 -24 -30 -24 -17 0 -24 5 -22 15 2 13 1 13 -10 0 -7 -8 -26 -14 -43
-14 -16 1 -37 -4 -45 -11 -18 -14 -52 -29 -62 -27 -5 1 -8 -3 -8 -8 0 -6 -8
-10 -17 -10 -10 0 -33 -9 -51 -20 -18 -11 -42 -22 -53 -23 -10 -2 -25 -9 -31
-15 -7 -7 -16 -12 -21 -12 -5 0 -31 -16 -57 -35 -26 -19 -51 -35 -54 -35 -4 0
-19 -8 -33 -17 -30 -20 -78 -29 -68 -13 3 5 11 10 16 10 12 0 39 25 39 35 0 4
-12 5 -27 2 -26 -5 -26 -4 -8 9 10 8 26 14 34 14 9 0 79 31 156 69 77 38 163
78 190 89 49 18 63 37 51 68 -5 13 -17 10 -69 -19 -34 -19 -118 -63 -187 -97
-69 -35 -147 -77 -174 -94 -27 -17 -54 -29 -60 -27 -19 7 -67 1 -90 -11 -11
-6 -30 -13 -41 -14 -11 -2 -45 -7 -75 -13 -195 -32 -341 -54 -380 -57 -94 -6
-184 -29 -175 -44 7 -12 -42 -22 -117 -25 -48 -1 -69 2 -72 12 -3 7 0 13 7 13
37 1 -28 18 -85 23 -50 3 -70 1 -79 -9 -15 -18 -49 -18 -49 -1 0 11 -27 14
-117 15 -100 1 -123 -2 -151 -18 -36 -22 -67 -26 -77 -10 -3 6 -15 10 -25 10
-11 0 -35 11 -54 23 -24 17 -55 26 -102 30 -49 5 -74 12 -88 27 -16 15 -18 22
-8 32 9 9 24 9 70 -1 120 -26 131 -26 141 2 11 30 42 60 90 88 l34 20 -16 -24
c-15 -23 -15 -26 1 -40 11 -9 29 -13 49 -10 28 5 32 3 31 -18 -1 -13 -5 -29
-9 -34 -4 -6 -5 -16 -1 -22 10 -16 62 -28 62 -14 0 14 51 61 67 61 6 0 15 -9
18 -21 5 -16 12 -19 35 -14 33 7 48 -9 29 -31 -20 -25 281 -16 330 8 19 10 40
18 48 18 8 0 21 6 29 14 16 16 19 40 4 31 -5 -3 -10 1 -10 9 0 19 -40 42 -49
29 -10 -16 -48 -33 -71 -33 -15 0 -22 -8 -26 -30 -4 -16 -11 -30 -16 -30 -5 0
-7 4 -3 9 3 5 -2 16 -11 25 -14 15 -13 17 11 26 14 5 30 10 35 10 5 0 14 9 20
19 5 11 22 21 37 23 22 2 28 8 26 26 -2 16 4 25 23 32 33 13 34 13 34 -6 0
-12 9 -15 46 -11 25 2 49 8 52 14 7 11 62 13 62 3 -1 -16 -19 -30 -32 -25 -9
4 -19 2 -22 -3 -10 -17 5 -42 24 -42 11 0 22 -4 25 -10 6 -10 -14 -15 -50 -11
-29 3 -64 -19 -58 -35 3 -9 -2 -14 -16 -14 -14 0 -21 -6 -21 -19 0 -11 -6 -21
-12 -24 -26 -9 -2 -14 37 -8 30 4 41 11 43 26 6 37 25 43 20 7 l-5 -34 56 6
c31 3 66 6 79 7 12 1 22 5 22 9 0 5 18 6 39 3 52 -7 91 3 91 23 0 13 3 14 15
4 23 -19 131 -3 288 42 69 19 82 32 47 43 -21 7 -28 25 -10 25 6 0 10 7 10 16
0 12 -5 14 -17 8 -19 -8 -90 -7 -105 2 -16 10 -8 24 15 25 114 4 172 -9 174
-41 1 -11 -8 -27 -20 -36 -22 -16 -22 -16 8 -9 16 4 63 22 102 42 69 33 96 59
98 93 0 8 7 15 15 15 8 1 26 8 40 17 30 20 100 39 153 42 35 2 79 26 48 26 -7
0 -11 6 -8 14 6 15 -7 14 -85 -11 -27 -8 -48 -19 -48 -24 0 -5 -11 -9 -25 -9
-29 0 -95 -30 -95 -43 0 -4 -7 -15 -15 -23 -31 -32 -13 6 25 52 34 42 40 56
40 96 0 26 5 50 10 53 6 3 10 -4 10 -17 0 -56 9 -66 53 -61 46 4 114 21 137
33 9 4 20 1 27 -9 18 -23 16 -2 -7 69 -11 34 -20 72 -20 84 0 12 -5 27 -10 32
-6 6 -12 26 -14 45 -2 19 -11 49 -19 66 -9 17 -18 46 -21 64 -2 19 -9 51 -15
71 -7 20 -13 56 -15 80 -5 53 -14 96 -28 124 -5 11 -8 27 -7 35 1 8 -3 32 -9
54 -17 58 -15 86 10 112 27 29 35 19 48 -60z m-84 -352 c53 -36 81 -70 89
-105 l7 -32 -76 6 c-87 6 -124 19 -87 31 17 5 20 10 11 20 -8 9 -8 15 0 20 5
3 10 24 10 46 0 21 2 39 5 39 2 0 21 -11 41 -25z m-6944 -12 c-5 -10 -12 -37
-15 -59 -2 -23 -17 -59 -31 -80 -14 -21 -26 -46 -26 -55 0 -9 -22 -42 -50 -73
-27 -31 -54 -66 -60 -76 -12 -22 -79 -60 -105 -60 -9 0 -26 5 -37 11 -20 11
-19 12 15 47 19 21 50 64 68 97 l33 60 -79 -83 c-90 -93 -142 -131 -151 -107
-3 7 -20 17 -37 21 l-31 6 26 22 c14 11 63 41 108 66 45 25 105 64 133 87 53
45 66 49 48 15 -6 -12 -11 -27 -11 -34 0 -17 89 83 90 100 0 7 23 36 51 63 52
50 77 64 61 32z m11477 -446 c9 -8 36 -19 61 -27 41 -11 43 -13 22 -21 -21 -8
-23 -15 -21 -59 2 -27 0 -52 -3 -55 -9 -9 -91 15 -110 32 -13 12 -14 20 -6 44
10 29 9 44 -7 82 -6 14 -2 17 21 17 15 0 35 -6 43 -13z m898 -89 c3 6 9 12 15
12 6 0 7 -8 4 -17 -8 -19 9 -33 42 -33 21 0 22 -4 22 -70 l0 -70 -30 0 c-23 0
-30 -5 -30 -19 0 -24 -30 -35 -70 -26 -19 4 -28 11 -23 18 12 20 12 157 -1
157 -6 1 0 7 14 15 14 8 19 14 11 15 -11 0 -11 3 -1 15 10 12 15 13 28 3 12
-10 16 -10 19 0z m-6484 -35 c-13 -8 -23 -22 -23 -29 0 -9 -11 -14 -29 -14
-16 0 -31 -5 -33 -10 -2 -6 -18 -13 -37 -15 -18 -2 -47 -13 -65 -23 -31 -18
-66 -19 -66 -1 0 5 6 9 14 9 8 0 18 5 21 10 10 16 -22 12 -39 -5 -13 -13 -15
-13 -21 5 -5 16 -10 18 -26 9 -27 -14 -77 -15 -91 -1 -8 8 -6 11 8 11 36 1 89
14 111 28 12 8 28 13 35 10 8 -4 6 -6 -4 -6 -10 -1 -18 -8 -18 -16 0 -18 23
-19 70 -1 20 7 47 9 62 5 28 -7 69 8 76 29 5 15 -49 17 -64 2 -6 -6 -19 -7
-29 -4 -18 7 -18 8 1 15 10 4 53 8 94 8 71 0 74 -1 53 -16z m5584 -53 c14 -11
32 -20 41 -20 8 0 29 -9 47 -20 19 -11 37 -20 42 -18 12 3 83 -25 83 -33 0 -8
-70 -24 -85 -19 -5 2 -48 7 -95 12 -81 8 -130 27 -130 48 0 6 16 8 40 4 48 -8
51 0 10 21 -36 18 -38 32 -7 38 12 2 24 5 25 6 2 0 15 -8 29 -19z"/>
<path d="M3395 2289 c-86 -14 -117 -45 -100 -99 14 -43 95 -49 158 -12 24 15
27 22 27 69 0 59 4 57 -85 42z"/>
<path d="M4403 2410 l-43 -19 0 -115 0 -115 43 -12 c93 -25 157 30 157 137 0
69 -17 112 -51 129 -37 19 -55 19 -106 -5z"/>
<path d="M4983 2425 c-31 -13 -63 -59 -63 -90 0 -13 17 -15 105 -15 114 0 114
0 94 59 -11 32 -53 61 -86 61 -10 -1 -32 -7 -50 -15z"/>
<path d="M11756 10758 c-8 -65 -2 -745 7 -754 4 -4 22 7 41 25 39 38 99 51
145 31 23 -9 32 -21 40 -57 7 -25 9 -55 5 -66 -6 -19 -10 -14 -24 28 -16 49
-17 50 -61 53 -40 3 -49 -1 -82 -33 -34 -33 -37 -41 -37 -89 0 -93 17 -143 34
-100 4 9 1 23 -5 31 -7 7 -9 16 -5 20 10 10 16 -2 23 -40 5 -33 3 -37 -21 -43
-19 -4 -26 -13 -26 -29 0 -13 -5 -27 -10 -30 -6 -4 -10 -56 -8 -136 2 -122 3
-129 21 -123 13 4 17 2 13 -5 -4 -6 -14 -11 -22 -11 -15 0 -17 -18 -16 -130 0
-36 1 -155 1 -265 l1 -200 43 -23 c23 -12 54 -22 69 -22 37 0 78 -20 78 -38 0
-11 -8 -13 -35 -8 -22 4 -35 3 -35 -4 0 -5 -11 -10 -24 -10 -14 0 -28 -5 -31
-10 -3 -6 -17 -7 -31 -4 l-24 6 -1 -143 c0 -79 0 -164 1 -189 3 -48 2 -110 -2
-282 -2 -60 1 -108 6 -108 4 0 5 -10 1 -22 -8 -29 -8 -29 -1 -118 4 -41 9
-102 11 -135 2 -33 4 -62 4 -64 1 -1 17 11 37 28 29 26 39 30 50 20 18 -15
102 7 125 33 9 10 20 18 25 18 18 0 -92 -100 -111 -100 -11 -1 -47 -16 -80
-34 l-60 -33 1 -284 c4 -831 17 -1845 24 -1865 10 -24 29 -30 130 -38 30 -3
87 -8 125 -11 93 -9 1235 -21 2180 -23 418 -1 1289 -6 1935 -12 1067 -8 1507
-12 2648 -24 l372 -4 0 23 c0 21 -4 22 -77 23 -43 1 -81 1 -85 2 -4 0 -10 16
-14 36 -8 45 8 63 26 29 12 -23 14 -23 26 -7 10 14 15 15 25 5 7 -7 22 -13 34
-13 12 0 25 -4 31 -10 5 -5 15 -6 22 -1 9 5 12 31 10 89 l-3 82 -29 -15 c-15
-8 -36 -15 -46 -15 -9 0 -34 -11 -54 -25 l-36 -24 16 23 c15 24 78 59 128 72
23 5 26 11 26 46 0 39 0 40 -22 26 -13 -8 -46 -23 -75 -32 -45 -15 -55 -15
-85 -3 -75 31 -122 143 -116 276 3 83 5 92 39 142 20 30 44 78 54 106 26 81
116 143 182 127 l23 -6 0 2256 0 2255 -779 1 c-681 0 -780 -2 -791 -15 -7 -8
-9 -15 -5 -15 4 0 2 -7 -5 -15 -6 -8 -9 -18 -6 -23 3 -5 -4 -19 -15 -31 -18
-19 -23 -20 -37 -9 -13 11 -15 10 -9 -5 11 -28 -61 30 -79 64 -8 16 -23 33
-33 39 -19 10 -491 15 -491 6 0 -3 5 -17 10 -32 6 -14 12 -43 14 -63 4 -47 26
-130 37 -136 4 -3 6 -12 3 -20 -3 -8 3 -29 14 -47 11 -18 18 -38 15 -45 -5
-13 24 -73 35 -73 4 0 8 -11 8 -25 1 -14 14 -37 28 -52 14 -14 26 -34 26 -44
0 -24 31 -91 49 -105 9 -7 12 -20 7 -37 -3 -15 -3 -27 1 -27 5 0 17 -20 28
-45 11 -25 22 -45 25 -45 13 0 32 -65 27 -95 -5 -32 13 -83 35 -96 5 -4 10
-24 10 -45 0 -22 4 -44 9 -50 16 -20 38 -93 29 -99 -5 -3 -11 -1 -14 4 -3 5
-16 7 -28 3 -17 -4 -20 -2 -15 11 4 10 2 17 -2 17 -5 0 -11 -5 -13 -12 -3 -8
-7 -6 -11 5 -4 10 -2 16 5 14 6 -1 13 5 16 13 2 8 2 12 -2 9 -18 -17 -100 91
-92 119 4 12 -11 39 -43 79 -27 34 -48 63 -46 65 2 2 -7 17 -20 32 -14 16 -25
37 -25 46 0 10 -7 23 -15 30 -8 7 -20 30 -27 51 -6 22 -15 39 -21 39 -5 0 -7
7 -3 15 3 8 1 15 -4 15 -6 0 -10 7 -10 15 0 8 -4 15 -8 15 -5 0 -13 16 -19 35
-9 29 -9 35 3 35 8 0 14 5 14 11 0 6 -6 9 -14 6 -9 -3 -21 4 -30 19 -9 13 -14
24 -11 24 4 0 -1 10 -9 22 -9 12 -16 29 -16 37 0 16 -35 139 -51 179 -6 16 -6
21 2 16 8 -4 8 -1 2 12 -6 11 -7 30 -3 44 4 14 4 32 0 40 -12 23 -9 104 4 112
6 4 -1137 8 -2541 8 l-2552 0 -5 -42z m4030 12 c6 -6 21 -13 34 -15 39 -8 44
-21 22 -57 -41 -66 -98 -102 -121 -75 -9 11 -8 17 4 27 9 8 12 17 7 24 -15 18
-23 76 -11 76 6 0 7 5 3 12 -4 6 -3 8 4 4 6 -3 13 -2 17 4 8 13 28 13 41 0z
m607 -407 c-9 -37 -22 -72 -30 -78 -14 -10 -45 -100 -37 -108 2 -2 -2 -10 -11
-17 -8 -7 -15 -18 -15 -24 -1 -17 -58 -76 -74 -76 -20 0 -30 18 -17 33 5 7 13
28 16 47 3 19 13 41 23 48 9 7 16 18 14 24 -5 17 57 148 69 148 4 0 9 13 12
28 5 26 42 55 59 46 3 -2 -1 -34 -9 -71z m1427 -10 c22 -20 40 -41 40 -46 0
-5 9 -21 19 -36 32 -45 44 -107 31 -162 -12 -51 -30 -56 -58 -17 -7 10 -20 18
-28 18 -9 0 -14 6 -11 13 2 6 -9 22 -26 34 -29 22 -62 72 -52 81 2 3 -2 10
-11 16 -20 15 -29 117 -11 128 28 18 67 7 107 -29z m610 -27 c0 -8 -6 -16 -13
-19 -8 -3 -14 -19 -15 -35 0 -17 -12 -49 -26 -71 -14 -22 -26 -45 -26 -50 0
-5 -11 -16 -25 -25 -14 -9 -25 -25 -25 -36 0 -10 -12 -28 -27 -39 -16 -11 -40
-33 -54 -47 -32 -32 -59 -27 -59 11 0 24 92 167 125 195 8 7 15 18 15 24 0 14
63 67 94 79 17 7 18 10 6 17 -12 8 -10 10 8 10 12 0 22 -6 22 -14z m-6152 -82
c69 -6 74 -8 106 -46 21 -25 32 -46 29 -56 -4 -10 -2 -13 5 -8 8 5 12 -3 11
-26 0 -30 -1 -31 -9 -10 -5 12 -14 22 -20 22 -6 0 -15 11 -20 25 -14 38 -97
63 -97 30 0 -9 7 -13 16 -10 9 2 22 1 29 -4 9 -6 0 -12 -30 -19 -45 -12 -68
-39 -68 -82 0 -27 -42 -17 -79 19 -22 22 -27 31 -18 40 9 9 8 15 -6 22 -12 7
-16 17 -12 30 5 14 2 19 -14 19 -30 0 -74 -21 -93 -44 -17 -20 -17 -19 -1 21
21 56 96 97 158 88 22 -3 73 -8 113 -11z m294 -294 c14 -11 33 -35 41 -53 16
-34 36 -177 44 -319 4 -72 3 -78 -24 -108 -41 -45 -104 -52 -152 -16 -39 29
-35 34 9 11 33 -17 74 -12 103 13 24 21 21 29 -15 36 -17 3 -28 9 -25 12 3 4
2 15 -3 25 -6 10 -11 31 -11 46 -1 15 -8 50 -16 77 -11 35 -13 54 -5 71 15 33
25 110 17 134 -5 16 -15 21 -38 21 -48 0 -70 -21 -101 -93 -29 -70 -64 -99
-94 -81 -24 16 -29 39 -5 26 35 -19 62 6 88 83 41 118 121 168 187 115z m3720
-429 c12 -20 22 -38 23 -41 0 -3 19 -33 43 -68 23 -35 42 -71 42 -80 0 -10 11
-37 24 -62 22 -43 42 -106 38 -122 -1 -5 3 -8 9 -8 6 0 9 -7 6 -15 -4 -8 -2
-17 3 -20 6 -4 10 -12 10 -18 0 -14 -39 33 -40 48 0 14 -78 89 -107 104 -35
18 -155 293 -139 319 3 5 19 7 35 4 22 -3 37 -15 53 -41z m-3491 -191 c14 -10
44 -23 66 -29 57 -16 103 -71 103 -125 0 -34 -27 -24 -35 14 -6 28 -45 73 -45
52 0 -6 5 -14 10 -17 7 -4 7 -13 0 -26 -6 -10 -8 -19 -4 -19 4 0 -1 -8 -10
-19 -12 -14 -31 -19 -74 -19 -70 -1 -87 8 -112 58 -26 51 -25 74 3 93 l22 16
-22 0 c-34 1 -73 -63 -74 -119 0 -34 -2 -40 -9 -25 -28 64 10 161 70 182 41
13 75 8 111 -17z m-279 -47 c50 -47 60 -79 67 -199 3 -62 10 -116 14 -120 4
-5 16 -3 25 3 18 11 20 32 8 98 l-6 40 15 -45 c19 -59 19 -80 -4 -109 -17 -23
-19 -23 -44 -6 -26 16 -27 22 -27 99 0 95 -11 140 -42 173 -20 21 -86 35 -74
14 6 -8 -10 -120 -18 -128 -2 -3 -16 3 -31 13 -21 14 -39 16 -95 10 -39 -3
-70 -3 -70 2 0 17 32 52 67 73 21 12 54 37 74 56 30 29 70 49 102 52 5 1 22
-11 39 -26z m527 -249 c18 -23 20 -36 16 -130 -2 -57 -9 -113 -15 -123 -15
-29 -65 -61 -92 -60 -19 0 -17 2 11 12 48 17 49 32 6 72 -32 28 -39 42 -43 83
-3 34 0 53 10 63 8 8 13 20 10 27 -6 18 27 27 49 14 15 -10 17 -9 13 3 -8 20
-39 28 -84 20 -35 -6 -39 -5 -34 10 9 22 39 34 91 34 33 1 46 -4 62 -25z
m-672 -160 c28 -32 64 -63 80 -70 l28 -12 -27 -1 c-19 -1 -41 13 -78 49 -38
37 -62 52 -91 56 -49 8 -77 -9 -54 -33 8 -8 15 -21 15 -29 0 -8 5 -14 10 -14
6 0 10 -6 10 -14 0 -7 10 -26 21 -40 24 -31 34 -108 18 -138 -7 -13 -7 -23 1
-33 6 -7 8 -25 4 -39 -6 -24 -3 -26 23 -26 37 0 74 39 97 102 10 26 26 58 37
70 l20 23 -17 -40 c-9 -22 -23 -59 -31 -81 -8 -23 -30 -61 -50 -84 -33 -38
-40 -42 -73 -37 -78 10 -89 26 -145 209 -30 98 -28 159 8 204 26 34 54 45 102
40 34 -4 48 -13 92 -62z m610 -195 c31 -26 45 -71 41 -130 -4 -57 -5 -59 -76
-127 -77 -74 -116 -91 -165 -73 -27 11 -50 40 -62 80 -6 21 -4 20 24 -10 17
-19 31 -28 31 -21 0 6 6 12 14 12 21 0 30 18 17 33 -7 10 -4 23 11 48 12 18
22 39 23 44 0 6 6 9 13 8 6 -2 32 -5 56 -8 43 -5 44 -5 41 22 -1 16 -6 36 -10
46 -6 14 -4 16 11 11 11 -4 27 -16 37 -28 19 -21 19 -21 12 9 -11 50 -32 74
-77 85 -66 17 -68 21 -9 15 29 -2 60 -10 68 -16z m4434 -94 c20 -10 44 -30 53
-46 20 -35 46 -116 38 -123 -3 -3 -6 -37 -7 -76 -1 -50 -6 -76 -18 -90 -9 -11
-17 -24 -17 -29 0 -5 -6 -14 -14 -20 -8 -7 -17 -24 -21 -39 -8 -31 -65 -122
-77 -122 -4 0 -8 9 -8 21 0 36 -19 60 -38 50 -15 -8 -18 -5 -20 17 -1 15 -13
37 -27 50 -29 26 -35 91 -10 115 12 13 12 15 -5 20 -10 2 -23 0 -29 -6 -12
-12 -25 12 -19 39 3 16 4 16 20 1 15 -16 17 -16 20 1 2 9 -3 27 -11 40 -18 29
-27 173 -12 201 10 17 19 19 88 16 47 -2 92 -10 114 -20z m-2821 -45 c18 0 50
-39 50 -60 0 -14 -25 -40 -39 -40 -6 0 -11 -4 -11 -10 0 -5 -7 -10 -15 -10 -8
0 -19 -9 -25 -21 -10 -19 -10 -20 9 -10 29 16 43 13 39 -6 -6 -31 -77 -18
-116 21 -30 30 -32 35 -21 54 18 29 53 44 68 29 10 -9 10 -5 2 16 -10 25 -9
29 9 34 11 3 20 10 21 17 0 7 2 6 6 -1 2 -7 13 -13 23 -13z m-2170 -41 c-45
-57 -49 -77 -20 -110 13 -16 18 -18 14 -7 -5 15 -1 17 30 13 19 -3 38 0 41 5
12 20 39 9 76 -31 21 -23 35 -47 32 -55 -8 -20 30 -18 56 4 15 12 21 30 23 65
2 59 15 61 23 3 9 -58 -9 -96 -57 -119 -34 -17 -41 -17 -100 -3 -35 9 -75 18
-89 21 -37 7 -77 51 -90 98 -9 33 -8 46 8 75 14 27 78 92 91 92 1 0 -16 -23
-38 -51z m-286 -17 c34 -32 46 -69 46 -149 1 -51 7 -97 20 -133 34 -96 21
-151 -16 -67 -21 50 -49 89 -57 81 -8 -8 -27 64 -27 102 0 16 7 39 15 50 34
45 -1 107 -69 119 -43 8 -47 22 -8 27 33 4 70 -8 96 -30z m5546 -208 c0 -9 -5
-13 -12 -9 -7 4 -5 0 6 -9 10 -8 15 -19 11 -25 -3 -6 -2 -11 4 -11 7 0 7 -8 2
-22 -9 -25 -7 -100 3 -117 4 -5 4 -22 0 -35 -5 -21 -11 -25 -29 -20 -20 5 -23
3 -18 -16 6 -22 6 -22 -21 -5 -14 9 -26 24 -26 31 0 16 16 19 22 5 2 -5 9 -3
16 5 11 12 9 14 -8 14 -11 0 -20 5 -20 11 0 8 -5 7 -15 -1 -20 -16 -28 -8 -28
27 1 88 27 159 64 172 16 5 29 15 29 21 0 6 5 8 10 5 6 -3 10 -13 10 -21z
m-1695 -124 c20 -5 47 -18 60 -30 23 -22 39 -70 24 -70 -5 0 -9 6 -9 13 0 25
-45 55 -91 62 -37 5 -52 3 -80 -14 -43 -26 -64 -26 -90 0 -18 18 -29 21 -75
16 -30 -3 -54 -4 -54 -1 0 2 15 14 33 25 29 18 42 20 138 14 59 -4 123 -10
144 -15z m-497 -76 c12 -8 20 -20 17 -25 -8 -11 -52 -12 -57 -1 -1 5 -18 5
-36 0 -19 -5 -30 -13 -26 -19 3 -6 -3 -24 -15 -40 -25 -34 -29 -58 -6 -39 9 8
15 8 15 2 0 -6 2 -17 5 -24 3 -8 -6 -27 -20 -44 -14 -16 -25 -32 -25 -35 0
-16 -53 -19 -70 -4 -16 14 -19 13 -45 -20 -27 -37 -29 -59 -10 -125 7 -23 6
-24 -9 -9 -22 20 -30 76 -21 135 5 38 15 55 54 93 26 25 62 66 81 90 32 41 95
80 130 81 9 0 26 -7 38 -16z m1460 -809 c13 -14 27 -23 32 -20 6 3 10 -4 9
-17 0 -13 1 -52 4 -87 4 -58 2 -67 -20 -87 -17 -16 -20 -24 -11 -27 10 -4 10
-8 -2 -16 -23 -16 -33 -13 -27 9 3 11 1 22 -4 25 -4 3 -6 12 -3 20 4 8 10 12
15 9 11 -6 0 23 -18 53 -8 12 -13 27 -12 35 4 24 -12 66 -28 72 -12 5 -11 10
9 31 29 31 29 31 56 0z m-1476 -25 c26 -8 43 -22 59 -48 13 -20 29 -43 36 -50
7 -7 13 -21 13 -30 -1 -11 -6 -8 -16 11 -14 27 -34 37 -34 17 0 -16 -22 -11
-45 10 l-21 20 -47 -64 c-25 -35 -54 -69 -63 -77 -16 -13 -17 -11 -12 22 5 29
23 78 46 122 2 4 -2 7 -10 7 -7 0 -32 -26 -56 -58 -23 -31 -53 -70 -67 -87
-24 -29 -25 -29 -25 -7 0 33 25 88 61 133 34 43 33 52 -6 52 -29 0 -30 1 -9
21 18 19 137 22 196 6z m1173 -30 c-7 -12 -11 -58 -20 -222 -4 -93 -8 -111
-32 -147 -25 -39 -27 -40 -43 -23 -23 24 -30 48 -18 60 7 7 6 17 -3 33 -7 13
-14 44 -14 69 -1 25 -5 53 -9 62 -7 16 -10 16 -31 2 -13 -8 -28 -28 -33 -43
-9 -26 -8 -28 9 -24 10 3 19 1 19 -3 -1 -14 -33 -50 -62 -69 -18 -11 -25 -22
-21 -32 5 -12 3 -14 -8 -7 -8 5 -18 9 -23 9 -5 0 -11 16 -14 35 -2 19 -6 37
-8 40 -7 7 -53 -54 -47 -63 7 -12 -21 -67 -34 -67 -16 0 -17 -12 -2 -27 8 -8
5 -14 -11 -23 -27 -15 -33 -9 -21 21 15 38 24 63 27 76 11 56 66 167 79 161 4
-2 17 17 29 41 13 28 40 58 72 82 49 36 51 36 46 13 -3 -17 0 -24 12 -24 9 0
16 7 16 15 0 7 8 19 18 24 9 6 13 11 7 11 -5 0 1 7 15 15 29 17 115 20 105 5z
m1468 -330 c55 -20 101 -44 122 -65 30 -28 35 -39 35 -79 0 -55 -20 -106 -54
-141 -14 -14 -30 -33 -35 -42 -8 -14 -10 -15 -11 -3 0 8 12 35 26 60 23 39 25
53 21 105 -5 49 -10 63 -32 81 -30 24 -87 35 -179 33 -55 -1 -58 -2 -33 -12
23 -9 27 -15 22 -37 -9 -37 -27 -51 -73 -57 -38 -5 -40 -4 -47 26 -3 17 -10
30 -13 30 -21 -3 -31 3 -26 16 9 23 -51 19 -97 -7 -64 -36 -84 -111 -53 -202
26 -75 -3 -77 -37 -2 -51 113 11 251 123 273 18 3 60 19 93 35 74 36 121 34
248 -12z m880 -111 c-2 -5 4 -29 13 -55 12 -35 13 -53 5 -76 -6 -17 -8 -34 -5
-39 3 -5 -1 -9 -9 -9 -13 0 -31 33 -28 53 1 4 -6 7 -14 7 -14 0 -20 12 -16 33
1 4 -10 29 -24 55 -27 51 -32 88 -13 94 15 5 94 -50 91 -63z m-542 -120 c36
-13 42 -16 142 -97 41 -33 73 -69 86 -95 24 -50 47 -221 36 -263 -8 -28 -9
-26 -21 25 -7 30 -11 58 -8 62 2 4 -3 12 -11 19 -13 10 -15 9 -15 -9 0 -12 -6
-21 -16 -21 -12 0 -14 7 -9 29 5 24 2 30 -14 36 -12 3 -21 13 -21 20 0 8 -13
22 -29 31 -21 12 -31 27 -35 55 -3 20 -16 50 -29 66 -12 15 -32 47 -42 70 -19
41 -53 64 -110 76 -11 3 -2 5 21 6 23 0 56 -4 75 -10z m-887 -78 c29 -11 66
-42 66 -54 0 -5 -12 1 -27 13 -22 17 -35 20 -68 14 -74 -12 -116 -45 -153
-119 -33 -68 -36 -85 -14 -85 46 0 66 -72 49 -182 -5 -34 -43 -86 -59 -80 -16
5 -7 -84 10 -110 38 -58 79 -78 177 -87 l70 -7 -36 -18 c-46 -24 -105 -16
-173 22 -79 44 -103 87 -131 241 -28 150 -25 186 22 253 15 22 37 56 49 74 65
106 145 152 218 125z m1111 -805 c-4 -61 -13 -124 -21 -141 -8 -16 -44 -63
-81 -103 -54 -58 -79 -77 -123 -92 -68 -25 -108 -25 -140 -2 l-25 17 68 6 c63
5 71 9 112 49 53 52 56 63 14 48 -33 -11 -49 -4 -31 14 7 7 12 36 12 65 0 31
4 53 11 53 5 0 7 5 4 10 -3 6 1 10 11 10 12 0 15 6 12 24 -4 17 -1 23 9 19 17
-7 43 14 43 35 0 8 -7 20 -16 27 -12 8 -15 20 -9 44 4 18 12 30 18 28 7 -3 11
-10 10 -16 -4 -16 14 -14 42 5 27 17 28 16 58 -66 5 -15 11 39 7 74 -1 12 3
16 10 11 9 -6 11 -37 5 -119z m-1085 -170 c0 -7 18 -31 41 -55 41 -42 77 -51
71 -18 -4 24 2 22 86 -20 48 -24 77 -45 83 -60 6 -15 17 -23 33 -23 13 0 29
-6 35 -14 14 -16 -19 -22 -139 -24 -73 -2 -76 -1 -134 41 -66 47 -96 94 -104
165 -5 43 -4 46 11 33 10 -7 17 -19 17 -25z"/>
<path d="M329 9593 c-10 -11 -14 -47 -15 -114 l-2 -98 39 -43 c48 -53 53 -86
10 -59 -35 22 -39 4 -34 -142 3 -78 4 -172 3 -208 -1 -72 11 -93 52 -87 19 2
24 10 26 41 2 26 8 37 19 37 12 0 14 7 9 31 -3 17 -6 39 -6 49 0 9 -10 28 -23
41 -44 45 -60 83 -53 123 4 20 13 39 21 42 20 8 66 94 63 118 -2 14 -11 20
-31 21 -36 1 -49 21 -42 65 12 72 25 86 53 58 17 -17 24 -6 29 46 8 64 -14 96
-66 96 -24 0 -44 -6 -52 -17z"/>
<path d="M2655 9348 c-12 -40 -11 -76 1 -100 8 -16 11 -28 7 -28 -4 0 -2 -5 5
-12 7 -7 12 -29 12 -49 0 -21 7 -42 15 -49 9 -7 15 -20 14 -29 -1 -9 -1 -25 0
-36 1 -17 3 -18 11 -5 5 8 10 76 10 151 0 119 -2 138 -18 152 -22 20 -51 22
-57 5z"/>
<path d="M1179 8597 c-33 -29 -52 -79 -44 -115 6 -29 -20 -102 -36 -102 -4 0
-13 -25 -19 -56 -9 -44 -20 -63 -47 -88 -43 -38 -68 -51 -110 -59 -26 -5 -33
-3 -33 9 0 20 -23 13 -26 -8 -1 -9 7 -19 18 -22 14 -3 19 -10 15 -20 -4 -9 -1
-16 6 -16 7 0 4 -7 -6 -14 -15 -12 -19 -31 -21 -105 -2 -50 -1 -93 2 -96 3 -2
18 7 34 20 33 28 44 30 85 14 18 -7 29 -7 31 0 2 7 12 7 29 0 32 -12 46 -3 33
21 -13 24 -6 133 9 138 6 2 11 10 11 18 0 18 14 18 29 0 9 -10 9 -15 1 -18 -7
-2 -3 -11 9 -22 20 -18 21 -18 27 0 12 32 36 54 60 54 33 0 54 -10 54 -26 0
-8 3 -14 8 -15 4 0 18 -2 31 -5 30 -5 55 14 41 31 -15 18 -6 58 16 66 17 6 17
8 -6 17 -14 5 -32 20 -40 33 -8 13 -35 45 -59 71 -39 43 -43 51 -33 73 6 13
23 31 37 41 32 21 32 52 0 64 -26 10 -55 57 -55 89 0 24 -10 51 -19 51 -3 0
-17 -10 -32 -23z"/>
<path d="M374 7793 c4 -32 7 -79 6 -105 0 -25 3 -49 8 -52 5 -3 7 -25 5 -50
-4 -37 -2 -46 16 -56 12 -6 21 -17 21 -25 0 -8 8 -18 17 -24 10 -5 15 -13 11
-17 -5 -4 -3 -13 3 -21 9 -10 8 -13 -4 -13 -9 0 -19 5 -22 10 -10 17 -22 11
-28 -12 -4 -13 0 -29 8 -38 11 -12 12 -19 3 -28 -8 -8 -8 -15 0 -25 7 -8 10
-16 8 -18 -3 -2 21 -2 51 0 31 1 65 -2 77 -7 40 -19 80 -21 92 -4 10 14 15 15
37 3 19 -10 29 -10 46 -1 20 10 21 17 15 58 -3 26 -8 50 -10 53 -2 4 -34 5
-71 4 -71 -3 -93 6 -93 35 0 9 -9 25 -20 35 -11 10 -20 27 -20 37 0 10 -18 35
-40 56 l-40 37 -3 103 c-4 110 -9 122 -56 122 -23 0 -23 -2 -17 -57z"/>
<path d="M1645 7840 c-3 -6 -10 -8 -14 -5 -5 2 -17 -18 -27 -47 -21 -58 -49
-83 -64 -57 -5 9 -18 27 -30 40 l-20 24 -20 -24 c-30 -35 -22 -55 23 -59 32
-3 40 -8 49 -33 17 -49 78 -69 78 -26 0 31 26 53 71 61 21 4 48 15 62 26 13
11 36 24 51 30 16 6 26 17 26 30 0 21 -24 28 -35 10 -10 -16 -43 -12 -73 9
-35 25 -69 34 -77 21z"/>
<path d="M708 7585 c-3 -3 -19 -7 -36 -10 -39 -4 -52 -12 -52 -31 0 -16 46
-19 70 -4 10 6 19 4 30 -6 8 -8 27 -24 43 -35 15 -11 27 -29 27 -40 0 -26 44
-43 73 -28 18 11 25 7 53 -25 36 -41 44 -44 44 -16 0 11 7 20 15 20 9 0 12 -6
9 -15 -4 -8 -2 -15 4 -15 14 0 24 29 17 50 -3 10 2 25 11 34 22 23 14 28 -23
14 -27 -10 -37 -9 -67 7 -28 15 -38 17 -48 7 -20 -20 -36 -14 -53 18 -12 23
-22 30 -45 30 -23 0 -33 6 -42 25 -11 25 -20 30 -30 20z"/>
<path d="M1629 7478 c-13 -18 -18 -19 -38 -8 -26 13 -23 3 7 -33 14 -16 13
-18 -16 -29 -43 -17 -42 -44 3 -62 42 -18 58 -13 115 37 41 35 42 37 18 37
-27 0 -38 16 -38 56 0 30 -29 32 -51 2z"/>
<path d="M1145 7421 c-3 -11 -21 -33 -40 -50 -41 -36 -42 -43 -12 -83 48 -64
80 -88 118 -88 20 0 54 -6 76 -14 39 -14 40 -14 65 18 41 51 52 76 38 90 -8 8
-19 3 -41 -21 -42 -48 -65 -44 -92 20 -19 42 -31 55 -60 66 -40 16 -47 34 -21
49 9 5 14 14 10 21 -11 17 -34 13 -41 -8z"/>
<path d="M1460 6791 c0 -6 -9 -11 -20 -11 -11 0 -20 -4 -20 -10 0 -5 7 -10 15
-10 8 0 15 -7 15 -15 0 -10 -10 -15 -30 -15 -29 0 -42 -21 -21 -35 16 -9 71
-95 71 -110 0 -7 15 -19 34 -25 26 -8 38 -20 46 -44 14 -44 47 -72 91 -80 31
-6 41 -2 68 23 35 33 35 48 0 126 -28 61 -25 72 21 80 22 4 40 11 40 16 0 16
-50 41 -72 36 -12 -4 -34 1 -50 11 -22 13 -30 14 -40 4 -19 -19 -48 -14 -68
11 -22 27 -80 62 -80 48z"/>
<path d="M2202 6413 c-48 -69 -69 -129 -77 -227 -3 -27 -16 -71 -30 -97 -28
-54 -30 -86 -10 -139 l13 -35 10 25 c5 14 13 41 17 60 4 19 23 68 41 109 19
40 34 83 34 95 0 11 11 56 23 99 22 74 25 137 7 137 -5 0 -17 -12 -28 -27z"/>
<path d="M1460 6390 c0 -21 20 -40 41 -40 21 0 33 -16 24 -30 -5 -8 -11 -7
-21 1 -11 9 -14 7 -14 -10 0 -14 9 -25 25 -31 14 -5 30 -21 37 -35 6 -14 17
-25 23 -25 20 0 24 36 9 66 -19 35 -18 44 7 71 34 36 12 52 -67 50 -50 -2 -64
-5 -64 -17z"/>
<path d="M19121 6229 c-29 -9 -31 -12 -17 -22 16 -11 15 -15 -8 -36 -21 -20
-27 -59 -6 -46 4 2 5 -16 2 -41 -3 -33 -1 -49 9 -54 11 -7 10 -12 -3 -27 -9
-10 -19 -34 -23 -53 -11 -50 -23 -70 -50 -80 -21 -8 -24 -15 -22 -49 1 -22 6
-43 10 -47 16 -16 7 -35 -13 -29 -26 8 -26 -9 1 -36 19 -19 30 -21 83 -16 33
3 73 10 89 16 l27 11 0 260 0 260 -22 -1 c-13 0 -38 -5 -57 -10z"/>
<path d="M457 5983 c-10 -9 -8 -55 2 -72 6 -8 3 -27 -6 -49 -12 -29 -13 -49
-5 -105 13 -85 26 -101 53 -68 37 45 18 301 -22 301 -8 0 -19 -3 -22 -7z"/>
<path d="M1133 4593 c-29 -4 -31 -7 -35 -51 -5 -59 12 -88 57 -96 43 -8 70
-47 54 -77 -9 -18 -8 -20 8 -17 13 2 19 14 21 41 2 24 10 40 23 47 10 6 19 19
19 30 0 10 7 26 16 34 23 24 6 41 -18 19 -20 -18 -21 -17 -62 30 -23 26 -44
46 -47 45 -2 0 -18 -3 -36 -5z"/>
<path d="M522 4307 c-14 -40 -15 -184 -2 -327 10 -114 24 -387 22 -435 -3 -50
20 -169 36 -187 11 -13 19 -15 40 -6 15 5 68 10 117 10 100 1 111 4 94 24 -13
16 -5 56 17 78 14 15 14 17 -3 23 -33 13 -74 57 -71 78 1 11 -3 30 -10 42 -7
12 -12 33 -12 48 0 14 -7 28 -15 31 -14 6 -22 34 -10 34 3 0 18 -11 33 -25 15
-14 30 -25 33 -25 4 0 10 17 14 37 6 33 3 40 -27 69 -30 28 -36 30 -53 18 -27
-20 -75 -18 -75 3 0 9 -3 14 -6 11 -3 -3 -17 -3 -31 1 l-26 7 -1 214 c-1 204
-2 217 -25 263 -13 26 -24 47 -25 47 -1 0 -7 -15 -14 -33z"/>
<path d="M18162 3951 c-23 -19 -20 -31 10 -31 23 0 23 -12 -1 -34 -11 -10 -18
-23 -15 -30 3 -7 -10 -17 -30 -24 -37 -14 -51 -44 -35 -74 11 -21 6 -48 -10
-48 -5 0 -12 8 -15 18 -3 9 -18 24 -33 33 -16 9 -54 33 -87 53 -77 48 -92 47
-107 -6 -18 -69 -19 -71 -26 -64 -10 9 -38 -37 -35 -56 2 -13 -3 -18 -18 -18
-19 0 -21 -4 -14 -45 5 -34 2 -51 -10 -71 -10 -14 -15 -31 -12 -37 3 -9 5 -9
5 1 1 6 5 12 10 12 4 0 13 -38 19 -85 10 -72 8 -101 -9 -207 -22 -130 -24
-156 -19 -254 1 -34 -2 -70 -8 -80 -10 -17 -11 -17 -12 -1 0 9 -5 17 -11 17
-8 0 -10 -43 -6 -152 5 -154 9 -174 74 -406 l18 -64 -25 -19 c-72 -56 -89 -73
-84 -81 4 -5 3 -40 -1 -76 -6 -57 -9 -63 -17 -42 -5 14 -12 20 -16 14 -8 -12
-43 -28 -55 -25 -5 1 -7 -4 -5 -11 3 -7 -1 -17 -9 -23 -9 -7 -13 -35 -14 -82
-1 -54 -5 -73 -15 -73 -7 0 -16 -18 -21 -42 -10 -50 -19 -54 -128 -43 l-71 6
-12 132 c-34 375 -44 567 -34 659 5 51 19 197 31 323 11 127 26 275 32 330 17
163 14 344 -6 383 -9 18 -14 39 -11 47 3 8 1 17 -4 20 -6 4 -11 -4 -12 -17 -1
-13 -2 -30 -3 -38 0 -8 -4 -20 -8 -27 -4 -6 -7 -24 -7 -40 1 -15 -2 -46 -5
-68 -3 -22 -8 -65 -11 -95 -2 -30 -9 -93 -14 -140 -5 -47 -12 -114 -16 -150
-3 -36 -8 -74 -11 -85 -3 -11 -7 -45 -10 -75 -2 -30 -8 -68 -13 -85 -8 -29 -9
-29 -15 -7 -4 12 -12 22 -17 22 -11 0 1 -43 13 -48 12 -5 11 -52 -1 -52 -5 0
-10 6 -10 14 0 8 -4 17 -9 20 -5 4 -7 -4 -3 -16 3 -13 1 -19 -5 -15 -6 4 -11
-8 -12 -26 -4 -57 -7 -76 -14 -83 -4 -4 -7 -16 -7 -26 0 -10 -4 -18 -8 -18 -5
0 -9 -7 -9 -15 0 -8 5 -15 11 -15 8 0 7 -3 0 -8 -6 -4 -14 -31 -18 -60 -9 -75
-17 -126 -22 -134 -11 -18 20 -17 58 2 23 11 45 20 50 20 11 0 -3 -31 -24 -52
-12 -12 -18 -34 -19 -65 0 -27 -2 -57 -5 -68 -2 -11 -6 -38 -9 -60 -2 -22 -7
-53 -11 -69 -5 -20 -4 -27 4 -22 11 7 7 -14 -7 -39 -3 -5 -4 -36 -2 -67 2 -37
-1 -58 -8 -58 -7 0 -7 -8 -1 -25 5 -14 6 -25 2 -25 -9 0 -9 -107 0 -116 4 -4
4 -14 0 -23 -4 -9 -7 -46 -7 -83 0 -38 -4 -68 -9 -68 -5 0 -3 -7 4 -15 6 -8 9
-18 6 -23 -3 -5 -6 -44 -7 -88 -1 -43 -7 -85 -12 -91 -6 -8 -6 -13 0 -13 5 0
8 -49 6 -117 -2 -65 -3 -125 -3 -133 -1 -8 -1 -62 -1 -120 0 -129 0 -130 -12
-130 -5 0 -4 -7 3 -15 9 -10 10 -30 6 -63 -4 -26 -6 -54 -6 -62 3 -76 2 -149
-3 -157 -4 -6 -3 -13 0 -17 9 -9 13 -36 5 -36 -4 0 -6 -15 -6 -32 1 -18 -3
-43 -7 -56 -5 -12 -5 -22 -1 -22 6 0 8 -68 2 -87 -1 -5 -2 -23 -2 -42 0 -18
-3 -44 -8 -57 -5 -13 -6 -26 -1 -28 7 -5 8 -24 2 -59 0 -5 -6 -5 -12 -1 -14 8
-1 -38 13 -47 7 -4 6 -9 0 -13 -6 -3 -10 -20 -10 -36 l1 -30 1074 0 1073 0 0
1185 c0 681 -4 1185 -9 1185 -5 0 -6 92 -3 213 4 179 2 230 -13 318 -11 57
-19 133 -20 169 0 36 -6 75 -13 87 -18 32 -14 63 12 107 19 30 22 44 16 67
-13 45 -46 93 -91 133 -67 61 -78 62 -166 13 -86 -48 -108 -72 -95 -108 11
-29 -5 -82 -23 -75 -17 6 -71 -28 -87 -56 -8 -14 -13 -62 -13 -123 -1 -55 -7
-120 -14 -144 -9 -35 -9 -71 3 -185 16 -142 29 -300 30 -346 1 -25 0 -25 -76
-25 -42 0 -80 3 -84 7 -4 5 -20 144 -35 310 -15 167 -33 355 -38 418 -30 318
-69 654 -80 684 -19 49 -144 135 -197 136 -12 0 -31 -8 -42 -19z m-149 -1652
c33 -18 54 -58 24 -46 -9 3 -18 -8 -26 -29 -7 -21 -19 -34 -29 -34 -10 0 -28
-7 -40 -16 -31 -22 -76 0 -80 39 -8 70 83 122 151 86z m200 -20 c12 -6 28 -19
35 -30 10 -16 9 -19 -4 -19 -16 0 -16 -2 3 -47 3 -7 0 -13 -7 -13 -7 0 -10 -8
-7 -20 6 -22 -21 -28 -40 -9 -8 8 -13 6 -17 -9 -9 -26 -44 -18 -48 12 -6 37
13 121 30 134 19 15 25 15 55 1z m281 -13 c45 -19 50 -30 32 -68 -9 -17 -16
-37 -16 -44 0 -7 -9 -19 -19 -26 -31 -22 -12 -40 28 -28 44 12 50 8 41 -37
-10 -58 -36 -90 -97 -119 -56 -28 -60 -33 -66 -71 -6 -44 -14 -33 -10 14 8
111 14 132 44 164 16 17 29 33 29 35 0 2 -16 6 -36 10 -44 8 -59 36 -50 97 7
43 24 68 56 80 23 8 28 8 64 -7z m265 -17 c17 -6 31 -18 31 -26 0 -9 6 -13 13
-10 14 5 16 2 20 -48 2 -27 -1 -30 -25 -30 -15 1 -26 -4 -25 -10 1 -5 -5 -10
-13 -10 -8 -1 -28 -13 -44 -28 -37 -34 -54 -34 -93 1 l-31 29 12 57 c9 44 17
61 36 71 30 17 76 19 119 4z"/>
<path d="M938 3579 c3 -19 0 -34 -8 -39 -16 -10 13 -73 45 -98 17 -14 22 -25
18 -45 -4 -22 -1 -27 21 -33 14 -3 38 -3 54 1 15 5 37 7 49 6 26 -3 43 30 43
82 l0 31 -35 -34 c-32 -31 -36 -33 -77 -24 -30 7 -42 14 -39 25 2 7 6 33 8 56
5 38 2 46 -27 73 -42 39 -58 39 -52 -1z"/>
<path d="M17688 3572 c-3 -11 -1 -25 5 -31 8 -8 2 -23 -20 -53 -47 -66 -63
-104 -63 -145 0 -33 7 -45 46 -82 25 -23 47 -41 49 -39 6 6 25 131 25 168 0
19 -7 48 -15 64 -10 18 -13 41 -9 66 7 43 -9 88 -18 52z"/>
<path d="M15670 3435 c0 -8 5 -15 10 -15 14 0 12 -37 -2 -43 -10 -4 -10 -7 0
-14 8 -6 12 -36 12 -89 0 -43 1 -99 2 -124 3 -40 0 -45 -22 -51 -21 -6 -22 -7
-5 -9 11 -1 14 -4 8 -7 -14 -5 -18 -33 -5 -33 5 0 8 -16 7 -35 -2 -30 1 -36
21 -41 29 -7 32 -34 4 -34 -30 0 -28 -57 3 -71 16 -7 23 -20 25 -50 2 -35 -1
-40 -25 -50 -20 -7 -24 -12 -14 -18 11 -7 9 -11 -5 -20 -18 -10 -18 -10 0 -11
11 0 16 -3 13 -7 -4 -3 -1 -13 6 -21 8 -11 8 -14 0 -9 -6 4 -14 3 -18 -3 -3
-5 1 -10 9 -10 9 0 16 -6 16 -14 0 -7 9 -16 20 -19 28 -7 25 -27 -4 -27 -20 0
-24 -4 -21 -25 1 -18 -1 -22 -9 -16 -7 6 -11 1 -12 -15 -2 -22 2 -25 24 -22
23 3 29 -2 39 -35 15 -44 10 -57 -17 -57 -31 0 -38 -61 -12 -92 6 -8 8 -18 4
-22 -14 -15 -7 -31 21 -45 15 -8 26 -18 25 -23 -2 -5 -7 -8 -12 -6 -12 5 -40
-53 -29 -61 6 -3 11 -13 11 -21 4 -41 16 -86 25 -91 18 -12 -4 -29 -36 -29
-29 0 -30 -1 -12 -14 17 -12 18 -16 5 -32 -9 -11 -10 -15 -2 -10 7 4 12 1 12
-8 0 -9 -8 -16 -17 -16 -15 0 -15 -2 -4 -9 8 -5 15 -23 15 -39 1 -17 -2 -28
-5 -26 -4 2 -13 -4 -20 -13 -13 -15 -11 -16 10 -10 18 4 21 3 12 -6 -17 -17
-14 -24 14 -31 36 -9 31 -26 -7 -26 -25 0 -29 -3 -18 -10 12 -8 11 -10 -8 -10
-28 0 -37 -21 -22 -49 7 -14 7 -21 0 -21 -16 0 -50 -39 -40 -45 6 -4 10 -2 10
4 0 6 13 2 30 -7 21 -12 30 -25 30 -43 0 -14 5 -30 11 -36 24 -24 -15 -42 -56
-27 -21 8 -48 62 -41 80 3 9 1 12 -4 9 -9 -6 -8 -34 4 -90 2 -11 9 -19 15 -17
6 1 10 -1 9 -5 -1 -5 6 -23 15 -40 12 -24 25 -33 42 -33 33 0 66 74 91 205 16
86 19 151 19 465 0 334 -7 611 -21 765 -18 214 -49 415 -64 415 -4 0 -7 14 -8
30 -1 17 -3 38 -3 48 -2 19 -27 52 -41 52 -4 0 -8 -7 -8 -15z"/>
<path d="M14625 2525 c11 -9 43 -23 71 -31 79 -23 310 -54 402 -54 l82 0 0 39
0 38 -207 7 c-115 3 -244 9 -288 12 -75 5 -79 4 -60 -11z"/>
<path d="M2005 1928 c-9 -40 -18 -82 -20 -93 -3 -11 -24 -54 -49 -95 -24 -41
-47 -86 -51 -100 -7 -22 -6 -23 9 -11 9 7 16 19 16 25 1 6 21 33 45 61 43 49
44 49 41 20 l-4 -30 25 30 c22 27 24 36 19 96 -4 48 -2 77 10 104 11 28 12 40
3 51 -20 24 -26 16 -44 -58z"/>
<path d="M14020 1913 c-6 -32 -24 -112 -40 -178 -41 -173 -54 -267 -47 -339
10 -110 72 -263 133 -334 38 -44 38 -44 54 93 16 146 48 334 77 460 30 134 53
261 53 296 0 27 0 27 -94 31 -55 2 -100 9 -109 16 -13 11 -17 5 -27 -45z"/>
<path d="M2459 1325 c-7 -16 -26 -45 -41 -63 -15 -18 -28 -39 -28 -46 0 -7
-26 -41 -57 -76 -32 -34 -62 -69 -66 -76 -4 -7 -51 -49 -105 -93 -138 -113
-142 -118 -142 -163 0 -49 22 -59 56 -25 16 16 20 27 13 29 -7 2 35 51 92 109
57 57 121 126 143 152 21 27 48 53 60 59 34 16 72 68 56 78 -10 6 -9 13 3 36
31 61 39 82 34 96 -3 8 -9 2 -18 -17z"/>
<path d="M945 1030 c-3 -4 -27 -11 -54 -15 -55 -7 -76 -31 -36 -41 39 -10 31
-32 -10 -31 -19 1 -35 5 -35 9 0 17 -3 23 -18 34 -17 12 -52 7 -52 -7 0 -5
-13 -9 -28 -9 -15 0 -32 -4 -37 -8 -14 -12 -115 -2 -115 10 0 6 7 8 15 5 7 -3
24 3 37 14 l23 19 -30 -5 c-16 -4 -50 -11 -75 -18 -45 -12 -45 -12 -15 -18 23
-5 20 -6 -11 -3 -76 6 -474 -66 -474 -86 0 -4 66 -12 148 -19 81 -7 165 -17
187 -21 22 -5 132 -18 245 -30 113 -11 250 -27 305 -36 152 -22 500 -51 440
-36 -20 5 -29 13 -27 24 2 12 -11 17 -60 22 -67 8 -91 17 -125 49 -16 14 -30
18 -53 14 -18 -4 -30 -2 -30 4 0 6 4 8 9 5 5 -3 14 1 21 9 10 12 8 16 -15 25
-14 5 -30 10 -34 10 -5 0 -14 7 -21 15 -7 8 -21 15 -31 15 -11 0 -28 9 -39 20
l-20 20 24 0 c30 0 86 31 86 47 0 6 8 13 18 16 9 2 -11 4 -46 4 -34 1 -64 -3
-67 -7z"/>
<path d="M0 521 l0 -311 28 0 c42 0 200 -25 337 -53 192 -40 360 -64 670 -97
160 -17 317 -35 350 -41 33 -5 130 -12 215 -15 144 -6 159 -4 210 16 30 12 82
28 115 35 33 7 134 31 225 53 273 68 424 102 447 102 24 0 112 26 159 46 18 8
90 29 160 47 116 29 129 35 132 56 2 13 0 27 -5 32 -11 11 -85 -9 -227 -60
-61 -21 -156 -51 -211 -66 -55 -15 -138 -38 -185 -51 -47 -13 -143 -37 -215
-54 -71 -16 -153 -37 -181 -45 -28 -8 -60 -15 -70 -15 -11 0 -25 -5 -32 -12
-13 -13 -52 -18 -152 -19 -36 0 -75 -5 -87 -11 -22 -11 -113 -3 -113 11 0 4 4
11 9 17 5 5 5 18 1 29 -7 17 -9 17 -9 3 -1 -15 -5 -16 -26 -6 -19 9 -22 14
-14 25 14 16 -2 18 -19 1 -9 -9 -19 -8 -44 5 -18 8 -42 19 -53 22 -16 5 -17 8
-5 15 8 5 21 5 32 -1 12 -6 24 -5 38 3 24 15 26 26 4 24 -9 0 -19 5 -22 13 -3
10 1 12 17 8 11 -3 23 -2 26 2 2 4 26 7 54 7 27 -1 47 2 45 6 -3 5 2 8 11 8
10 0 13 -5 9 -12 -4 -7 -3 -9 1 -5 22 20 13 37 -20 37 -19 0 -36 4 -39 9 -7
11 -22 9 -57 -8 -24 -12 -29 -11 -48 8 -23 23 -38 26 -61 10 -12 -8 -12 -10 5
-8 35 2 45 -1 45 -14 0 -16 -58 -39 -66 -26 -8 14 -44 11 -41 -4 1 -6 -4 -11
-11 -9 -7 1 -24 3 -37 4 -19 2 -22 6 -14 20 12 23 -4 32 -47 24 -27 -6 -34 -4
-34 9 0 8 -4 15 -10 15 -5 0 -10 5 -10 11 0 6 7 9 15 5 9 -3 15 0 15 9 0 8 -4
16 -10 16 -5 1 -14 3 -20 4 -5 1 -17 3 -25 4 -8 0 -15 10 -15 22 0 11 -5 29
-10 39 -8 15 -6 21 7 29 17 10 17 10 1 11 -10 0 -18 4 -18 10 0 14 44 55 60
55 8 0 14 5 13 10 -1 6 10 11 23 11 28 2 41 11 30 21 -3 4 -26 1 -49 -5 -23
-7 -57 -15 -76 -17 -19 -3 -37 -7 -40 -9 -4 -3 -25 -7 -47 -10 -22 -4 -72 -16
-110 -27 -38 -12 -114 -32 -169 -45 -55 -14 -127 -33 -160 -43 -73 -23 -217
-51 -254 -50 -23 1 -22 2 9 11 100 27 151 40 210 52 36 8 85 21 110 31 25 9
83 25 130 36 47 10 125 30 173 44 48 14 98 25 110 25 13 0 27 4 33 10 5 5 38
16 73 24 35 8 67 20 71 26 4 6 18 8 32 5 14 -4 29 -2 32 4 4 5 13 8 20 5 21
-8 81 25 68 38 -13 13 -81 5 -152 -17 -50 -15 -94 -26 -175 -42 -16 -3 -39
-12 -50 -19 -11 -8 -30 -14 -43 -14 -13 0 -31 -4 -40 -9 -9 -5 -55 -11 -101
-12 -65 -3 -85 -1 -89 10 -3 9 0 11 8 6 10 -6 10 -3 2 10 -10 18 5 45 24 45 4
0 16 8 26 17 14 13 21 14 30 5 14 -14 48 -16 48 -2 0 5 7 7 15 4 18 -7 19 0 5
27 -6 10 -19 19 -29 19 -10 0 -21 3 -24 7 -9 8 -62 16 -158 22 -9 1 -19 10
-22 21 -3 14 -14 20 -32 20 -21 0 -26 -4 -21 -17 6 -16 6 -16 -11 0 -14 12
-67 22 -189 37 -94 11 -193 24 -220 29 -27 5 -86 13 -131 16 l-83 8 0 -312z"/>
<path d="M2750 173 c-39 -18 -102 -24 -111 -11 -8 13 -59 -2 -59 -16 0 -20
-50 -39 -108 -41 -46 -2 -58 -7 -82 -33 -21 -23 -25 -34 -16 -41 13 -11 68 -2
103 17 27 15 36 15 28 2 -3 -5 -25 -19 -48 -29 l-42 -20 85 6 c47 3 97 6 112
6 32 0 59 43 30 50 -29 7 37 28 99 32 58 4 133 38 107 48 -8 3 -5 6 8 6 11 1
29 8 40 16 19 14 19 14 -2 15 -12 0 -41 2 -65 5 -28 3 -56 -1 -79 -12z"/>
<path d="M0 70 l0 -70 473 1 c509 1 509 1 222 43 -60 9 -184 28 -275 41 -194
30 -378 55 -402 55 -16 0 -18 -10 -18 -70z"/>
</g>
</svg>
