<?xml version="1.0" standalone="no"?>
<!DOCTYPE svg PUBLIC "-//W3C//DTD SVG 20010904//EN"
 "http://www.w3.org/TR/2001/REC-SVG-20010904/DTD/svg10.dtd">
<svg version="1.0" xmlns="http://www.w3.org/2000/svg"
 width="1920.000000pt" height="1080.000000pt" viewBox="0 0 1920.000000 1080.000000"
 preserveAspectRatio="xMidYMid meet">
<metadata>
Created by potrace 1.15, written by Peter Selinger 2001-2017
</metadata>
<g transform="translate(0.000000,1080.000000) scale(0.100000,-0.100000)"
fill="#000000" stroke="none">
<path d="M1515 10788 c11 -7 31 -12 44 -12 43 -1 37 -26 -6 -26 -33 0 -40 -4
-51 -30 -15 -34 -9 -50 18 -50 11 0 27 -12 36 -26 10 -14 45 -39 78 -56 34
-17 82 -46 109 -64 26 -19 54 -34 63 -34 29 0 73 -30 76 -52 2 -12 9 -23 17
-26 13 -4 11 9 -6 56 -9 22 26 13 42 -12 15 -22 12 -56 -5 -56 -5 0 -16 -19
-24 -42 -19 -50 -11 -127 22 -218 22 -59 46 -74 90 -58 38 13 64 9 88 -13 l22
-21 11 21 c7 12 21 21 33 21 11 0 27 8 34 18 12 16 14 16 31 -1 17 -17 17 -18
-5 -23 -40 -11 -20 -64 31 -83 19 -7 27 -18 27 -35 0 -27 21 -36 90 -36 38 0
47 4 56 24 8 18 8 32 -2 56 -20 47 -18 60 11 60 49 0 75 -93 28 -102 -15 -3
-15 -5 2 -21 14 -14 26 -17 56 -12 22 4 46 2 59 -5 31 -17 50 2 32 31 -10 15
-10 24 -2 34 7 8 11 71 12 164 2 145 1 152 -20 167 -24 16 -30 52 -9 59 7 3
12 24 12 54 0 76 -42 110 -98 79 -31 -18 -37 -28 -37 -69 0 -53 20 -85 67
-108 62 -30 75 -101 18 -101 -18 0 -25 5 -25 20 0 12 -10 25 -25 32 -13 6 -27
20 -31 30 -3 10 -18 32 -32 48 -63 67 -72 79 -72 92 0 7 -9 31 -20 53 -11 22
-20 49 -20 60 0 20 -48 65 -70 65 -5 0 -11 -9 -11 -20 -1 -11 -3 -24 -4 -30
-1 -5 -3 -14 -4 -20 -2 -20 -42 -10 -52 14 -6 13 -20 26 -30 29 -15 4 -17 12
-12 58 5 51 3 56 -26 82 -17 15 -31 32 -31 37 0 13 -187 13 -195 1 -3 -6 -18
-6 -38 0 -17 5 -108 9 -202 9 -134 -1 -166 -3 -150 -12z"/>
<path d="M5310 10790 c0 -5 3 -9 8 -8 4 2 16 -4 28 -12 38 -27 44 -104 39
-545 -3 -225 -7 -476 -11 -557 -7 -161 -5 -169 48 -149 34 13 37 34 39 296 1
121 5 267 9 325 l7 105 3 -120 c2 -66 4 -226 4 -355 l1 -235 125 3 c69 2 129
8 134 12 17 16 34 1033 19 1183 l-6 67 -223 0 c-143 0 -224 -4 -224 -10z"/>
<path d="M6601 10648 l2 -153 -34 -23 c-69 -47 -131 -116 -123 -136 3 -8 -6
-31 -19 -53 -14 -21 -31 -60 -38 -86 -9 -30 -32 -70 -62 -105 -48 -56 -83
-112 -72 -112 4 0 -3 -12 -15 -27 -11 -14 -25 -46 -31 -70 -6 -24 -15 -43 -20
-43 -5 0 -4 -8 2 -18 9 -14 4 -31 -26 -86 -20 -38 -43 -86 -50 -107 -8 -22
-21 -54 -28 -72 -53 -120 -70 -206 -56 -284 6 -32 13 -132 15 -223 4 -164 4
-164 33 -195 67 -72 102 -163 73 -191 -15 -15 -14 -18 1 -29 14 -10 15 -18 7
-39 -12 -32 -13 -99 -2 -92 4 3 17 -12 28 -32 26 -50 45 -64 60 -44 8 11 13
12 18 4 4 -7 3 -12 -2 -12 -14 0 -55 -135 -48 -158 4 -11 40 -53 81 -93 43
-42 79 -86 86 -106 11 -36 34 -53 71 -54 13 0 18 -3 11 -5 -43 -18 -72 -165
-38 -194 17 -14 21 -35 5 -25 -37 23 32 -251 96 -376 19 -39 23 -63 24 -145 1
-110 -5 -410 -15 -759 -10 -337 -11 -325 13 -325 10 0 27 6 37 14 18 13 19 33
22 342 2 181 3 423 3 538 l0 210 36 -35 c62 -58 172 -200 205 -263 17 -34 80
-133 139 -221 121 -181 190 -299 189 -323 0 -11 -22 -27 -57 -44 -74 -35 -97
-74 -87 -147 9 -64 20 -72 41 -27 9 19 27 40 40 47 13 7 26 20 29 29 3 9 18
29 34 44 l29 28 31 -66 c17 -36 52 -89 76 -117 49 -58 50 -66 9 -127 -32 -46
-38 -71 -25 -105 18 -47 45 -30 90 58 18 32 37 63 44 67 7 4 47 8 90 8 l77 0
0 -77 c0 -54 3 -73 10 -63 8 12 10 8 11 -15 1 -16 1 -37 1 -45 -1 -8 4 -3 11
13 13 31 19 33 38 10 10 -11 11 -17 3 -20 -7 -2 -9 -13 -7 -25 4 -11 0 -24 -8
-28 -10 -7 -11 -14 -2 -32 7 -13 15 -59 18 -103 4 -44 11 -88 16 -97 7 -13 6
-18 -4 -18 -8 0 -17 -9 -20 -20 -3 -13 -14 -20 -28 -20 l-23 0 22 -20 c12 -11
28 -20 37 -20 8 0 15 -9 15 -20 0 -11 -3 -20 -8 -20 -4 0 -15 9 -25 20 -9 11
-24 20 -33 20 -14 0 -13 -2 2 -17 13 -13 14 -18 4 -21 -7 -3 -19 3 -27 14 -9
13 -13 14 -13 3 0 -8 14 -22 30 -31 31 -17 42 -58 17 -58 -9 0 -12 -10 -9 -30
3 -21 0 -30 -9 -30 -24 0 -42 17 -36 34 9 22 -16 21 -36 -2 -9 -9 -21 -40 -27
-67 -20 -92 -65 -142 -175 -197 -44 -23 -92 -42 -106 -43 -14 -1 -31 -5 -37
-9 -6 -4 -35 -10 -63 -13 -50 -6 -51 -6 -45 -36 3 -16 7 -53 8 -81 1 -50 2
-50 7 14 l6 65 100 1 c75 1 115 7 160 23 99 35 168 52 192 47 31 -8 57 -91 51
-167 -3 -36 0 -60 6 -63 7 -3 7 -5 1 -5 -5 -1 -9 -18 -9 -38 3 -57 14 -146 19
-151 3 -3 1 -10 -4 -16 -5 -6 -10 -33 -12 -61 -1 -27 -7 -59 -12 -70 -10 -19
-18 -61 -21 -115 0 -14 -5 -28 -11 -32 -8 -6 -17 -142 -15 -213 1 -25 1 -29
-5 -95 -3 -30 -7 -187 -10 -349 -2 -161 -6 -296 -9 -298 -14 -14 -57 11 -73
41 -61 115 -231 225 -368 238 -29 3 -30 1 -32 -37 -1 -22 0 -34 3 -27 7 15 44
16 44 1 0 -6 8 -8 19 -4 13 4 24 -1 33 -13 7 -10 21 -21 31 -25 11 -4 21 -16
24 -26 3 -11 13 -21 24 -24 13 -3 19 -14 19 -31 0 -16 6 -26 14 -26 24 0 29
-20 11 -40 -16 -18 -16 -18 3 -13 20 5 37 -20 26 -38 -7 -13 -51 -11 -59 2 -5
7 -15 3 -30 -11 -19 -18 -46 -25 -127 -35 -147 -18 -189 -15 -233 17 -31 22
-42 25 -60 16 -18 -8 -29 -7 -46 6 l-23 16 31 0 c20 0 36 7 42 18 10 16 10 16
11 0 0 -19 16 -23 45 -12 19 8 48 61 40 73 -3 5 8 23 25 39 24 25 30 39 30 75
0 47 -29 97 -56 97 -18 0 -18 -5 2 -56 14 -37 14 -45 1 -71 -9 -16 -27 -35
-42 -43 -24 -13 -28 -13 -40 4 -15 19 -35 14 -35 -9 0 -8 -5 -17 -11 -20 -7
-5 -8 5 -3 31 l7 38 -26 -17 c-27 -17 -27 -17 -47 15 -11 18 -23 44 -27 57 -5
22 -2 36 22 94 11 27 -20 21 -44 -9 -28 -35 -27 -98 0 -143 13 -22 17 -36 10
-40 -6 -4 -13 -20 -17 -36 -4 -25 0 -35 25 -59 27 -26 31 -37 31 -83 0 -34 -5
-55 -12 -57 -7 -2 -31 -9 -54 -15 -23 -6 -58 -22 -79 -36 -28 -20 -40 -23 -51
-15 -18 16 -34 4 -34 -25 0 -33 -64 -85 -190 -152 -130 -70 -240 -148 -240
-171 0 -4 15 -22 33 -38 18 -16 39 -48 46 -71 14 -42 14 -44 -20 -92 -18 -28
-43 -52 -55 -55 -12 -3 -29 -9 -38 -12 -33 -13 -15 16 19 30 30 13 64 60 52
73 -2 2 -24 -13 -48 -32 -24 -19 -50 -35 -56 -35 -7 0 -13 -7 -13 -15 0 -8
-11 -17 -24 -21 -21 -5 -23 -9 -15 -27 10 -21 92 -67 118 -67 7 0 44 14 83 31
38 17 72 28 76 25 8 -9 -73 -81 -187 -166 -55 -41 -101 -78 -101 -81 0 -4 24
-13 53 -21 44 -13 52 -18 52 -39 0 -21 -8 -26 -75 -44 -41 -11 -90 -30 -109
-42 -19 -12 -60 -25 -90 -28 -81 -9 -109 -23 -48 -24 59 -1 58 -13 -1 -55 -40
-28 -43 -29 -94 -18 -46 11 -53 16 -54 37 -1 13 -9 32 -18 40 -9 9 -16 23 -16
31 0 17 1 17 -38 3 -23 -8 -41 -8 -67 1 -44 15 -45 26 -1 34 18 4 53 20 76 37
32 23 45 28 55 19 10 -9 20 -7 39 5 33 22 33 24 -6 22 -32 -2 -32 -2 -54 78
-41 146 -57 269 -51 390 7 124 29 258 57 355 39 133 80 351 80 426 0 86 44
282 90 404 38 100 37 205 -5 294 -27 58 -27 58 -21 225 8 218 17 280 55 376
42 103 72 243 71 323 -1 69 14 162 36 232 14 43 97 227 167 370 43 89 204 250
302 303 39 21 78 44 88 52 18 13 49 119 39 130 -11 11 -11 40 1 47 7 4 8 8 2
8 -12 0 -13 69 -2 88 5 6 4 12 -1 12 -4 0 -9 57 -10 127 -2 80 -6 130 -13 134
-15 9 -127 21 -137 15 -5 -3 -55 -7 -113 -10 l-104 -6 -35 52 c-47 70 -109
138 -127 138 -8 0 -11 5 -8 10 3 6 -3 10 -15 10 -12 0 -19 4 -15 9 3 6 -4 15
-15 21 -11 6 -20 16 -19 23 0 9 2 9 6 0 2 -7 10 -13 16 -13 6 0 4 8 -6 17 -26
27 -40 3 -42 -69 -1 -71 -12 -101 -27 -75 -11 20 -1 79 15 89 9 6 8 8 -3 8
-11 0 -16 16 -18 68 -2 37 -5 81 -7 97 -17 144 -24 329 -24 668 l-1 399 -53
51 c-102 99 -219 142 -373 135 -78 -3 -101 -8 -157 -36 -152 -75 -249 -251
-251 -456 -1 -51 -5 -81 -13 -83 -6 -2 -34 8 -63 22 -39 20 -64 25 -108 24
-51 -1 -131 10 -286 40 -58 11 -82 5 -65 -15 20 -24 -1 -33 -81 -33 -44 0 -84
-2 -89 -5 -17 -11 -155 -38 -206 -41 -58 -4 -99 -10 -209 -30 -43 -8 -96 -15
-117 -15 -22 0 -51 -8 -65 -17 -21 -14 -27 -14 -34 -3 -6 10 -12 11 -22 3 -7
-5 -32 -10 -56 -9 -29 1 -48 -5 -59 -16 -14 -16 -13 -18 13 -23 50 -11 56 -15
50 -30 -4 -11 1 -15 19 -15 13 0 26 4 30 9 3 6 15 8 27 6 11 -3 25 -2 31 2 5
3 93 7 196 9 219 5 194 5 256 -2 82 -9 129 -5 142 12 8 11 19 14 34 9 13 -5
24 -2 29 6 9 14 228 17 549 6 146 -5 188 -9 200 -21 10 -10 16 -39 18 -83 1
-44 9 -82 22 -107 12 -22 19 -41 17 -44 -4 -3 -193 -13 -260 -13 -11 0 -30 -9
-44 -20 -14 -10 -33 -19 -43 -19 -23 0 -34 -18 -30 -50 4 -32 19 -50 41 -50 9
0 22 -10 28 -22 6 -13 11 -18 11 -11 1 9 11 9 45 -1 49 -15 100 -46 76 -46
-13 0 -13 -2 0 -10 20 -13 30 -12 30 3 0 13 54 14 100 2 14 -3 77 -8 140 -10
63 -3 125 -7 137 -10 36 -9 204 -340 271 -533 19 -57 31 -76 50 -83 19 -7 22
-12 12 -23 -13 -16 -1 -72 25 -123 8 -15 15 -36 15 -46 0 -9 5 -26 12 -36 6
-10 8 -25 5 -34 -8 -22 -47 -10 -58 19 -8 24 -49 35 -49 14 0 -5 -7 -10 -15
-10 -8 0 -15 9 -15 20 0 13 -9 22 -26 26 -23 6 -24 8 -11 21 13 13 13 19 -2
47 -9 17 -20 34 -26 38 -15 11 -27 10 -20 -2 3 -5 -3 -10 -15 -10 -12 0 -19 4
-16 9 3 4 -1 17 -9 27 -14 18 -15 18 -31 -4 -14 -21 -22 -23 -60 -17 -42 6
-44 5 -44 -19 0 -32 -27 -60 -49 -50 -23 11 -114 5 -122 -7 -4 -6 -21 -8 -43
-4 -25 5 -36 4 -36 -5 0 -6 -10 -10 -22 -8 -18 2 -22 9 -20 30 2 26 -16 52
-20 26 -3 -22 -5 -51 -7 -80 0 -18 -7 -28 -16 -28 -8 0 -15 -7 -15 -15 0 -8 6
-15 14 -15 13 0 30 -39 21 -49 -3 -2 -36 -3 -74 -2 -60 2 -72 -1 -90 -20 -18
-19 -22 -20 -37 -8 -9 8 -20 13 -23 13 -3 -1 -17 3 -30 8 -23 8 -40 -2 -41
-24 0 -3 -12 -5 -27 -3 -16 1 -31 -2 -34 -7 -4 -6 -10 4 -14 22 -5 23 -10 29
-15 19 -7 -10 -13 -11 -32 -1 -14 8 -34 9 -52 4 -23 -6 -33 -3 -55 18 -37 34
-45 60 -26 74 13 9 8 11 -24 8 -22 -2 -61 3 -86 11 -25 9 -45 12 -45 6 0 -5
-6 -9 -14 -9 -9 0 -14 -9 -13 -20 1 -11 7 -20 14 -20 7 0 13 -4 13 -10 0 -5 8
-6 17 -3 11 4 12 8 5 11 -7 2 -12 9 -12 14 0 6 3 9 6 5 3 -3 16 -2 28 3 20 7
24 4 35 -25 9 -25 20 -35 41 -40 16 -4 33 -11 36 -17 5 -8 -11 -9 -53 -5 -37
4 -64 2 -70 -4 -6 -6 -24 -8 -41 -4 -27 6 -30 10 -27 36 2 16 -1 29 -6 29 -21
0 -24 -2 -21 -14 1 -7 -4 -18 -11 -24 -10 -9 -12 -4 -9 23 4 30 2 33 -17 28
-11 -3 -19 -9 -16 -13 12 -20 -29 -33 -103 -31 -42 0 -92 1 -110 1 -25 0 -32
4 -30 16 3 14 -10 17 -72 20 -49 2 -77 -1 -81 -8 -6 -9 -14 -9 -31 -1 -21 10
-27 7 -43 -17 -14 -21 -26 -27 -47 -26 -39 3 -45 -11 -13 -26 18 -8 32 -9 43
-2 11 6 32 7 57 2 22 -5 48 -9 57 -9 10 0 20 -4 23 -10 4 -5 1 -9 -4 -9 -19 0
-25 -2 -66 -18 -22 -9 -49 -24 -59 -34 -15 -14 -22 -15 -28 -6 -5 9 -8 8 -8
-4 0 -20 -20 -25 -20 -5 0 8 -2 9 -8 1 -4 -6 -23 -15 -42 -19 -19 -4 -42 -12
-51 -18 -24 -15 -73 7 -65 29 5 13 2 15 -13 11 -12 -3 -22 1 -25 10 -5 12 -9
12 -28 -1 -25 -18 -42 -21 -33 -6 3 6 -1 10 -10 10 -9 0 -13 -5 -10 -10 3 -6
-1 -18 -10 -27 -14 -13 -21 -14 -36 -5 -10 7 -28 12 -38 12 -28 0 -33 13 -15
38 14 21 42 32 30 13 -3 -5 1 -12 10 -15 28 -11 44 -6 44 13 0 11 6 22 13 25
9 5 9 7 -1 12 -6 3 -10 10 -6 15 10 16 24 10 24 -11 0 -16 7 -20 38 -20 25 0
33 3 23 9 -21 14 -6 40 19 34 16 -4 20 -11 16 -27 -5 -20 -4 -19 15 3 11 13
16 28 11 33 -18 18 -81 45 -89 37 -12 -12 -37 7 -30 24 7 19 58 28 76 14 11
-9 13 -9 8 -1 -8 15 27 39 71 49 18 3 37 15 42 25 6 12 26 21 55 25 42 7 44 9
34 29 -9 17 -9 19 1 9 10 -9 17 -7 32 7 11 10 35 21 54 25 19 3 34 9 34 14 0
9 18 11 75 11 43 0 124 15 168 32 19 7 31 7 40 0 28 -24 102 3 91 32 -4 10 6
12 38 9 39 -3 41 -2 24 11 -10 8 -15 19 -12 25 4 6 -6 17 -22 25 -25 13 -32
13 -55 1 -16 -8 -27 -10 -27 -4 0 6 -5 7 -10 4 -5 -3 -10 -3 -10 2 0 4 -45 7
-99 6 -58 -2 -102 1 -106 7 -3 6 -24 10 -46 10 -28 0 -39 4 -39 15 0 8 -7 15
-16 15 -9 0 -28 7 -44 17 -26 15 -30 15 -64 -6 -20 -13 -36 -27 -36 -32 0 -17
53 -30 115 -28 80 3 97 -8 72 -48 -8 -13 -78 -27 -118 -25 -15 1 -51 -4 -80
-12 -30 -7 -63 -12 -74 -9 -154 31 -175 31 -205 -4 l-23 -27 -19 24 c-17 21
-23 23 -96 17 -43 -3 -84 -2 -92 3 -17 11 -9 13 36 10 18 -1 35 3 39 9 3 6 30
11 59 11 39 0 58 5 74 21 28 26 22 36 -28 44 -22 4 -40 11 -40 16 0 14 37 29
75 29 53 0 61 41 36 180 -25 142 -30 180 -46 320 -17 158 -30 211 -48 204 -7
-2 -27 8 -45 23 -34 29 -52 90 -52 174 0 38 -12 50 -26 28 -12 -20 -3 -213 11
-227 3 -3 -2 -16 -10 -29 -10 -15 -12 -23 -4 -23 9 0 9 -3 0 -14 -6 -7 -8 -21
-5 -30 5 -12 0 -19 -15 -23 -21 -5 -19 -9 24 -49 36 -32 45 -47 41 -62 -4 -11
-2 -23 4 -27 15 -9 12 -25 -5 -25 -18 0 -20 -17 -3 -22 22 -8 -1 -25 -62 -47
-62 -23 -79 -49 -44 -69 9 -5 12 -12 7 -15 -6 -4 -19 3 -31 13 -38 36 -53 20
-32 -34 5 -14 6 -26 1 -26 -10 0 -51 44 -51 55 0 5 -7 17 -17 27 -9 10 -21 28
-27 40 -6 13 -20 24 -30 26 -27 6 -135 -20 -148 -35 -27 -32 24 -143 72 -158
11 -4 20 -11 20 -16 0 -21 -85 38 -113 78 l-30 41 17 49 17 48 -31 27 c-16 15
-30 35 -30 43 0 9 -5 13 -11 10 -6 -4 -8 -14 -5 -22 5 -11 1 -14 -13 -10 -13
3 -28 -5 -46 -24 -14 -17 -30 -27 -34 -24 -5 2 -13 -1 -19 -8 -12 -15 -41
-161 -49 -246 -6 -60 -8 -64 -40 -77 -37 -16 -41 -25 -18 -44 14 -12 13 -15
-5 -35 -11 -12 -20 -27 -20 -34 0 -6 -15 -18 -34 -26 -23 -10 -36 -23 -38 -37
-3 -20 -11 -24 -63 -31 -33 -5 -99 -6 -147 -3 -64 3 -88 1 -88 -7 0 -7 -30
-40 -68 -74 -70 -63 -177 -169 -201 -199 -12 -13 -12 -23 -3 -48 10 -25 10
-33 -1 -41 -8 -5 -19 -27 -26 -48 -9 -27 -25 -45 -54 -64 -53 -32 -88 -64 -82
-73 12 -19 -117 -73 -225 -94 -41 -8 -160 -17 -265 -20 -104 -3 -193 -6 -196
-6 -4 0 -12 -14 -19 -31 -21 -50 -122 -89 -148 -56 -8 10 -9 57 -3 99 2 14 45
48 62 48 54 0 44 73 -13 88 -32 8 -33 10 -30 57 4 74 8 76 141 73 107 -3 116
-4 119 -23 1 -12 -14 -40 -38 -69 -22 -26 -40 -51 -40 -56 0 -9 30 -70 35 -70
2 0 15 18 28 41 14 23 36 49 50 58 31 21 291 293 369 388 40 48 72 77 99 87
22 9 43 24 46 34 4 9 17 31 30 48 13 17 23 40 23 52 0 11 22 44 48 74 27 29
55 64 61 77 13 23 12 23 -28 16 -44 -7 -41 -12 -59 80 -10 51 -42 63 -42 16 0
-17 -4 -31 -8 -31 -5 0 -8 17 -7 38 1 20 -1 42 -4 47 -6 11 -9 80 -15 340 -2
94 -4 183 -5 198 l-1 28 -57 -39 c-120 -81 -188 -108 -199 -79 -5 14 38 125
67 174 24 38 37 127 20 137 -6 4 -11 3 -11 -1 0 -14 -68 -35 -90 -28 -14 4
-20 15 -20 35 0 17 -7 30 -17 35 -17 6 -17 7 0 17 10 5 29 7 43 4 17 -5 24 -2
24 8 0 32 -36 37 -203 29 -89 -4 -173 -7 -187 -6 -103 8 -198 13 -419 24
l-255 12 -56 57 c-31 33 -82 71 -118 89 l-62 31 0 -50 c0 -38 4 -50 15 -50 9
0 18 7 21 15 9 21 41 19 54 -4 25 -48 -3 -117 -43 -105 -12 3 -28 13 -34 22
-11 13 -13 -6 -13 -101 0 -133 -7 -124 94 -106 55 10 66 9 106 -9 25 -11 59
-23 75 -26 17 -4 56 -22 86 -40 48 -29 71 -35 172 -47 64 -7 117 -15 117 -19
7 -74 4 -113 -10 -120 -13 -7 -11 -13 11 -37 51 -54 62 -93 26 -93 -22 0 -61
-21 -82 -44 -6 -6 -21 -20 -34 -31 -23 -20 -23 -20 -20 0 4 17 -2 20 -36 20
-22 1 -46 4 -53 9 -20 12 -14 -9 15 -53 15 -23 33 -41 40 -41 18 0 16 -25 -2
-54 -14 -22 -19 -23 -51 -13 -39 12 -68 52 -78 110 -5 26 -12 37 -25 37 -22 0
-46 25 -64 68 -8 19 -18 34 -23 34 -5 0 -15 3 -22 6 -7 2 -19 -1 -25 -7 -9
-10 -9 -12 3 -9 8 2 14 -2 15 -9 0 -7 6 -18 13 -24 13 -14 17 -48 5 -50 -5 -1
-19 -3 -33 -4 -14 -2 -39 -6 -56 -10 -42 -9 -64 14 -64 68 0 23 -7 60 -14 82
-8 23 -10 42 -5 46 14 8 -39 74 -61 75 -25 2 -26 -11 -2 -28 25 -19 50 -69 58
-115 5 -30 1 -47 -15 -74 -26 -42 -26 -45 1 -52 18 -5 19 -8 8 -21 -7 -9 -25
-16 -41 -16 l-29 0 0 -3535 0 -3535 3374 0 3374 0 11 28 c7 16 41 57 77 93 36
36 96 113 135 175 79 125 174 228 188 205 6 -9 -3 -35 -25 -77 -18 -35 -30
-66 -25 -69 9 -5 63 19 58 26 -2 2 5 12 14 21 18 17 19 16 34 -12 19 -37 19
-39 -4 -33 -16 4 -23 -3 -35 -32 -20 -47 -20 -91 -2 -98 13 -5 13 -11 -1 -39
-9 -18 -24 -42 -34 -53 -17 -19 -19 -24 -19 -43 0 -5 -12 -15 -27 -23 -15 -8
-35 -20 -43 -26 -8 -7 -24 -19 -35 -27 -18 -14 -9 -15 93 -15 63 0 112 4 112
10 0 5 7 9 16 9 8 0 13 -4 9 -10 -3 -5 121 -9 330 -10 286 0 338 2 359 15 21
14 24 14 36 0 12 -14 35 -16 152 -13 92 1 139 6 142 14 5 13 56 7 56 -7 0 -4
152 -8 337 -9 247 0 334 3 326 11 -6 6 -28 12 -49 14 -22 2 -39 4 -39 6 0 1
-14 2 -31 3 -23 2 -30 -2 -27 -11 3 -9 0 -11 -10 -7 -9 3 -13 12 -10 21 4 10
2 14 -4 10 -14 -9 -83 12 -101 30 -10 9 -18 11 -25 4 -5 -5 -16 -7 -23 -4 -8
3 -17 -2 -20 -11 -5 -12 -10 -14 -20 -6 -7 7 -10 18 -7 26 3 8 1 14 -5 14 -6
0 -12 -6 -14 -12 -3 -9 -10 -8 -23 5 -10 10 -21 14 -24 9 -7 -12 -51 3 -51 18
0 5 -7 10 -15 10 -9 0 -21 12 -28 28 -6 15 -15 30 -20 33 -5 3 -8 8 -6 10 1 2
-3 28 -9 56 -8 33 -8 61 -3 76 5 14 8 36 7 51 -2 15 1 29 6 32 5 3 6 19 3 34
-4 17 -1 37 7 49 15 24 48 28 48 6 0 -8 12 -18 28 -21 15 -4 42 -20 60 -37 17
-17 32 -25 32 -18 0 7 5 9 10 6 6 -3 10 -15 10 -26 0 -11 6 -19 13 -18 24 3
38 -1 32 -10 -7 -13 16 -62 26 -55 4 2 20 2 34 -2 19 -5 25 -12 22 -25 -3 -13
0 -16 11 -12 10 4 13 2 8 -5 -7 -12 -6 -13 30 -17 30 -3 44 -14 38 -29 -4 -9
9 -18 38 -28 24 -7 42 -19 41 -26 -2 -6 8 -14 22 -18 14 -3 25 -10 25 -15 0
-5 7 -9 15 -9 8 0 20 -10 26 -22 16 -30 87 -96 96 -89 3 3 3 -2 0 -11 -6 -17
182 -18 3728 -18 3247 0 3734 2 3729 14 -3 8 -12 12 -20 9 -10 -4 -14 3 -14
26 0 47 26 39 54 -16 14 -28 22 -33 51 -33 31 0 33 2 29 27 -3 16 -12 32 -20
36 -8 4 -14 15 -14 23 0 15 54 -40 56 -58 1 -4 2 -12 3 -18 1 -14 52 -12 84 3
28 12 31 24 17 67 -7 21 -8 22 -9 5 -1 -12 -11 2 -25 35 -21 49 -22 56 -8 68
9 6 11 12 5 12 -6 0 -14 10 -18 23 -4 13 -8 17 -12 9 -2 -6 -9 -9 -15 -6 -6 4
-6 9 2 14 8 5 10 15 5 26 -5 11 -8 22 -7 26 1 3 -5 12 -13 18 -8 7 -15 29 -15
49 l1 36 14 -25 c8 -14 14 -31 15 -39 0 -8 7 -19 17 -26 14 -11 19 -26 22 -72
1 -7 7 -13 15 -13 22 0 16 52 -10 83 -13 16 -24 38 -23 50 l0 22 11 -22 c6
-13 15 -23 20 -23 5 0 6 5 2 12 -12 18 -36 130 -35 162 0 16 -4 37 -10 47 -5
11 -6 19 -1 19 4 0 16 -17 26 -37 18 -36 19 -37 29 -16 11 25 2 57 -13 48 -6
-4 -9 -1 -8 6 2 7 -3 14 -9 15 -7 1 -16 3 -20 4 -5 1 -11 2 -15 1 -5 0 -8 4
-8 10 0 6 -7 9 -15 5 -8 -3 -15 -1 -15 4 0 5 -10 18 -22 30 -12 11 -17 20 -12
20 6 0 21 -10 34 -22 16 -15 25 -18 28 -10 3 9 8 8 17 -5 7 -10 16 -15 20 -11
9 9 -17 48 -32 48 -17 0 -33 33 -23 49 4 8 13 10 19 7 17 -11 13 11 -5 29 -12
12 -19 13 -24 5 -5 -8 -9 -7 -13 4 -4 9 -2 16 3 16 13 0 3 53 -22 116 -20 52
-22 121 -3 116 6 -1 10 -10 10 -20 1 -24 15 -62 24 -62 9 0 6 173 -3 189 -17
26 -28 9 -24 -34 5 -38 3 -44 -8 -34 -18 15 -14 95 4 92 11 -3 18 27 12 52 -6
26 -4 40 6 38 7 -1 14 9 17 22 3 17 0 25 -9 25 -8 0 -14 -5 -14 -10 0 -7 -6
-7 -17 -2 -42 22 -56 -13 -23 -55 18 -24 19 -50 0 -38 -11 7 -21 -39 -14 -62
6 -16 5 -16 -9 2 -19 24 -21 42 -6 47 9 3 8 11 -1 28 -8 15 -15 20 -18 12 -7
-23 -22 -12 -22 16 0 34 9 45 25 32 9 -7 11 3 7 43 -2 28 -5 68 -5 87 0 19 -2
29 -5 22 -2 -6 -8 -10 -13 -6 -5 3 -9 -2 -9 -10 0 -9 -4 -16 -9 -16 -14 0 -23
93 -10 101 6 4 9 11 6 15 -3 5 1 17 8 27 9 13 15 15 20 6 4 -6 2 -15 -5 -19
-16 -10 -5 -43 13 -37 6 2 17 -5 24 -17 l12 -21 1 21 c0 11 -3 24 -7 28 -5 4
-8 17 -9 29 -1 12 -4 29 -7 37 -3 8 -8 34 -10 58 -4 42 -17 71 -17 39 0 -24
-21 -21 -27 3 -7 25 -20 26 -26 3 -3 -12 -5 -9 -6 8 -1 18 -8 28 -21 32 -20 5
-29 27 -11 27 16 0 23 68 9 92 -15 29 -19 48 -8 48 16 0 35 -33 32 -56 -3 -18
0 -22 12 -18 19 7 20 0 5 -25 -10 -15 -8 -22 10 -40 l21 -21 0 30 c0 17 5 30
13 30 8 0 8 3 1 8 -5 4 -20 23 -31 42 -12 19 -30 41 -41 49 -12 8 -17 21 -14
36 6 35 -23 82 -50 80 -19 -1 -24 -8 -26 -38 -2 -21 1 -37 7 -37 6 0 11 -6 11
-14 0 -9 -8 -12 -25 -8 -18 3 -25 11 -25 28 0 13 4 24 9 24 11 0 -7 72 -19 80
-10 7 0 70 12 70 5 0 7 -8 4 -17 -3 -10 2 -30 12 -45 15 -23 19 -25 36 -12 17
12 18 16 5 31 -8 10 -20 30 -27 45 -6 16 -16 28 -21 28 -5 0 -7 9 -4 21 6 20
-26 99 -39 99 -14 0 -8 -28 7 -34 8 -3 15 -10 15 -16 0 -6 -4 -9 -9 -5 -6 3
-10 -3 -10 -12 -1 -35 -9 -148 -11 -158 -5 -21 1 -29 10 -15 8 13 10 13 10 -2
0 -9 3 -24 7 -34 4 -11 3 -15 -4 -11 -6 4 -14 1 -16 -5 -4 -10 -6 -10 -6 0 -1
7 -5 10 -11 7 -12 -7 -11 -8 -15 112 -1 50 -5 96 -9 101 -3 6 -2 12 3 14 5 1
3 26 -4 53 -7 28 -15 63 -19 78 -4 15 -11 25 -16 22 -5 -3 -7 -12 -3 -20 3 -8
0 -15 -6 -15 -6 0 -11 9 -11 21 0 11 -5 29 -10 40 -8 15 -7 19 5 19 8 0 15 -4
15 -10 0 -5 7 -7 15 -4 8 4 15 1 15 -5 0 -6 4 -11 8 -11 5 0 9 7 9 14 0 8 -3
14 -6 13 -3 -1 -19 11 -35 26 -21 19 -32 24 -41 17 -10 -8 -15 -3 -23 19 -12
33 -5 46 15 30 22 -19 14 1 -11 26 -13 13 -27 21 -31 17 -4 -4 -13 2 -21 12
-9 12 -14 15 -14 7 0 -8 7 -19 17 -26 9 -7 14 -19 10 -29 -10 -24 -21 -20 -36
16 -13 28 -15 30 -22 12 -4 -10 -8 -13 -8 -6 -1 6 -10 12 -21 12 -15 0 -20 6
-19 28 0 27 0 27 11 4 7 -13 17 -21 26 -17 7 3 18 5 22 5 5 0 3 21 -5 46 -7
25 -12 51 -9 57 2 7 0 17 -4 22 -14 21 -65 55 -73 49 -5 -3 -24 10 -44 27 -25
23 -32 36 -25 44 7 8 4 18 -10 30 -25 22 -36 14 -19 -14 19 -30 4 -36 -29 -12
-17 12 -36 21 -44 21 -7 0 -21 8 -29 18 -28 31 -58 51 -84 58 -27 7 -32 -4
-15 -37 12 -21 -2 -26 -18 -7 -10 13 -26 71 -27 96 0 7 -5 16 -11 20 -6 4 -10
15 -8 25 2 13 -2 16 -17 12 -15 -5 -19 -1 -19 18 0 14 -7 28 -16 31 -14 5 -15
4 -5 -8 8 -10 9 -16 1 -21 -6 -3 -8 -11 -5 -16 4 -5 0 -9 -8 -9 -13 0 -54 28
-85 57 -8 7 -19 10 -25 6 -7 -4 -7 0 1 9 8 9 20 14 28 11 8 -3 14 -1 14 3 -1
18 -39 54 -56 54 -16 0 -16 -1 -1 -18 22 -24 21 -32 -3 -32 -20 0 -23 -21 -6
-49 5 -8 4 -16 -5 -22 -11 -6 -10 -9 3 -14 13 -5 16 -14 11 -36 -3 -15 -2 -36
2 -46 12 -29 15 -65 4 -61 -17 6 -59 120 -59 160 0 36 -5 44 -41 71 -10 7 -20
22 -24 34 -5 18 -3 22 9 17 9 -3 16 -15 16 -26 0 -12 4 -16 11 -12 7 4 20 -4
30 -17 l18 -24 -8 35 c-10 47 -32 80 -52 80 -16 0 -46 36 -51 62 -2 7 -11 19
-21 26 -15 12 -50 68 -45 74 1 2 -13 19 -30 38 -33 36 -36 56 -9 54 14 -2 14
2 -3 23 -24 30 -26 47 -5 39 18 -7 19 -2 2 26 -23 41 -50 61 -84 63 -22 1 -29
-1 -21 -6 8 -6 1 -9 -20 -9 -18 0 -40 -7 -48 -15 -13 -12 -19 -13 -36 -2 -11
6 -29 17 -40 23 -15 9 -16 13 -6 17 7 3 -2 6 -19 6 -18 1 -33 6 -33 11 0 9 6
11 43 14 6 1 18 9 25 19 7 9 18 17 23 17 14 0 103 72 136 111 61 71 77 101 78
148 0 25 7 57 14 70 10 18 10 25 1 31 -7 4 -16 27 -22 51 -25 117 -26 119 -27
46 -1 -43 -5 -66 -12 -65 -7 2 -12 -19 -13 -57 -2 -63 -29 -137 -62 -169 -10
-11 -24 -29 -29 -40 -22 -45 -215 -148 -215 -115 0 4 -10 13 -22 20 -18 10
-20 9 -15 -5 5 -11 1 -16 -14 -16 -12 0 -17 4 -13 11 4 8 -3 9 -23 5 -21 -5
-34 -2 -43 9 -7 8 -27 15 -46 15 -18 0 -36 4 -39 10 -3 5 -1 10 6 10 8 0 7 5
-2 18 -12 15 -12 16 1 6 19 -14 170 -28 170 -16 0 5 -26 12 -58 15 -68 7 -177
41 -146 45 13 2 25 15 33 37 7 19 16 35 20 35 13 0 21 38 9 42 -12 4 -30 142
-21 164 4 12 2 15 -8 12 -9 -3 -13 -16 -11 -34 4 -48 -10 -58 -83 -59 -36 -1
-68 2 -71 7 -3 4 -16 8 -30 8 -35 0 -33 35 4 46 20 5 23 8 10 11 -10 3 -18 11
-18 18 0 21 -21 30 -32 14 -8 -11 -9 -11 -5 2 3 9 -1 26 -9 38 -20 27 -32 127
-15 117 7 -4 10 -13 8 -19 -5 -17 19 -101 31 -105 18 -6 10 64 -14 123 -16 38
82 -54 101 -95 10 -22 22 -40 27 -40 25 0 -14 59 -91 137 -33 34 -61 69 -61
77 0 9 -9 16 -20 16 -11 0 -26 12 -35 29 -8 16 -20 32 -27 35 -7 3 -3 3 10 0
12 -3 22 -1 22 4 0 19 32 22 63 6 l32 -16 -33 31 c-19 17 -38 28 -44 25 -6 -4
-8 -3 -5 3 3 5 -7 19 -23 31 -16 12 -30 18 -33 14 -2 -4 -2 -1 -1 6 2 7 -3 15
-12 19 -8 3 -13 11 -10 18 3 8 -4 23 -15 36 -21 24 -25 19 -9 -14 12 -24 -40
31 -67 71 -17 25 -21 118 -5 134 7 7 7 18 -1 35 -8 18 -8 29 1 44 15 24 16 51
1 29 -8 -11 -9 -9 -4 10 4 14 11 29 16 35 5 5 9 19 9 31 0 13 5 26 12 30 8 5
9 -2 5 -24 -5 -25 -2 -34 12 -42 13 -6 17 -17 14 -30 -6 -24 12 -27 21 -4 3 9
6 29 6 45 0 22 -5 29 -19 29 -23 0 -36 42 -21 70 5 10 10 34 10 52 0 53 48
161 66 150 3 -2 9 0 12 4 4 4 1 4 -5 0 -8 -4 -13 -1 -13 8 0 24 18 28 30 6 6
-11 15 -18 20 -15 13 8 145 -147 201 -235 48 -75 98 -260 99 -365 1 -31 3 -36
11 -23 11 20 -5 177 -27 252 -38 132 -155 307 -251 376 -12 9 -25 29 -29 45
-6 27 -6 29 9 17 13 -11 15 -10 10 7 -7 29 3 63 27 89 32 34 79 189 77 255 -1
45 4 62 27 96 30 43 55 53 57 24 1 -18 1 -105 0 -131 -1 -7 -5 -11 -10 -8 -5
3 -11 -4 -15 -17 -8 -32 -7 -47 4 -47 6 0 10 11 10 25 0 16 4 23 13 19 9 -3
23 19 42 68 16 40 32 78 36 83 4 6 12 36 19 67 12 60 29 86 31 46 1 -20 2 -20
9 6 16 53 -29 149 -103 219 -27 26 -147 67 -195 67 -8 0 -40 9 -71 20 l-56 21
0 107 c0 148 -18 189 -144 335 -29 34 -62 80 -73 101 -11 22 -37 57 -58 77
-27 27 -36 44 -33 61 3 16 -6 33 -30 59 -45 48 -79 120 -75 161 3 32 4 32 35
-32 48 -99 214 -271 261 -270 14 1 13 3 -3 12 -11 6 -44 34 -73 62 -134 128
-251 376 -253 535 l-1 76 -13 -40 c-8 -24 -13 -32 -14 -20 -1 11 -10 34 -21
50 -23 35 -27 21 -5 -21 8 -17 17 -47 20 -67 5 -31 4 -36 -10 -31 -13 5 -14 2
-5 -21 13 -33 6 -43 -15 -25 -13 11 -14 10 -9 -6 12 -33 15 -35 30 -23 15 13
26 -7 50 -95 19 -72 7 -84 -41 -40 -17 15 -28 38 -30 57 -2 18 -3 35 -4 39 -1
4 -7 5 -15 2 -18 -7 -38 28 -30 50 4 11 1 16 -10 16 -9 0 -16 3 -16 8 0 4 -12
21 -27 38 -39 43 -73 91 -73 103 0 5 -8 16 -17 23 -10 7 -25 25 -33 40 -8 14
-36 63 -62 108 -27 45 -48 87 -48 94 0 6 -10 20 -21 30 -15 12 -18 21 -11 28
18 18 0 45 -110 155 -18 18 -29 35 -25 39 14 15 92 -34 106 -67 10 -23 16 -28
22 -18 7 11 22 -1 63 -45 30 -33 52 -65 49 -73 -3 -7 0 -13 5 -13 13 0 95
-103 121 -151 10 -19 41 -77 68 -129 28 -52 54 -93 59 -90 13 7 6 41 -11 60
-8 9 -15 24 -15 33 0 9 -4 19 -10 22 -5 3 -19 25 -30 48 -11 23 -29 58 -41 77
-12 19 -30 50 -40 69 -10 18 -29 45 -42 60 -13 15 -27 41 -31 57 l-8 29 28
-25 c25 -22 25 -21 -4 15 -18 22 -60 73 -92 113 -69 85 -86 112 -69 112 21 0
76 -31 100 -56 27 -29 43 -31 34 -4 -8 25 -9 26 70 -10 122 -55 186 -123 211
-225 10 -42 12 -45 13 -18 1 41 -33 120 -67 156 -45 48 -110 88 -210 129 -52
21 -106 48 -119 61 -14 12 -34 30 -45 41 -11 10 -43 34 -72 55 -51 36 -126
111 -126 127 0 4 7 -1 16 -12 8 -10 12 -12 8 -4 -4 8 -13 22 -21 31 -11 13
-11 17 -1 21 28 11 98 -6 98 -24 0 -7 4 -7 13 0 10 8 62 6 193 -10 98 -11 187
-21 197 -21 9 -1 17 -4 17 -7 0 -3 17 -6 38 -6 41 0 60 -3 347 -45 110 -16
262 -36 338 -45 130 -14 291 -35 537 -70 92 -13 186 -25 285 -38 30 -4 240
-32 455 -61 63 -9 160 -23 215 -32 55 -9 132 -19 170 -24 39 -5 162 -25 275
-44 113 -20 247 -43 299 -51 52 -7 142 -23 200 -34 58 -11 131 -22 161 -25 30
-4 69 -10 85 -15 17 -5 59 -12 95 -15 36 -3 92 -10 125 -15 33 -6 96 -15 140
-20 44 -6 105 -15 135 -21 58 -10 239 -37 303 -44 20 -3 45 -8 55 -13 9 -5 33
-9 52 -11 19 -1 62 -6 95 -12 33 -6 83 -13 110 -15 28 -3 82 -12 120 -20 39
-9 111 -19 160 -24 109 -10 340 -38 375 -45 14 -3 50 -7 80 -10 30 -2 100 -11
155 -20 55 -8 106 -15 113 -15 8 0 12 20 12 65 l0 65 -37 1 c-21 0 -51 3 -68
5 -16 3 -64 7 -105 9 -132 6 -160 13 -160 41 0 12 -4 12 -26 -3 -19 -12 -30
-14 -43 -6 -9 6 -39 11 -66 12 -28 1 -61 3 -75 6 -14 2 -45 7 -70 11 -25 4
-49 13 -53 20 -9 15 -47 19 -47 5 0 -20 -75 -21 -112 -1 -24 12 -40 16 -44 9
-4 -6 -14 -5 -29 5 -17 11 -25 12 -34 3 -9 -9 -16 -9 -31 1 -11 6 -30 12 -42
12 -13 0 -34 6 -48 13 -41 21 -90 29 -96 14 -5 -15 -71 -14 -87 2 -6 6 -24 11
-40 11 -20 0 -30 6 -34 20 -6 22 -38 27 -47 8 -3 -9 -8 -8 -16 5 -6 9 -18 17
-27 17 -14 0 -14 -2 2 -20 18 -20 11 -25 -19 -14 -9 3 -16 12 -16 20 0 17 -28
33 -50 27 -10 -3 -21 0 -24 6 -12 19 -25 12 -28 -16 -2 -16 -7 -27 -13 -25 -5
2 -9 12 -8 23 3 23 -25 26 -33 4 -9 -22 -30 -18 -51 9 -22 28 -55 40 -84 31
-17 -6 -18 -9 -7 -22 11 -14 10 -15 -10 -9 -13 5 -29 3 -37 -4 -10 -8 -19 -8
-34 -1 -11 6 -29 11 -40 11 -12 0 -21 7 -21 15 0 8 6 15 12 15 7 0 4 6 -7 14
-22 15 -102 18 -111 5 -3 -5 0 -9 5 -9 16 0 13 -17 -3 -23 -19 -8 -62 23 -46
33 20 13 1 31 -26 24 -15 -4 -24 -2 -24 6 0 6 -6 10 -12 7 -7 -2 -13 -15 -13
-28 0 -32 -27 -32 -35 0 -4 18 -13 25 -33 25 -19 1 -26 -2 -23 -11 9 -23 -100
-21 -123 2 -10 10 -18 11 -32 2 -13 -8 -21 -8 -34 3 -13 10 -13 15 -3 21 10 7
9 9 -4 9 -10 0 -18 -7 -18 -15 0 -22 -18 -18 -31 6 -9 17 -13 19 -19 8 -5 -7
-27 -14 -49 -16 -32 -2 -43 2 -55 19 -9 12 -19 19 -22 15 -4 -4 -16 1 -27 10
-11 10 -17 13 -14 7 4 -7 0 -17 -8 -24 -12 -10 -16 -9 -21 4 -8 20 -73 33 -84
16 -5 -8 -9 -8 -13 4 -7 17 -37 22 -37 6 0 -5 -4 -10 -10 -10 -5 0 -10 9 -10
21 0 11 -4 18 -10 14 -5 -3 -7 -12 -4 -19 8 -20 -57 -28 -78 -9 -9 8 -22 12
-28 8 -6 -4 -16 -2 -23 3 -7 5 -21 12 -32 15 -15 4 -13 5 8 6 15 0 27 5 27 9
0 4 -12 8 -27 9 -16 1 -56 5 -91 10 -35 5 -65 6 -68 1 -3 -4 0 -8 6 -8 6 0 9
-4 5 -9 -6 -11 -103 -5 -119 7 -6 5 -30 9 -53 10 -39 1 -98 21 -65 22 17 0 5
20 -12 20 -8 0 -13 -7 -12 -16 0 -9 -5 -19 -11 -21 -8 -3 -13 4 -13 18 l0 23
-15 -21 c-14 -19 -19 -21 -48 -11 -17 6 -40 19 -50 29 -20 21 -63 25 -69 7 -6
-18 -78 -10 -100 9 -16 15 -18 15 -18 -1 0 -10 -5 -14 -11 -11 -6 4 -8 13 -5
21 4 11 -5 14 -37 14 -24 0 -48 -5 -54 -11 -7 -7 -20 -4 -44 9 -19 11 -47 23
-62 26 -24 6 -30 3 -34 -14 -5 -19 -11 -21 -42 -15 -40 8 -52 16 -33 22 6 3
10 9 6 14 -7 12 -134 12 -134 -1 0 -14 -16 -12 -33 4 -7 8 -31 19 -53 25 -35
10 -41 9 -52 -8 -14 -21 -42 -18 -42 3 0 27 -91 49 -105 26 -3 -5 1 -10 9 -10
9 0 16 -3 16 -7 0 -9 -42 -9 -80 0 -14 3 -38 9 -54 12 -23 5 -26 9 -16 15 18
11 12 17 -20 20 -44 4 -61 0 -54 -11 4 -7 -2 -9 -17 -7 -13 2 -23 9 -21 16 3
16 -8 15 -28 -3 -14 -13 -24 -13 -68 -3 -29 7 -52 18 -52 24 0 8 -11 11 -30 8
-16 -3 -38 0 -49 5 -14 8 -27 7 -47 -4 -19 -9 -33 -11 -45 -4 -10 5 -31 9 -47
9 -16 0 -44 3 -61 6 -27 6 -30 10 -24 32 4 17 2 23 -6 18 -6 -4 -11 -15 -11
-25 0 -10 -8 -18 -17 -18 -20 -1 -193 24 -233 34 -23 5 -71 11 -112 12 -14 1
-18 10 -18 36 0 19 -4 35 -10 35 -5 0 -10 -14 -10 -31 0 -26 -3 -29 -14 -20
-8 7 -17 23 -20 36 -8 32 -26 32 -26 2 0 -13 -2 -26 -5 -29 -11 -10 -54 17
-59 37 -5 17 -8 17 -15 5 -5 -8 -7 -18 -5 -22 12 -20 -45 -6 -59 15 l-16 22
-7 -22 c-7 -26 -27 -30 -46 -10 -6 8 -22 12 -34 9 -20 -3 -24 1 -29 34 -12 69
-14 68 -19 -16 -1 -19 -43 -22 -50 -4 -4 10 -12 11 -36 3 -17 -6 -40 -9 -53
-5 -26 6 -96 56 -79 56 7 0 12 5 12 10 0 6 -6 10 -14 10 -17 0 -48 39 -40 52
3 4 -1 8 -9 8 -16 0 -57 41 -57 57 0 6 -6 13 -14 16 -9 4 -12 14 -9 26 5 20
-12 31 -19 11 -6 -17 -144 60 -200 113 -10 9 -22 17 -27 17 -6 0 -13 4 -16 10
-4 6 1 7 11 3 12 -4 15 -3 10 5 -4 7 -14 12 -22 12 -8 0 -13 4 -10 9 10 16 -5
41 -24 41 -11 0 -21 4 -24 9 -7 10 -135 51 -161 51 -11 0 -15 5 -11 16 3 8 2
13 -2 10 -10 -6 -126 19 -187 40 -34 13 -44 20 -31 22 21 4 -98 50 -146 57
-15 2 -51 8 -80 14 -29 6 -62 10 -73 10 -11 -1 -43 4 -71 9 -58 12 -297 18
-313 8 -6 -4 -32 -6 -58 -6 -61 2 -215 -9 -221 -15 -3 -3 -12 0 -19 7 -11 9
-16 9 -22 0 -3 -6 -27 -14 -51 -17 -49 -7 -147 -36 -223 -67 -29 -12 -59 -17
-76 -13 -23 5 -31 0 -56 -35 -17 -22 -38 -42 -47 -45 -10 -4 -24 -12 -32 -20
-7 -7 -35 -25 -62 -38 -27 -14 -86 -44 -132 -67 -83 -43 -110 -47 -77 -10 10
11 16 22 13 25 -3 3 -13 -4 -23 -15 -10 -11 -23 -20 -30 -20 -6 0 -17 -11 -23
-25 -8 -17 -20 -25 -37 -25 -15 0 -36 -5 -47 -11 -12 -7 -47 -17 -77 -25 -31
-7 -69 -19 -85 -28 -16 -8 -34 -12 -40 -10 -7 3 -39 -3 -72 -12 -32 -8 -72
-19 -89 -24 -49 -13 -125 -50 -125 -61 0 -13 -26 -39 -39 -39 -18 0 -101 -91
-152 -168 -28 -41 -59 -84 -70 -95 -36 -39 -70 -123 -85 -208 -8 -46 -26 -110
-40 -142 -14 -31 -29 -79 -33 -105 -10 -58 -27 -102 -40 -102 -12 0 -41 -92
-41 -127 0 -20 -5 -23 -39 -23 -22 0 -43 5 -47 11 -4 7 -9 43 -12 80 -4 59 -2
69 12 69 9 0 16 5 16 10 0 6 -6 10 -14 10 -15 0 -26 21 -26 47 0 9 22 40 50
69 60 64 130 206 130 266 0 11 6 34 14 51 40 91 55 137 61 182 5 44 16 86 57
227 18 60 3 243 -41 498 -20 120 -20 192 1 217 7 8 13 20 14 27 1 6 7 31 12
56 6 25 13 81 17 125 4 44 8 97 10 118 2 21 10 46 19 55 8 10 19 54 25 102 14
105 14 100 -3 100 -7 0 -19 7 -26 15 -10 12 -8 17 14 26 14 7 30 25 35 43 13
39 25 136 17 136 -3 0 -15 -18 -27 -41 -17 -34 -25 -40 -44 -36 -21 3 -23 1
-15 -14 14 -25 12 -39 -4 -39 -16 0 -86 134 -86 163 0 33 19 16 44 -39 l25
-55 31 22 c35 26 38 47 10 80 l-19 24 -1 -22 c0 -30 -17 -38 -30 -13 -9 17 -6
24 17 45 l28 25 23 -26 22 -25 0 24 c0 16 7 26 20 30 26 7 26 44 1 75 -23 26
-31 28 -31 5 0 -15 -2 -14 -15 3 -14 18 -15 18 -40 -11 -23 -26 -25 -27 -20
-7 10 35 -21 28 -33 -8 -11 -30 -27 -32 -59 -7 -7 5 -19 7 -26 4 -20 -8 -50
-75 -44 -99 5 -19 5 -19 -14 -2 -10 9 -19 23 -19 31 0 8 -10 28 -22 46 -31 43
-151 201 -157 207 -3 3 -19 20 -36 38 -27 30 -28 34 -12 43 16 10 23 40 11 52
-12 12 -32 -5 -29 -24 6 -31 -13 -32 -65 -5 -54 28 -64 31 -55 16 3 -6 -1 -7
-10 -3 -12 4 -13 8 -5 13 9 6 9 10 -3 16 -8 5 -33 24 -56 43 l-41 33 25 30
c14 16 25 36 25 43 0 8 6 12 14 9 8 -3 16 3 19 15 6 24 -11 40 -23 21 -4 -7
-13 -9 -19 -6 -6 4 -20 -3 -31 -16 l-20 -23 6 43 c6 40 6 42 -20 42 -24 0 -26
-3 -21 -32 3 -17 8 -35 11 -40 3 -5 3 -25 0 -44 -5 -25 -12 -34 -26 -34 -11 0
-20 5 -20 10 0 6 -11 16 -25 22 -30 13 -33 44 -5 53 14 4 20 15 20 36 0 28 -2
29 -44 29 l-45 0 -6 -47 c-11 -81 -16 -103 -26 -103 -16 0 -89 40 -88 48 1 4
0 10 -1 15 -1 4 -3 15 -4 25 -6 56 -14 62 -85 62 l-68 0 5 -30 c3 -19 0 -30
-8 -30 -7 0 -10 -7 -6 -15 6 -17 -9 -21 -19 -5 -3 6 -17 10 -29 10 -26 0 -51
24 -42 38 19 31 -26 33 -630 30 -603 -3 -609 -3 -649 -25 -49 -26 -115 -94
-145 -149 -19 -36 -29 -43 -91 -63 -38 -12 -74 -19 -80 -15 -9 5 -10 42 -5
130 l6 124 -35 0 -36 0 2 -152z m263 -1860 c5 -10 7 -10 12 0 3 6 10 12 16 12
12 0 43 -30 44 -44 1 -6 2 -15 3 -21 1 -5 5 -4 9 3 7 9 15 6 36 -13 28 -26 42
-33 31 -15 -3 6 -1 10 5 10 7 0 9 -8 5 -19 -3 -11 -1 -22 5 -26 10 -6 14 7 11
34 -2 7 4 11 11 8 7 -2 12 -12 12 -21 -2 -15 26 -23 38 -10 15 14 -6 44 -31
45 -26 0 -26 0 -4 11 26 12 55 -4 47 -26 -3 -8 4 -16 16 -19 13 -3 19 -10 15
-16 -3 -6 -11 -9 -16 -6 -5 4 -9 1 -9 -4 0 -6 11 -11 24 -11 30 0 43 -17 19
-23 -13 -3 -8 -7 15 -12 35 -8 39 -16 17 -35 -10 -9 -15 -9 -15 -1 0 6 -4 11
-10 11 -5 0 -10 -9 -10 -20 0 -20 -5 -21 -75 -24 -11 0 -25 -7 -31 -15 -6 -8
-16 -11 -22 -7 -6 3 -13 2 -17 -4 -12 -19 -45 -11 -45 11 0 11 -5 17 -10 14
-6 -4 -8 -10 -5 -15 3 -4 -2 -13 -10 -20 -12 -10 -15 -10 -16 1 0 10 -2 11 -6
1 -2 -6 -8 -10 -13 -7 -5 3 -20 1 -33 -4 -15 -6 -37 -6 -54 -1 -15 4 -23 9
-16 9 7 1 10 8 7 16 -5 12 -9 10 -24 -7 -16 -21 -20 -21 -44 -9 -14 8 -29 11
-33 8 -3 -4 1 -7 11 -7 10 0 14 -5 10 -12 -5 -7 -2 -8 7 -3 8 5 11 5 7 0 -4
-4 -2 -15 5 -24 11 -14 10 -14 -5 -2 -10 7 -24 11 -31 8 -7 -3 -18 3 -24 13
-15 22 -57 35 -49 14 4 -10 -2 -14 -18 -14 -14 0 -26 6 -29 13 -2 6 -8 0 -12
-15 -7 -27 -25 -39 -25 -17 0 5 -4 7 -10 4 -5 -3 -10 -1 -10 4 0 6 -10 11 -22
11 -12 0 -18 -3 -15 -6 3 -4 -4 -14 -16 -24 -28 -21 -86 -24 -108 -4 -15 13
-18 13 -32 0 -20 -21 -64 -17 -70 6 -3 9 1 22 8 28 8 6 11 18 9 25 -13 34 42
57 191 80 35 6 38 8 22 20 -15 11 -16 13 -2 19 8 3 15 9 14 13 -4 21 3 32 21
38 25 8 61 45 55 56 -3 4 5 10 17 14 13 3 34 11 47 18 19 10 25 8 37 -8 8 -10
14 -13 14 -6 0 8 12 11 38 9 24 -2 37 -8 37 -17 0 -26 24 -23 31 4 4 17 11 24
21 21 8 -3 11 -1 8 4 -3 6 -2 10 4 10 5 0 12 -6 15 -12z m105 -818 c4 0 8 -6
8 -12 3 -36 14 -108 23 -143 5 -22 10 -67 10 -100 0 -74 9 -112 21 -93 5 7 6
-13 3 -47 -3 -33 -8 -62 -9 -64 -2 -2 5 -25 16 -52 10 -28 19 -52 19 -55 0 -2
-16 -3 -35 -1 -20 3 -43 -2 -52 -9 -26 -19 -71 -17 -82 4 -6 12 -5 41 4 87 7
39 10 74 7 79 -3 5 1 6 8 1 10 -6 12 -4 7 9 -4 10 -7 23 -7 30 0 24 -48 37
-90 25 -22 -7 -38 -15 -36 -18 2 -3 -12 -6 -32 -6 -21 1 -40 -4 -44 -10 -4 -5
-19 -10 -33 -10 -22 -1 -24 1 -12 10 9 6 12 16 8 24 -6 10 -13 10 -35 0 -23
-11 -29 -10 -36 1 -7 12 -11 12 -26 -1 -13 -11 -18 -11 -21 -1 -3 6 -9 10 -14
6 -15 -9 -22 25 -9 41 16 19 4 35 -25 35 -46 0 -74 82 -40 116 13 13 12 17 -3
33 -9 9 -24 16 -32 14 -9 -3 -7 0 4 7 25 16 71 -3 62 -26 -5 -13 -2 -15 14
-11 11 3 20 1 20 -5 0 -5 8 -7 18 -4 21 7 61 -23 55 -40 -5 -14 43 -28 60 -17
7 4 44 8 82 9 39 1 80 4 93 7 17 5 25 0 37 -24 9 -16 17 -29 20 -29 14 0 31
64 29 113 -2 64 7 78 30 45 16 -22 16 -22 16 -1 0 12 -8 23 -20 26 -15 4 -20
14 -20 39 0 40 23 72 28 39 2 -12 7 -21 11 -21z m-1467 -34 c68 -30 120 -84
159 -162 43 -87 51 -220 20 -321 -23 -77 -78 -147 -138 -177 -47 -23 -159 -24
-207 -1 -188 90 -264 385 -145 564 47 71 51 74 114 100 68 27 130 26 197 -3z
m5090 -706 c9 -17 23 -30 31 -30 8 0 20 -7 27 -15 7 -9 20 -13 27 -10 8 2 23
0 33 -5 16 -8 18 -8 14 5 -4 9 1 17 10 21 23 9 34 -5 16 -17 -11 -8 -3 -9 28
-6 23 3 42 2 42 -2 0 -14 -23 -29 -35 -24 -10 3 -13 -5 -12 -29 2 -27 6 -33
27 -36 58 -6 72 -12 61 -26 -16 -19 10 -38 46 -35 15 2 33 1 38 -2 9 -5 41
-15 140 -42 22 -6 47 -16 55 -22 8 -6 30 -18 48 -25 18 -7 51 -26 72 -41 22
-16 42 -29 45 -29 3 0 33 -21 68 -46 34 -25 52 -43 40 -39 -13 3 -23 2 -23 -3
0 -6 11 -13 24 -16 13 -3 26 -15 29 -26 3 -11 12 -20 21 -20 9 0 16 -5 16 -11
0 -5 4 -7 10 -4 14 9 40 -8 53 -35 7 -12 17 -23 22 -22 15 1 36 -20 46 -45 5
-14 17 -23 29 -23 16 0 20 -7 20 -30 0 -19 5 -30 13 -29 25 3 37 -1 37 -13 1
-16 35 -58 47 -58 14 0 45 -63 34 -69 -6 -4 -6 -12 -1 -21 7 -12 10 -11 16 5
13 32 45 59 54 45 4 -7 12 -10 18 -6 6 3 22 2 37 -4 20 -8 26 -15 22 -30 -3
-11 -1 -20 4 -20 5 0 9 -5 9 -11 0 -5 -4 -7 -10 -4 -5 3 -10 2 -10 -3 0 -6 12
-13 26 -16 20 -5 24 -11 19 -29 -5 -19 -5 -20 5 -4 6 9 17 17 23 17 17 0 52
-42 49 -58 -2 -7 8 -22 22 -33 14 -11 26 -27 26 -35 0 -8 4 -14 10 -14 5 0 7
-7 4 -15 -4 -8 1 -26 9 -39 14 -21 14 -26 1 -45 -13 -18 -13 -24 -1 -41 8 -11
17 -17 21 -12 5 4 6 -2 4 -12 -1 -10 3 -21 11 -24 8 -3 11 0 7 7 -4 6 0 11 10
11 16 0 16 -1 -1 -20 -10 -11 -15 -20 -10 -20 4 0 2 -6 -4 -13 -6 -8 -8 -17
-4 -20 3 -4 1 -7 -5 -7 -7 0 -12 -15 -12 -36 0 -21 -4 -33 -10 -29 -5 3 -10 0
-10 -7 0 -10 -2 -11 -8 0 -12 18 -45 4 -37 -17 5 -13 4 -14 -6 -3 -7 6 -16 12
-19 12 -11 0 -9 -134 2 -157 6 -12 7 -30 3 -40 -14 -35 -13 -94 2 -100 11 -4
10 -8 -6 -19 -22 -16 -20 -53 6 -93 17 -26 27 -124 12 -115 -12 7 -11 1 4 -30
8 -14 17 -23 20 -19 4 3 5 -8 3 -25 -2 -17 0 -33 4 -34 12 -5 17 -147 5 -145
-5 1 -9 -6 -7 -17 2 -12 -1 -16 -9 -10 -9 5 -10 2 -6 -10 4 -10 7 -24 7 -32 0
-8 6 -14 13 -14 6 0 12 -11 12 -24 0 -13 -5 -22 -11 -19 -6 2 -19 -3 -28 -12
-12 -12 -13 -21 -6 -35 14 -27 12 -40 -6 -40 -8 0 -12 -4 -9 -10 3 -5 1 -10
-4 -10 -6 0 -11 -7 -11 -15 0 -14 -12 -20 -34 -16 -5 1 -6 -12 -3 -29 5 -22 3
-30 -8 -30 -9 0 -15 -10 -15 -25 0 -14 -6 -28 -14 -31 -8 -3 -12 -12 -9 -20 7
-19 -25 -67 -39 -58 -8 5 -9 1 -5 -11 6 -14 3 -16 -13 -12 -11 3 -18 1 -15 -4
10 -15 -28 -61 -62 -76 -31 -12 -38 -36 -10 -32 28 3 37 -2 37 -22 0 -11 -4
-17 -10 -14 -6 4 -18 1 -27 -7 -14 -11 -16 -11 -9 0 7 11 4 12 -13 3 -11 -7
-21 -20 -21 -30 0 -10 -3 -21 -7 -25 -4 -3 -8 -15 -10 -26 -1 -11 -4 -25 -5
-32 -2 -8 5 -12 17 -10 16 2 15 -1 -8 -16 -15 -10 -24 -21 -21 -25 4 -3 3 -14
-2 -24 -4 -10 -8 -26 -9 -36 -4 -32 -39 -101 -67 -131 -15 -16 -25 -33 -22
-38 3 -5 -3 -12 -15 -15 -12 -3 -21 -9 -21 -14 0 -5 -7 -9 -15 -9 -9 0 -18 -6
-21 -14 -3 -8 -19 -18 -36 -21 -21 -5 -28 -11 -23 -22 3 -10 -3 -22 -15 -30
-13 -9 -19 -21 -16 -30 4 -9 -1 -17 -14 -20 -12 -3 -28 -19 -36 -35 -8 -16
-19 -26 -24 -23 -5 3 -17 -6 -26 -20 -9 -14 -22 -25 -29 -25 -6 0 -20 -9 -30
-20 -10 -11 -26 -20 -37 -20 -10 0 -18 -4 -18 -9 0 -5 -10 -12 -22 -16 -28 -8
-64 -23 -101 -42 -15 -8 -34 -12 -42 -9 -7 2 -15 1 -17 -5 -2 -5 -44 -11 -93
-13 -72 -4 -103 0 -150 16 -33 11 -61 24 -63 29 -2 5 -10 9 -18 9 -7 0 -30 24
-51 53 -40 54 -60 95 -138 282 -26 61 -55 124 -66 140 -10 17 -29 49 -41 73
-12 23 -26 42 -30 42 -4 0 -8 4 -8 10 0 5 -10 20 -22 33 -13 13 -45 54 -73 91
-27 36 -63 82 -78 101 -15 18 -30 43 -32 54 -3 18 -1 19 21 9 13 -6 24 -14 24
-17 0 -8 110 -128 110 -120 0 4 -27 42 -60 85 -33 43 -60 82 -60 86 0 23 52
-8 110 -64 15 -16 35 -28 45 -28 9 0 14 -4 10 -9 -6 -11 14 -49 98 -185 62
-99 122 -162 164 -172 13 -4 21 -9 18 -14 -2 -4 7 -12 20 -18 18 -8 25 -8 25
-1 0 7 7 8 18 4 9 -4 22 -7 27 -6 79 7 100 11 103 20 2 6 12 11 22 11 24 0 43
25 36 48 -5 15 1 22 23 32 17 6 44 30 62 51 17 21 36 39 42 39 19 0 79 52 70
61 -12 12 -70 -17 -82 -40 -6 -10 -28 -23 -50 -31 -23 -7 -41 -17 -41 -22 0
-5 -11 -8 -24 -6 -13 1 -34 -2 -47 -9 -13 -6 -36 -14 -51 -17 -15 -3 -33 -13
-42 -21 -8 -8 -25 -15 -38 -15 -41 1 -162 35 -189 53 -14 9 -47 57 -72 106
-26 49 -54 92 -63 95 -13 5 -14 9 -4 21 19 23 38 18 78 -20 20 -20 49 -47 63
-60 23 -22 69 -35 69 -20 0 4 -15 22 -34 41 -19 20 -39 49 -45 66 l-10 29 32
-7 c64 -16 164 -2 231 30 29 14 64 26 78 26 14 0 33 9 44 21 15 16 27 20 56
16 31 -4 41 0 69 29 41 42 79 45 108 8 l21 -27 0 26 c0 47 17 77 44 77 27 0
46 -25 46 -58 0 -24 -57 -75 -75 -68 -8 3 -15 -6 -18 -20 -6 -34 9 -40 28 -10
9 13 27 27 41 30 14 4 23 10 20 15 -7 11 32 51 50 51 8 0 17 13 20 30 4 16 11
27 16 24 5 -3 33 18 61 48 84 85 106 101 123 87 8 -6 14 -19 14 -28 0 -9 5
-23 10 -31 7 -10 8 5 6 47 -2 34 -2 64 1 67 3 2 25 -6 49 -20 l44 -25 -2 26
c-2 16 -6 21 -12 15 -17 -17 -26 -11 -26 15 0 14 12 35 27 50 l28 25 -33 0
c-19 0 -32 5 -32 13 0 8 -4 7 -10 -3 -6 -10 -10 -11 -10 -2 0 6 -10 12 -23 12
-13 0 -27 3 -31 7 -3 4 -17 8 -29 10 -62 8 -87 15 -87 24 0 5 -6 9 -12 8 -28
-3 -49 1 -44 10 4 5 -2 8 -11 6 -10 -1 -26 4 -36 13 -9 8 -20 13 -23 10 -11
-12 -231 78 -264 107 -8 8 -19 13 -23 13 -4 0 -28 7 -53 17 -24 9 -51 14 -60
11 -13 -5 -13 -9 2 -31 10 -15 12 -25 5 -25 -6 0 -11 -7 -11 -17 0 -9 -3 -13
-6 -10 -13 12 -64 -27 -64 -49 0 -29 -27 -51 -91 -73 -72 -24 -129 -54 -192
-99 -58 -42 -143 -122 -130 -123 4 0 0 -4 -11 -8 -10 -4 -50 -3 -90 1 -62 8
-75 13 -105 42 -18 19 -41 57 -51 86 l-18 53 -15 -24 c-9 -13 -32 -33 -52 -43
-19 -11 -36 -23 -36 -28 -1 -4 -2 -12 -3 -17 -2 -15 -16 -26 -16 -13 0 7 -7
12 -16 12 -8 0 -12 -4 -9 -10 11 -18 -44 -23 -70 -6 -13 9 -38 16 -55 16 -28
0 -34 5 -55 54 -34 76 -42 115 -60 261 -17 149 -21 485 -5 485 6 0 8 -15 4
-40 -7 -44 1 -53 16 -17 8 20 9 18 9 -12 1 -34 1 -34 22 -15 21 19 21 19 43
-9 11 -16 38 -47 58 -70 34 -37 42 -41 86 -41 33 0 63 9 99 28 63 34 123 88
123 109 0 14 -4 15 -40 2 -41 -14 -52 -8 -25 15 18 15 20 37 3 43 -7 2 -4 3 7
1 37 -6 65 7 65 31 0 64 -76 211 -137 266 -40 35 -49 40 -91 45 -20 3 -64 15
-97 28 -62 25 -114 36 -251 56 -45 7 -86 15 -93 19 -17 11 -39 101 -46 186 -3
39 -21 126 -41 195 -52 185 -55 200 -59 255 -1 28 4 73 11 100 7 28 13 64 12
80 -1 29 17 71 46 108 11 14 25 17 65 14 28 -2 54 -7 58 -11 15 -15 41 -4 47
20 6 22 11 25 31 20 25 -6 34 7 14 20 -8 5 -6 10 5 16 11 6 22 6 32 -2 7 -7
14 -9 14 -4 1 29 20 -28 20 -58 0 -44 17 -59 26 -23 6 25 24 35 24 14 0 -8 4
-8 13 -1 7 6 26 10 42 8 24 -3 31 1 35 18 4 13 15 22 30 24 14 2 32 10 42 19
15 13 17 11 23 -16 8 -38 20 -38 65 -1 39 34 36 37 -15 13 -19 -9 -37 -14 -40
-11 -3 3 4 23 17 44 21 35 23 37 26 17 4 -24 26 -31 37 -12 4 6 13 8 21 5 8
-3 37 7 66 22 29 15 60 28 68 29 8 1 44 9 80 17 36 9 80 13 98 9 33 -5 72 8
100 35 22 20 46 14 64 -18z m-9592 -225 c7 -9 29 -15 55 -15 23 0 47 -6 53
-12 15 -19 37 -307 24 -320 -14 -14 -312 1 -318 16 -2 6 -8 57 -14 114 -5 56
-12 121 -15 145 -3 23 -2 36 1 30 10 -22 37 -14 83 22 48 39 108 48 131 20z
m12904 -361 c3 -9 4 -20 1 -24 -3 -5 -1 -11 5 -15 5 -3 10 1 10 10 0 13 8 11
46 -10 25 -14 50 -30 57 -35 59 -48 77 -61 77 -55 0 21 89 -91 98 -124 17 -54
16 -140 -2 -147 -25 -9 -120 62 -189 142 -37 43 -67 83 -67 90 0 10 -15 44
-51 116 -12 23 -12 68 0 68 5 0 12 -7 15 -16z m-12520 -156 c-3 -38 -233 -284
-273 -292 -14 -3 -95 -8 -178 -11 -135 -6 -154 -5 -159 9 -7 19 15 240 28 274
5 16 14 22 26 18 9 -2 107 1 217 7 286 17 340 16 339 -5z m4346 -450 c0 -44
-30 -65 -104 -73 -36 -4 -66 -11 -66 -15 0 -4 -28 -8 -62 -8 -72 0 -90 -3
-100 -17 -5 -6 -8 -5 -8 3 0 6 -5 12 -11 12 -5 0 -8 -4 -4 -9 9 -15 -60 -24
-83 -12 -12 6 -39 11 -62 11 -23 0 -50 5 -61 11 -15 8 -24 7 -35 -2 -11 -9
-18 -8 -34 6 -23 21 -104 32 -114 16 -10 -15 -47 -14 -90 4 -20 8 -39 15 -43
14 -4 0 -9 3 -10 8 -2 5 38 10 89 11 51 1 131 3 178 4 47 1 112 0 145 -3 33
-4 66 -4 73 -2 18 7 15 23 -5 23 -17 1 -17 1 0 11 10 6 51 13 91 15 62 4 74 2
80 -11 5 -14 -1 -16 -37 -14 -23 1 -55 -2 -72 -7 l-30 -8 25 -7 c32 -9 183
-11 233 -3 58 10 46 29 -17 27 -30 -2 -58 2 -61 7 -4 6 9 25 28 44 l35 34 66
-22 c60 -19 66 -23 66 -48z m3420 -39 c0 -40 -7 -48 -28 -27 -11 11 -11 9 17
-96 6 -25 7 -45 1 -57 -6 -10 -10 -28 -10 -41 -1 -26 -22 -58 -39 -58 -6 0
-11 -10 -11 -23 0 -13 -5 -28 -12 -35 -7 -7 -8 -12 -3 -12 5 0 0 -7 -11 -15
-18 -13 -18 -14 6 -8 23 6 24 5 11 -11 -8 -9 -21 -14 -30 -11 -8 3 -12 3 -8
-1 4 -4 -1 -13 -11 -20 -12 -9 -13 -13 -4 -14 9 0 5 -11 -11 -30 -14 -16 -28
-39 -32 -50 -3 -11 -13 -20 -21 -20 -11 0 -12 4 -4 19 14 27 13 31 -7 24 -11
-4 -14 -3 -9 5 4 7 3 12 -2 12 -24 0 -46 -129 -28 -158 3 -6 2 -13 -4 -17 -18
-11 -11 -47 15 -70 20 -19 23 -29 18 -59 -6 -38 9 -49 26 -19 7 13 9 9 9 -20
l0 -36 -51 38 c-57 42 -128 81 -150 81 -7 0 -26 -27 -42 -60 -28 -58 -29 -59
-73 -62 -43 -3 -74 -28 -35 -28 34 0 57 -24 50 -52 -8 -32 -75 -98 -100 -98
-10 0 -15 -4 -12 -10 3 -5 -1 -10 -9 -10 -9 0 -16 -4 -16 -10 0 -5 -22 -17
-49 -27 -44 -15 -50 -21 -55 -52 -3 -20 -6 -48 -6 -62 0 -28 -24 -49 -69 -64
-13 -4 -45 -22 -70 -40 -25 -18 -59 -39 -76 -48 -47 -24 -94 -76 -107 -118 -6
-22 -9 -42 -6 -45 9 -8 87 17 99 33 6 7 22 13 36 13 14 0 21 4 18 10 -3 6 0
11 7 11 39 4 56 8 83 19 17 7 33 13 38 12 4 -1 7 2 7 7 0 4 18 6 39 4 22 -2
42 1 46 6 3 6 0 8 -8 5 -8 -3 -18 -1 -21 5 -4 5 4 13 16 17 37 13 51 13 69 4
13 -7 21 -4 33 13 l17 22 -6 -25 c-4 -14 -9 -45 -11 -70 -3 -25 -16 -92 -29
-150 -13 -58 -28 -130 -34 -160 -5 -30 -17 -89 -25 -130 -9 -41 -16 -93 -15
-115 1 -128 -11 -707 -15 -714 -3 -4 -10 -59 -16 -121 -6 -62 -16 -122 -22
-134 -15 -27 -16 -102 -6 -351 10 -249 16 -348 24 -401 3 -25 2 -44 -5 -48
-19 -12 -58 5 -69 30 -7 13 -17 21 -25 19 -8 -4 -13 2 -13 14 0 15 3 17 13 9
8 -6 17 -8 20 -4 4 4 2 11 -5 15 -7 4 -12 14 -10 22 2 8 -5 14 -17 15 -41 1
-65 16 -87 55 -12 21 -25 39 -29 39 -4 0 -12 12 -18 28 -6 15 -27 53 -45 84
-19 32 -38 68 -41 80 -4 13 -28 66 -53 118 -24 52 -60 135 -78 184 -18 48 -45
106 -60 128 -29 42 -98 88 -131 88 -19 0 -73 66 -73 88 0 4 -5 13 -12 20 -6 6
-13 17 -14 24 -1 7 -9 42 -17 77 -9 36 -12 75 -8 90 6 21 7 196 1 196 -14 0
-19 277 -6 294 8 11 8 13 -1 7 -15 -8 -17 3 -3 24 6 9 5 20 -3 29 -9 12 -9 13
1 7 10 -6 12 8 8 66 -2 40 -7 84 -10 98 -10 42 -14 193 -5 217 6 16 3 27 -9
40 -16 16 -16 17 0 10 20 -7 34 8 17 19 -7 4 -8 9 -1 13 10 6 24 102 23 164
-1 53 -1 54 4 144 4 53 2 84 -5 88 -8 5 -6 11 5 18 10 8 16 32 18 74 2 34 6
65 9 68 3 4 18 -1 32 -10 14 -10 26 -13 27 -9 5 42 -8 68 -65 129 -59 63 -108
156 -92 172 11 12 56 -28 103 -92 46 -62 63 -77 63 -55 0 6 -4 10 -10 10 -5 0
-10 7 -10 15 0 22 27 18 43 -6 13 -18 16 -19 24 -5 8 14 11 14 28 2 17 -12 17
-15 3 -29 -18 -19 -12 -71 7 -63 7 2 16 -5 19 -17 6 -21 7 -21 34 11 38 45 56
43 49 -8 -4 -31 0 -46 16 -67 12 -15 36 -48 52 -73 31 -48 93 -108 155 -150
19 -14 44 -32 54 -42 11 -10 22 -18 25 -18 10 0 291 358 291 369 0 4 15 22 34
41 44 46 127 175 130 203 1 13 5 28 9 34 4 6 23 42 43 79 20 38 43 76 50 85 8
8 14 21 14 28 0 6 7 14 15 17 8 4 15 14 15 24 0 9 9 25 20 35 11 10 20 24 20
32 0 7 4 13 9 13 9 0 24 38 22 53 -1 5 12 24 28 42 16 19 32 43 36 54 3 12 10
21 16 21 5 0 25 24 44 53 20 30 49 64 65 76 17 12 30 28 30 37 0 8 5 12 10 9
6 -3 10 -24 10 -46z m-5036 -158 c13 -6 48 -11 78 -12 73 -2 91 -7 83 -27 -5
-14 9 -31 26 -32 4 0 10 12 13 26 6 24 10 25 47 19 22 -4 39 -3 38 2 -4 20 2
33 15 33 19 0 29 -17 20 -31 -4 -8 -9 -7 -15 2 -6 10 -9 5 -9 -14 0 -16 -4
-26 -8 -23 -5 3 -21 -6 -36 -19 -20 -17 -44 -25 -89 -29 -103 -10 -181 -17
-200 -17 -22 0 -49 20 -42 32 3 4 -3 7 -14 6 -11 0 -18 -4 -16 -7 9 -14 -34
-25 -95 -25 -57 0 -65 2 -63 18 1 14 -4 17 -18 14 -12 -3 -19 0 -19 10 0 11 5
13 18 8 9 -4 28 -10 41 -13 19 -4 23 -2 18 12 -4 10 -1 16 9 16 9 0 12 5 8 12
-5 7 -3 8 7 2 8 -5 22 -7 32 -6 10 2 24 -1 30 -6 7 -5 22 -12 35 -15 17 -4 22
-1 22 13 0 10 12 28 26 39 31 24 26 23 58 12z m1168 -53 c24 -17 34 -19 48
-10 19 11 90 5 90 -8 0 -4 -18 -15 -41 -25 -50 -23 -250 -28 -270 -7 -19 18 1
33 55 39 25 3 46 9 46 14 0 4 8 10 18 12 9 3 19 5 20 6 2 0 18 -9 34 -21z
m4708 -22 c0 -23 9 -45 26 -66 34 -40 24 -50 -53 -53 -72 -2 -93 11 -93 60 0
62 29 91 93 92 24 1 27 -2 27 -33z m4086 -107 c37 -22 82 -43 100 -46 26 -4
35 -12 43 -37 6 -17 9 -40 6 -51 -2 -11 -4 -25 -4 -32 -1 -7 -11 -18 -23 -24
-20 -11 -26 -8 -56 27 -29 34 -31 39 -15 46 16 6 16 7 -3 7 -27 1 -64 37 -64
61 0 11 -6 20 -13 20 -11 0 -47 49 -47 64 0 11 8 7 76 -35z m-101 -171 c3 4 5
0 3 -8 -2 -10 4 -15 17 -15 12 0 38 -16 59 -36 33 -31 39 -43 40 -82 0 -25 4
-49 9 -53 12 -12 8 -64 -5 -64 -6 0 -4 -6 6 -13 15 -11 16 -17 4 -52 -9 -28
-19 -40 -31 -39 -12 1 -15 -2 -8 -10 9 -10 -5 -85 -20 -111 -3 -5 -12 -32 -19
-60 -18 -68 -24 -72 -45 -28 -20 42 -22 92 -4 104 13 8 5 39 -11 39 -5 0 -10
-12 -11 -27 -1 -23 -3 -21 -10 12 -5 21 -7 45 -5 51 3 7 -2 15 -10 18 -9 3
-13 10 -9 15 3 5 1 12 -5 16 -5 3 -10 15 -10 26 0 19 -1 19 -16 5 -23 -24 -30
-20 -31 19 -1 39 4 43 23 18 12 -16 13 -13 9 22 -2 22 -7 52 -11 67 -5 21 -2
29 10 34 9 3 13 10 10 15 -3 5 0 9 7 9 10 0 10 3 1 12 -10 10 -15 10 -22 -2
-10 -17 -25 -7 -18 12 8 20 7 33 -2 31 -4 -1 -6 7 -3 17 7 25 23 26 23 1 0
-10 8 -21 18 -23 11 -3 26 -31 41 -77 17 -49 27 -68 32 -58 5 8 5 27 0 43 -4
16 -5 38 0 49 12 31 10 37 -5 23 -8 -7 -12 -16 -9 -20 2 -5 -1 -8 -6 -8 -6 0
-11 11 -11 24 0 14 -6 31 -13 38 -8 7 -19 24 -26 36 -9 18 -9 22 1 20 7 -2 14
8 16 22 l4 25 18 -22 c10 -12 21 -19 25 -15z m-2870 -404 c57 -27 79 -41 115
-69 14 -11 44 -29 66 -40 49 -23 90 -93 71 -119 -7 -8 -64 -32 -127 -53 -63
-20 -122 -45 -131 -54 -9 -9 -26 -20 -38 -24 -12 -3 -21 -12 -21 -18 0 -7 -15
-12 -38 -11 -20 0 -41 -3 -47 -7 -13 -9 -105 -21 -105 -14 0 3 10 10 23 15 12
5 15 9 7 9 -20 1 -100 -22 -187 -53 -57 -20 -91 -26 -157 -26 -97 0 -133 10
-145 42 -13 33 10 49 55 36 19 -5 42 -7 52 -4 9 3 46 6 82 7 109 2 140 9 146
33 3 12 15 26 27 31 16 7 21 18 20 38 -1 15 2 27 7 27 14 0 12 34 -2 48 -9 9
-9 12 1 12 7 0 9 5 6 11 -5 7 -13 5 -24 -5 -10 -9 -27 -16 -39 -16 -11 0 -23
-4 -26 -9 -3 -4 -20 -11 -38 -15 -18 -3 -51 -19 -73 -35 -90 -63 -98 -47 -18
34 50 50 61 56 90 53 27 -3 40 3 80 39 46 43 67 50 69 22 3 -38 4 -43 13 -33
5 5 11 18 13 28 1 11 20 35 41 54 20 19 37 40 37 47 0 8 12 23 27 35 23 18 35
20 73 15 25 -4 68 -18 95 -31z m-2005 -104 c9 -5 19 -5 27 2 9 7 14 6 19 -6 5
-12 10 -13 25 -6 15 8 22 5 36 -17 14 -21 15 -27 4 -31 -10 -3 -10 -6 -2 -12
7 -4 13 -17 14 -28 1 -12 4 -22 8 -22 4 0 9 -9 12 -20 3 -11 1 -20 -4 -20 -5
0 -9 7 -9 15 0 8 -4 15 -10 15 -5 0 -10 -3 -10 -6 0 -14 42 -74 52 -74 6 0 5
7 -3 17 -8 9 -9 14 -2 10 6 -4 13 -1 16 5 7 19 37 -1 65 -43 13 -19 30 -33 38
-33 8 1 14 -6 14 -15 0 -9 9 -27 20 -41 11 -14 20 -29 20 -34 0 -5 20 -28 45
-52 25 -23 45 -46 45 -51 0 -14 -58 -93 -104 -141 -40 -43 -41 -43 -13 -36
l28 6 -16 -38 c-18 -44 -25 -53 -25 -33 0 8 -6 2 -14 -13 -15 -29 -26 -118
-14 -118 5 0 8 5 8 10 0 17 18 11 39 -12 16 -16 18 -25 10 -35 -8 -8 -8 -13
-1 -13 6 0 12 6 15 13 4 10 7 10 18 0 7 -7 25 -13 40 -13 38 0 82 -18 74 -30
-3 -5 1 -10 9 -10 9 0 16 6 16 12 0 7 8 -3 19 -22 10 -19 17 -38 14 -42 -2 -5
3 -8 11 -8 8 0 23 -11 34 -25 11 -14 24 -25 30 -25 13 0 23 -27 16 -45 -4 -8
-12 -15 -20 -15 -11 0 -12 -4 -3 -18 8 -13 6 -31 -11 -77 -25 -71 -36 -113
-21 -78 14 31 49 49 57 29 5 -12 11 -13 24 -6 30 16 52 12 46 -7 -20 -68 -20
-75 3 -68 15 4 21 2 21 -9 0 -9 6 -13 15 -10 11 4 16 -5 21 -35 4 -27 13 -42
25 -46 21 -7 26 -25 7 -25 -9 0 -8 -4 2 -10 13 -9 12 -12 -5 -26 l-20 -15 20
-15 c11 -8 19 -22 17 -30 -4 -19 15 -18 26 3 7 12 18 15 46 10 61 -10 78 -38
81 -134 2 -54 -1 -57 -42 -56 -22 1 -14 -16 10 -23 12 -3 34 -22 48 -43 24
-34 25 -41 18 -109 -4 -40 -11 -81 -14 -92 -5 -15 -2 -20 12 -20 16 -1 15 -3
-4 -19 -19 -16 -20 -20 -7 -25 9 -3 26 -6 38 -6 33 0 37 -9 19 -44 -10 -17
-16 -37 -15 -43 2 -7 -2 -13 -8 -13 -6 0 -10 -10 -9 -22 2 -13 -5 -35 -15 -50
-10 -15 -19 -39 -20 -53 0 -13 -6 -27 -13 -29 -6 -3 -9 -14 -6 -25 3 -12 -5
-33 -22 -55 -15 -19 -24 -40 -20 -46 4 -6 1 -9 -6 -8 -7 2 -13 -4 -14 -12 0
-8 -6 -25 -12 -37 -8 -13 -9 -23 -3 -25 6 -2 -3 -18 -19 -35 -26 -29 -28 -35
-15 -47 12 -12 12 -17 1 -28 -24 -23 -37 -56 -31 -73 4 -10 1 -21 -7 -26 -12
-8 -12 -11 1 -19 15 -10 8 -14 -22 -11 -12 2 -15 -4 -11 -19 3 -11 1 -20 -5
-20 -6 0 -8 -9 -5 -20 3 -11 -2 -32 -12 -46 -9 -14 -14 -32 -11 -40 3 -8 1
-14 -4 -14 -6 0 -10 -7 -10 -15 0 -8 -6 -15 -14 -15 -18 0 -26 -20 -15 -41 6
-12 1 -25 -15 -44 -15 -17 -22 -35 -18 -47 4 -17 2 -19 -14 -10 -16 8 -21 6
-31 -14 -10 -21 -9 -24 7 -24 10 0 20 -8 23 -19 3 -14 -1 -18 -22 -17 -14 1
-32 5 -38 9 -9 6 -13 2 -13 -10 0 -11 -6 -25 -12 -32 -11 -11 -10 -13 5 -8 10
4 16 3 13 -2 -10 -15 -57 -19 -63 -5 -2 7 -10 11 -17 8 -6 -2 -30 10 -51 28
-79 66 -79 66 -54 22 13 -21 38 -57 56 -78 41 -49 42 -81 4 -123 -45 -49 -69
-58 -89 -35 -9 10 -28 22 -42 25 -14 4 -41 20 -60 37 -19 16 -41 30 -49 30 -7
0 -34 17 -60 38 -69 57 -144 107 -163 108 -27 2 -78 25 -78 36 0 5 -4 7 -9 3
-5 -3 -13 0 -16 6 -4 5 -12 8 -19 6 -6 -2 -31 11 -56 29 -64 48 -159 96 -172
88 -6 -4 -9 -3 -5 2 3 5 -35 25 -84 43 -49 19 -106 49 -126 66 l-37 32 -2 95
c-2 72 -7 102 -22 129 -17 30 -18 44 -11 128 12 141 6 237 -17 262 -27 30 -25
195 4 349 11 63 33 205 47 315 14 110 30 228 36 262 9 61 63 214 99 283 10 19
37 96 60 170 41 129 78 229 89 240 4 3 8 16 10 30 1 14 8 34 14 45 6 11 11 25
12 30 0 6 9 28 19 50 11 22 19 45 20 50 1 12 26 58 35 65 3 3 15 32 25 65 27
84 43 113 65 120 11 3 21 16 23 28 2 17 9 22 30 21 16 -1 25 3 21 9 -11 17
-10 62 1 69 6 4 16 2 23 -4 10 -8 13 -6 13 6 0 18 8 20 30 6z m-3407 -146 c33
-7 35 -19 5 -36 -32 -18 -264 -17 -297 1 -32 18 -15 32 46 37 35 3 43 2 28 -5
-11 -5 -15 -10 -10 -11 67 -9 105 -9 110 0 4 6 -9 11 -32 11 l-38 2 35 7 c33
7 93 5 153 -6z m3108 -36 c9 -16 9 -23 0 -26 -13 -4 -15 -32 -2 -32 14 0 3
-53 -14 -66 -7 -5 -17 -23 -21 -38 -3 -15 -16 -31 -27 -35 -13 -5 -16 -10 -9
-15 7 -4 7 -14 -3 -32 -7 -15 -11 -32 -9 -39 3 -7 1 -16 -5 -20 -6 -3 -11 -15
-11 -27 0 -17 -5 -20 -30 -16 -27 4 -29 3 -15 -11 27 -31 -14 -233 -70 -344
-14 -27 -25 -57 -25 -66 0 -9 -4 -21 -9 -26 -4 -6 -14 -32 -20 -58 -14 -56
-37 -97 -57 -97 -10 0 -12 17 -9 73 7 134 45 379 75 497 11 41 27 107 35 145
9 39 26 83 38 98 46 55 62 82 59 99 -2 12 1 16 12 12 9 -3 27 5 43 20 34 32
59 33 74 4z m6488 -1701 c6 -8 14 -28 17 -45 4 -18 11 -32 16 -32 6 0 7 7 4
16 -5 14 -4 15 9 4 8 -7 15 -26 15 -42 0 -16 7 -40 16 -53 9 -14 13 -32 9 -45
-4 -12 -1 -27 5 -35 10 -12 8 -15 -10 -15 -35 0 -60 28 -60 68 0 25 -4 33 -14
29 -8 -3 -17 1 -20 9 -3 8 0 14 7 13 26 -3 50 1 43 9 -4 4 -12 8 -17 8 -5 1
-11 3 -14 4 -13 7 -31 5 -42 -3 -14 -10 -33 21 -33 56 0 28 18 38 49 30 25 -6
27 0 5 21 -8 9 -11 16 -6 16 5 0 15 -6 21 -13z m-11139 -164 c0 -4 -10 -15
-22 -23 -25 -17 -106 -22 -519 -38 -233 -9 -260 -9 -309 7 l-54 18 33 6 c50
10 84 8 146 -8 39 -10 64 -11 81 -5 39 15 71 19 204 26 69 3 143 9 165 12 64
11 275 15 275 5z m2391 -171 c5 7 9 9 9 3 -1 -14 -23 -41 -40 -48 -10 -4 -8
-6 8 -6 12 -1 22 4 22 9 0 6 7 10 15 10 8 0 15 7 15 15 0 9 6 12 15 9 8 -4 17
1 21 9 3 8 16 14 28 13 13 0 22 -6 19 -12 -2 -6 5 -14 17 -17 18 -5 20 -8 9
-26 -7 -11 -23 -22 -36 -26 -13 -3 -23 -12 -23 -20 0 -34 -74 -44 -91 -13 -5
10 -16 18 -24 18 -9 0 -25 6 -38 13 -12 6 -23 13 -25 13 -2 1 12 17 30 36 28
30 35 33 47 21 11 -12 15 -12 22 -1z m-1748 -54 c44 -23 116 -91 119 -112 3
-19 10 -21 68 -22 73 -1 193 -27 227 -49 12 -8 42 -15 66 -15 54 0 83 -25 40
-33 -16 -3 -34 -1 -40 5 -16 13 -127 19 -155 9 -18 -7 -18 -8 5 -20 34 -18 63
-76 71 -138 l7 -53 -141 0 -140 0 0 -24 c0 -39 42 -90 85 -104 44 -14 110 -4
149 24 30 21 36 18 36 -19 0 -44 -29 -58 -130 -64 -101 -6 -152 20 -192 95
-15 29 -31 52 -35 52 -17 -2 -43 -34 -39 -47 3 -7 1 -15 -4 -18 -6 -4 -10 -22
-10 -41 0 -34 0 -34 -46 -34 l-46 0 7 -42 c4 -24 13 -48 21 -54 8 -6 14 -23
14 -38 0 -16 4 -25 10 -21 6 4 8 11 5 16 -4 5 1 9 9 9 17 0 29 -16 33 -44 3
-16 1 -17 -12 -6 -16 14 -18 10 -9 -14 3 -9 10 -13 15 -10 17 10 49 -7 49 -27
0 -10 7 -19 15 -19 19 0 20 -16 1 -23 -17 -7 -9 -57 9 -57 7 0 16 -7 19 -16 3
-8 2 -12 -4 -9 -15 10 -50 -5 -50 -20 0 -8 8 -19 18 -24 9 -6 13 -11 8 -11 -5
0 1 -11 14 -25 22 -23 22 -25 6 -50 -19 -29 -33 -32 -39 -7 -4 13 -5 12 -6 -5
0 -12 6 -26 14 -31 13 -7 13 -14 4 -41 -9 -26 -9 -35 2 -46 20 -19 218 -102
286 -119 94 -24 252 -36 405 -31 190 7 201 9 290 61 86 51 112 88 124 181 6
50 5 53 -20 63 -14 5 -26 16 -26 23 0 8 -9 26 -21 41 -11 14 -16 26 -10 26 16
0 23 43 12 73 -7 19 -18 27 -34 27 -41 0 -60 22 -52 59 6 27 10 31 28 25 12
-4 82 -7 155 -6 80 1 132 -2 132 -8 0 -8 -28 -12 -75 -10 -13 1 -65 -32 -65
-41 0 -5 9 -20 21 -32 33 -35 39 -61 39 -174 0 -113 4 -100 -68 -193 -13 -16
-57 -50 -97 -76 -74 -47 -95 -70 -36 -39 36 18 36 17 16 -33 l-15 -37 21 28
c24 32 49 36 49 7 0 -34 -32 -114 -58 -145 -14 -16 -71 -124 -128 -240 -97
-200 -147 -285 -205 -346 l-26 -28 -46 44 c-32 30 -58 46 -84 50 -21 3 -52 8
-69 11 -30 4 -30 5 -32 71 -3 84 -31 146 -88 189 -46 35 -135 56 -304 75 -108
12 -170 30 -170 49 0 11 31 73 52 102 15 20 -7 121 -34 157 -10 13 -18 29 -18
35 0 7 -14 23 -32 37 -67 51 -107 66 -70 26 12 -13 22 -32 22 -43 0 -11 4 -24
9 -29 15 -16 16 -58 3 -82 -18 -33 -32 -28 -32 12 0 19 -4 35 -10 35 -5 0 -10
-22 -10 -50 0 -101 -35 -125 -103 -69 -31 25 -37 37 -37 69 0 30 6 43 31 64
18 15 43 26 60 26 16 0 29 5 29 10 0 6 -18 10 -39 10 -40 0 -91 33 -91 59 0 6
-7 11 -15 11 -8 0 -15 5 -15 11 0 8 -5 8 -15 -1 -12 -10 -15 -10 -15 1 0 17
37 42 49 34 5 -3 12 2 15 11 4 9 12 14 21 10 8 -3 22 -9 30 -12 19 -8 19 6 -1
95 -14 62 -19 71 -39 71 -38 0 -57 32 -59 102 -2 62 -26 128 -47 128 -29 0
-100 274 -95 365 5 84 15 144 31 185 7 19 16 47 20 63 7 33 78 105 112 113 13
4 36 2 51 -4 15 -6 56 -13 91 -17 36 -4 77 -13 92 -21 36 -18 36 -19 42 14 14
74 62 162 89 162 5 0 19 -5 31 -12z m5783 -31 c9 -24 -15 -68 -66 -119 -27
-28 -48 -54 -45 -58 3 -4 -5 -10 -17 -13 -19 -5 -20 -8 -7 -23 13 -16 12 -16
-9 -5 -15 8 -21 18 -18 28 3 8 6 24 6 34 0 12 4 17 11 13 6 -3 10 1 9 12 -5
41 0 95 8 90 4 -2 14 -1 22 5 12 7 9 9 -10 10 -16 0 -19 3 -10 6 8 4 21 12 28
20 18 17 91 17 98 0z m-7468 -82 c51 -16 52 -16 52 -55 0 -22 -2 -40 -4 -40
-2 0 -23 11 -47 24 -110 60 -229 32 -229 -54 0 -41 37 -66 123 -84 140 -28
182 -66 174 -156 -4 -49 -8 -58 -46 -92 -24 -21 -59 -40 -78 -44 -52 -10 -162
1 -210 21 -40 16 -43 20 -43 56 0 21 2 39 5 39 3 0 29 -13 58 -30 70 -39 125
-47 181 -26 62 24 85 81 49 125 -13 14 -46 26 -110 40 -51 11 -104 28 -118 37
-36 23 -55 65 -55 118 0 51 29 93 82 119 42 21 148 22 216 2z m383 -128 c48
-32 58 -71 58 -229 l1 -138 -35 0 c-29 0 -35 4 -35 21 0 20 0 20 -31 -2 -38
-27 -117 -36 -158 -19 -42 17 -65 56 -65 110 0 86 55 126 186 137 73 6 83 17
53 59 -24 35 -110 38 -188 8 -14 -5 -17 0 -17 29 0 42 5 44 121 46 64 1 81 -3
110 -22z m419 -4 c29 -24 34 -25 54 -13 71 45 143 54 182 22 42 -33 48 -61 52
-219 l4 -153 -36 0 -36 0 0 133 c0 146 -8 175 -53 190 -22 7 -38 4 -75 -15
l-47 -23 -3 -142 -3 -143 -28 0 -29 0 -4 145 c-3 155 -7 168 -58 180 -16 4
-41 -2 -70 -17 l-45 -23 -3 -143 -3 -143 -30 3 -30 3 -2 185 -2 185 33 3 c27
3 32 0 32 -18 0 -21 0 -21 28 -2 60 42 126 44 172 5z m6655 -24 c0 -8 3 -18 7
-24 10 -16 2 -73 -11 -89 -17 -20 -141 -40 -141 -23 0 4 0 11 0 16 0 5 7 17
16 25 14 15 13 16 -8 17 -19 0 -16 3 15 17 21 10 37 24 37 33 0 15 20 30 42
33 3 1 10 4 14 9 11 11 29 3 29 -14z m-29 -365 c-4 -48 -9 -91 -12 -96 -3 -5
-8 -30 -10 -56 -5 -46 -20 -76 -34 -67 -4 3 -10 -4 -13 -15 -3 -12 -11 -18
-19 -15 -8 3 -21 -1 -28 -10 -7 -8 -18 -15 -24 -15 -13 -1 -51 -50 -38 -50 5
0 15 7 22 15 18 22 27 19 38 -14 10 -27 8 -30 -17 -39 -23 -8 -31 -7 -43 8 -9
10 -21 19 -27 21 -13 5 11 98 28 109 6 3 13 23 17 45 7 44 22 64 44 57 12 -4
13 -2 4 9 -6 8 -11 22 -11 32 0 16 2 16 18 1 18 -16 44 -11 33 7 -3 5 -9 7
-13 5 -4 -3 -8 14 -8 37 -2 36 4 47 35 79 59 57 65 52 58 -48z m-4246 38 c0
-4 -7 -18 -16 -30 -17 -25 -11 -43 8 -24 19 19 58 -24 58 -65 0 -48 -39 -102
-65 -93 -11 4 -23 3 -26 -3 -4 -5 -15 3 -25 18 -18 28 -16 42 20 125 5 12 -3
15 -46 15 -75 0 -289 25 -313 36 -15 7 -9 8 20 4 23 -2 86 -7 140 -11 55 -3
105 -10 112 -16 8 -6 29 1 65 21 55 32 68 36 68 23z m1107 -352 c12 0 38 -9
57 -21 32 -18 36 -26 36 -61 0 -38 37 -124 82 -188 15 -22 16 -31 5 -70 -6
-25 -16 -48 -22 -52 -6 -5 -5 -8 3 -8 9 0 12 -10 11 -28 -2 -15 0 -32 4 -39 8
-13 -50 -66 -64 -57 -11 6 -39 -13 -39 -28 0 -5 5 -6 12 -2 8 5 9 2 5 -9 -3
-9 -2 -19 3 -22 6 -4 10 -15 10 -27 0 -13 5 -18 14 -15 8 3 24 -5 37 -19 12
-13 28 -24 35 -24 7 0 23 -18 35 -40 25 -44 77 -75 112 -65 18 5 19 4 7 -5
-12 -10 -11 -11 7 -7 12 3 31 -2 42 -9 11 -8 37 -16 58 -17 l38 -2 0 90 c1 50
6 106 13 125 6 19 13 56 14 82 2 27 7 48 12 48 13 0 86 -43 86 -51 0 -4 9 -5
20 -2 11 3 27 0 35 -7 17 -14 20 -50 4 -50 -6 0 -8 -8 -5 -18 4 -12 -1 -26
-14 -37 -11 -10 -20 -24 -20 -32 0 -7 -4 -13 -10 -13 -5 0 -10 13 -10 29 0 24
-3 28 -20 24 -11 -3 -17 -9 -14 -14 3 -5 -2 -12 -10 -15 -9 -3 -16 -17 -16
-30 0 -14 -5 -23 -12 -21 -10 1 -13 -18 -13 -70 -1 -62 2 -73 16 -73 10 0 24
-6 31 -14 11 -10 19 -11 34 -4 11 6 6 -2 -11 -19 -16 -17 -40 -35 -52 -42 -29
-15 -31 -51 -3 -51 30 0 34 -1 48 -12 9 -8 12 -6 12 6 0 22 33 20 55 -4 15
-16 21 -18 33 -7 13 9 14 9 8 0 -4 -7 -2 -13 3 -13 6 0 11 -8 11 -17 0 -11 3
-14 8 -7 4 6 15 13 25 17 10 4 15 11 12 17 -3 6 1 7 10 4 12 -5 13 -10 6 -17
-18 -18 -13 -36 9 -30 11 3 20 0 20 -6 0 -12 39 5 51 23 4 5 15 6 25 2 15 -6
16 -9 4 -16 -12 -8 -12 -10 3 -16 9 -3 17 -12 17 -19 0 -8 21 -20 48 -27 l47
-14 -2 -69 c-3 -117 -12 -235 -24 -336 l-12 -97 -40 5 c-41 4 -57 -6 -57 -37
1 -12 3 -11 11 3 5 9 14 17 18 17 17 0 51 -39 51 -59 0 -18 -6 -21 -48 -21
-26 0 -53 -5 -60 -12 -9 -9 -17 -7 -34 8 -16 13 -19 14 -10 2 9 -12 10 -18 2
-23 -17 -10 -21 -1 -23 47 -1 36 -4 44 -21 46 -11 0 -26 -4 -34 -10 -10 -9
-12 -8 -10 2 2 7 -3 15 -9 17 -7 3 -13 -2 -13 -11 0 -9 -6 -13 -14 -10 -8 3
-17 1 -21 -5 -10 -18 -25 -13 -25 9 0 10 -6 23 -14 27 -7 4 -16 15 -19 23 -4
12 -6 11 -6 -2 -1 -13 -9 -18 -31 -18 -16 0 -30 -5 -30 -11 0 -6 -7 -17 -15
-25 -13 -14 -15 -12 -15 13 0 22 -2 25 -10 13 -5 -8 -10 -11 -10 -6 0 6 -7 1
-16 -10 -14 -18 -15 -17 -10 16 17 111 28 263 23 316 -5 47 -12 68 -32 89 -14
16 -25 36 -25 46 0 10 -4 21 -10 24 -5 3 -10 15 -10 26 0 10 -4 19 -9 19 -5 0
-16 16 -25 35 -10 19 -30 45 -47 57 -16 12 -27 28 -25 35 3 7 2 13 -3 13 -4 0
-16 15 -26 34 -11 19 -23 33 -27 30 -4 -3 -8 4 -8 15 0 36 -42 120 -56 114
-12 -4 -16 2 -13 23 0 3 -10 14 -22 25 -12 10 -17 19 -11 19 7 0 4 8 -7 19
-10 10 -21 25 -24 32 -5 12 -7 11 -17 -1 -10 -13 -11 -13 -7 2 3 9 0 22 -8 28
-14 12 -28 53 -15 45 11 -7 23 31 15 45 -11 17 -23 11 -18 -9 3 -12 -2 -20
-15 -23 -16 -4 -21 0 -25 22 -3 15 -4 36 -1 47 4 14 -1 26 -15 35 -12 8 -18
18 -14 21 3 4 -1 7 -10 7 -19 0 -49 28 -42 40 3 5 1 11 -5 15 -17 11 -11 28 8
20 9 -5 49 -9 87 -11 l70 -3 2 34 c2 19 -1 35 -7 35 -5 0 -7 7 -3 16 5 14 1
16 -20 12 -28 -5 -37 10 -37 64 0 20 -4 26 -15 22 -12 -5 -15 5 -15 55 0 46
-3 59 -13 55 -8 -3 -20 2 -27 10 -7 9 -16 13 -21 10 -5 -3 -9 4 -9 15 0 11 -5
23 -10 26 -8 5 -8 11 0 20 8 9 6 14 -7 19 -14 6 -15 9 -4 16 9 5 27 1 50 -11
20 -10 46 -19 58 -19z m-579 -10 c4 0 8 -10 9 -22 1 -13 4 -36 6 -53 2 -19 8
-29 16 -27 8 2 11 -3 8 -12 -4 -9 -2 -18 2 -21 5 -3 7 -14 4 -25 -3 -12 0 -20
6 -20 7 0 10 -4 7 -9 -4 -5 -1 -11 5 -13 5 -2 10 -23 11 -46 0 -38 3 -42 20
-36 17 5 19 2 18 -23 -4 -56 -1 -62 33 -67 76 -12 127 -14 127 -5 0 5 7 9 15
9 10 0 15 -10 15 -30 0 -16 5 -30 10 -30 6 0 10 5 10 10 0 6 6 10 14 10 21 0
58 -66 55 -97 -2 -16 0 -33 4 -39 3 -6 5 -21 2 -32 -2 -12 3 -29 11 -37 9 -8
12 -15 7 -15 -4 0 -1 -5 8 -10 14 -8 17 -26 16 -97 0 -95 -12 -118 -54 -108
-18 4 -21 1 -18 -15 2 -11 0 -22 -5 -25 -11 -7 -1 -37 14 -47 7 -5 3 -8 -9 -8
-18 -1 -18 -2 -4 -13 17 -13 14 -33 -8 -56 -8 -8 -10 -17 -5 -20 5 -3 12 -18
16 -33 5 -24 3 -28 -16 -28 -17 0 -19 3 -10 12 18 18 -3 47 -30 40 -17 -4 -20
-2 -15 12 4 10 1 19 -7 22 -8 3 -17 16 -20 30 -4 13 -32 75 -62 137 -67 134
-149 321 -174 397 -10 30 -40 109 -65 175 -26 66 -55 143 -65 172 l-19 52 42
25 c23 14 48 23 55 21 8 -3 17 -5 20 -5z m-2520 -208 c15 -16 33 -27 38 -25 6
2 17 -3 24 -12 7 -8 20 -15 29 -16 13 0 13 -2 2 -6 -8 -3 -24 -16 -36 -29 -12
-13 -29 -24 -37 -24 -8 0 -18 -3 -22 -7 -3 -4 -26 -8 -51 -9 -32 -2 -43 0 -39
10 3 7 -7 18 -21 26 -19 10 -30 11 -51 2 -22 -10 -25 -17 -19 -41 7 -32 -11
-53 -21 -26 -4 9 -13 14 -20 11 -19 -7 -19 -6 22 66 39 68 49 77 109 94 60 17
63 16 93 -14z m97 -539 c64 -32 112 -53 123 -53 26 0 70 -30 75 -51 3 -11 3
-18 0 -15 -4 3 -17 -4 -31 -16 -13 -13 -27 -21 -30 -18 -4 3 -8 -5 -10 -18 -3
-18 -8 -21 -28 -16 -14 4 -24 2 -24 -5 0 -18 -50 -8 -56 11 -3 10 -9 17 -13
15 -12 -3 -61 51 -72 79 -4 13 -15 24 -22 24 -9 0 -14 15 -16 43 l-2 44 43 -7
c24 -3 52 -11 63 -17z m701 -83 l42 -12 -2 -54 c-1 -51 -9 -69 -18 -42 -3 7
-3 -15 0 -50 3 -40 0 -67 -8 -77 -6 -8 -8 -20 -4 -26 4 -8 3 -9 -4 -5 -6 4
-20 2 -31 -4 -13 -7 -22 -7 -26 0 -3 5 -21 10 -39 10 -46 0 -92 25 -106 59
-24 60 45 126 140 133 64 5 65 28 1 28 -51 0 -65 8 -56 32 7 18 60 22 111 8z
m2358 -74 c-3 -8 4 -24 15 -35 12 -12 21 -30 21 -41 0 -14 5 -18 18 -14 14 5
15 4 2 -5 -13 -9 -12 -13 8 -31 20 -19 21 -22 7 -44 -15 -22 -14 -27 2 -57 19
-34 20 -79 2 -79 -5 0 -9 4 -9 8 0 5 -11 14 -25 20 -25 12 -36 52 -13 52 6 0
8 3 4 7 -4 4 -17 8 -28 8 -12 0 -23 6 -26 14 -3 10 1 12 17 8 26 -7 36 7 16
23 -8 7 -15 19 -15 27 0 9 -6 13 -14 10 -9 -4 -13 0 -12 11 3 18 26 30 26 13
0 -6 10 -16 23 -22 20 -11 21 -11 9 4 -7 8 -15 28 -17 44 -2 15 -4 29 -4 31
-1 1 -10 -2 -21 -8 -18 -10 -19 -9 -10 15 5 14 9 29 9 33 -2 14 1 22 11 22 5
0 7 -6 4 -14z m-1752 -276 c13 -25 46 -80 73 -123 142 -220 135 -206 116 -217
-70 -37 -214 -93 -249 -96 -24 -2 -62 -14 -84 -25 -23 -12 -58 -27 -79 -34
l-37 -13 13 24 c8 16 11 47 8 87 -7 85 11 138 106 312 58 106 90 150 102 138
4 -5 18 -28 31 -53z m-343 -69 c13 -24 15 -103 2 -82 -7 11 -13 10 -31 -7 -48
-45 -167 -49 -184 -7 -21 56 5 90 79 102 95 17 123 15 134 -6z"/>
<path d="M11170 6500 c-101 -10 -172 -26 -227 -50 -25 -11 -53 -20 -62 -20
-20 0 -222 -99 -236 -116 -5 -6 -22 -15 -38 -18 -15 -4 -44 -21 -65 -39 -20
-18 -49 -39 -64 -46 -33 -17 -41 -36 -27 -62 7 -15 7 -24 -1 -34 -8 -9 -7 -17
5 -28 11 -12 12 -17 2 -21 -6 -2 3 -2 21 1 35 6 38 2 22 -28 -7 -13 -7 -19 0
-19 5 0 10 -13 10 -29 0 -35 9 -61 21 -61 5 0 17 -8 28 -19 12 -12 27 -17 44
-14 32 6 94 -38 99 -70 2 -16 13 -23 46 -30 50 -10 53 -21 10 -47 l-31 -19 29
-6 c16 -3 51 -13 78 -21 58 -17 209 -19 272 -3 50 13 76 43 44 52 -11 3 -25
-2 -32 -10 -10 -12 -30 -14 -103 -9 -143 8 -183 18 -154 37 23 14 71 10 91 -8
10 -9 18 -11 18 -5 0 13 76 36 96 28 8 -3 14 -1 14 5 0 5 11 7 25 3 15 -4 25
-2 25 4 0 14 58 42 87 42 14 0 23 -6 23 -15 0 -19 2 -19 45 6 20 12 48 39 61
60 13 22 31 39 39 39 8 0 15 5 15 11 0 5 4 8 9 5 5 -3 19 3 32 13 14 10 42 26
63 35 45 19 41 30 -9 28 -30 -1 -34 1 -27 16 12 21 5 42 -14 42 -7 0 -11 6 -8
14 5 14 -40 49 -63 49 -8 0 -11 7 -7 19 6 20 -15 25 -33 7 -11 -11 -83 17 -83
33 0 5 -5 6 -11 2 -6 -3 -25 1 -42 9 -32 15 -114 34 -194 44 -24 3 -43 9 -43
13 0 5 -18 11 -40 15 -22 4 -40 12 -40 19 0 20 113 95 167 110 129 38 137 38
298 -4 83 -21 163 -44 179 -50 38 -14 42 -8 14 21 -37 38 -85 69 -118 76 -17
3 -33 10 -36 14 -3 5 -13 9 -23 9 -10 0 -32 7 -47 15 -31 16 -37 16 -154 5z
m-190 -503 c0 -29 8 -54 26 -80 14 -21 23 -41 19 -45 -13 -13 -147 -14 -171
-1 -54 28 -13 119 71 155 49 21 55 18 55 -29z"/>
<path d="M8152 3020 c-60 -37 -65 -98 -12 -151 36 -37 81 -39 115 -5 46 46 45
109 -2 152 -32 29 -58 30 -101 4z"/>
<path d="M3400 2289 c-52 -6 -70 -14 -87 -34 -37 -42 -29 -76 22 -95 31 -12
61 -8 113 17 30 14 32 18 32 69 0 30 -3 53 -7 53 -5 -1 -37 -5 -73 -10z"/>
<path d="M8130 523 c-39 -7 -51 -25 -15 -23 52 4 64 1 85 -20 24 -24 26 -76 5
-107 -35 -50 -130 -32 -142 27 -7 39 -23 38 -23 -1 0 -23 10 -40 38 -66 36
-33 39 -34 92 -28 63 8 70 11 70 31 0 8 4 14 8 14 15 0 13 79 -2 109 -16 29
-66 72 -83 70 -4 -1 -19 -4 -33 -6z"/>
<path d="M9084 10785 c-4 -8 -12 -15 -19 -15 -13 0 -55 -33 -55 -44 0 -10 68
-7 95 6 29 13 30 12 39 -25 6 -25 3 -29 -24 -38 -35 -13 -38 -25 -9 -34 16 -5
19 -12 15 -31 -7 -27 18 -84 37 -84 23 0 39 18 42 44 2 14 -1 26 -6 26 -6 0
-6 8 1 19 15 29 12 67 -6 82 -28 23 -54 85 -41 98 8 8 2 11 -26 11 -24 0 -40
-5 -43 -15z"/>
<path d="M14716 10783 c-14 -47 -38 -213 -51 -348 -13 -149 -13 -150 8 -171
21 -20 27 -21 107 -11 47 5 101 10 120 9 40 -1 50 10 50 58 l0 35 -52 -3 c-41
-2 -49 0 -36 8 9 6 35 11 57 13 30 1 41 6 41 18 0 14 -8 16 -46 11 -62 -7 -51
13 12 23 34 5 44 10 40 21 -9 24 21 16 42 -11 29 -37 37 -30 9 8 -28 36 -45
107 -26 107 6 0 9 6 6 14 -3 7 0 24 7 38 16 31 27 117 19 162 l-6 36 -131 -1
c-82 0 -124 -4 -111 -9 19 -8 19 -9 -2 -9 -12 -1 -25 4 -28 9 -10 15 -23 12
-29 -7z"/>
<path d="M15148 10627 c3 -226 4 -255 9 -234 4 14 13 9 56 -28 59 -51 111 -71
234 -86 123 -16 283 10 283 46 0 9 9 15 23 15 21 1 22 1 3 15 -16 12 -17 15
-4 15 9 0 18 7 22 15 3 8 15 15 26 15 11 0 20 5 20 10 0 16 -37 12 -55 -6 -9
-9 -19 -14 -22 -10 -4 3 2 12 12 20 11 8 16 20 12 29 -4 11 1 21 14 28 13 6
18 16 15 26 -4 9 1 21 9 27 9 6 17 18 19 26 1 8 10 32 19 53 19 43 41 45 44 4
1 -22 -3 -27 -20 -27 -21 -1 -21 -1 -4 -15 18 -13 17 -15 -14 -30 -24 -13 -29
-19 -18 -26 11 -7 8 -14 -16 -34 l-30 -24 32 -1 c34 0 66 34 40 43 -7 2 -3 8
11 16 12 6 22 18 22 27 0 8 7 25 14 37 8 12 18 41 22 64 l6 42 -38 10 c-73 19
-178 39 -185 35 -4 -2 -10 -17 -14 -32 -17 -79 -80 -132 -157 -132 -63 0 -96
29 -110 95 -13 68 -16 105 -7 105 4 0 9 9 12 20 6 23 -3 26 -21 8 -9 -9 -12
-9 -12 0 0 9 -35 12 -127 12 l-128 0 3 -173z"/>
<path d="M16046 10763 c-3 -21 -8 -119 -12 -218 -4 -101 -11 -186 -17 -193
-13 -16 9 -34 33 -27 8 2 57 9 109 15 68 8 98 16 108 28 11 14 14 15 22 3 8
-13 12 -13 27 0 11 9 15 9 10 2 -8 -15 25 -18 39 -4 19 17 73 23 82 9 11 -19
302 -6 314 14 5 7 9 58 9 113 0 55 3 110 6 123 5 18 3 23 -9 20 -9 -2 -16 0
-16 5 -2 24 1 29 14 23 9 -3 15 0 15 9 0 8 -1 15 -3 15 -2 0 -50 -6 -108 -14
-57 -8 -152 -18 -211 -22 -102 -6 -108 -6 -108 12 0 11 10 28 22 38 18 16 42
19 142 22 171 4 169 4 189 22 15 13 20 14 27 3 6 -11 10 -9 19 7 6 11 11 24
11 28 0 7 -266 -1 -322 -10 -16 -2 -47 -7 -70 -10 l-43 -6 30 15 c27 13 16 14
-136 15 l-167 0 -6 -37z m363 -259 c2 -2 -20 -6 -48 -10 -28 -4 -51 -10 -51
-13 0 -4 39 -7 88 -8 228 -2 256 -5 158 -16 -27 -4 -52 -11 -55 -16 -9 -13
-111 -26 -111 -14 0 5 -7 10 -15 10 -8 0 -15 -4 -15 -9 0 -4 -13 -8 -28 -8
-15 0 -33 -5 -38 -10 -7 -7 -18 -4 -35 11 -23 20 -24 21 -5 35 11 8 23 14 28
14 16 0 8 19 -9 23 -32 7 50 24 92 19 22 -3 42 -6 44 -8z"/>
<path d="M19038 10782 c-7 -25 9 -62 26 -62 8 0 24 14 36 30 49 69 74 21 68
-130 -5 -108 -24 -170 -52 -170 -14 0 -36 49 -36 81 0 24 -16 32 -46 25 -21
-6 -24 -12 -24 -49 0 -56 26 -157 47 -179 35 -38 93 -12 124 56 16 35 19 67
19 229 l0 187 -79 0 c-67 0 -79 -3 -83 -18z"/>
<path d="M4211 10736 c-9 -11 -9 -20 -2 -35 15 -28 14 -41 -4 -35 -8 4 -22 1
-30 -6 -8 -7 -24 -10 -34 -7 -12 3 -22 -1 -25 -10 -6 -16 2 -205 10 -212 2 -2
15 1 28 7 14 6 70 14 126 18 71 5 103 11 107 20 3 8 15 14 27 14 21 0 22 3 16
45 -5 32 -3 51 8 66 8 12 11 30 8 45 -8 29 -53 73 -76 74 -8 0 -24 7 -34 15
-26 19 -110 20 -125 1z"/>
<path d="M0 10086 l0 -634 63 -6 c34 -3 173 -13 310 -22 269 -17 294 -15 338
32 24 26 24 27 23 237 -2 322 -46 824 -79 886 -19 38 -68 78 -102 85 -23 5
-520 56 -545 56 -5 0 -8 -285 -8 -634z"/>
<path d="M2863 10640 c3 -11 1 -23 -4 -26 -5 -3 -7 -15 -3 -28 3 -12 0 -35 -6
-50 -6 -17 -7 -33 -1 -40 9 -12 7 -133 -2 -143 -5 -4 0 -98 6 -133 0 -3 -3
-31 -7 -63 -5 -35 -5 -62 2 -70 5 -6 10 -34 11 -61 0 -27 3 -51 6 -54 2 -3 1
-10 -5 -17 -10 -12 -18 -59 -25 -155 -3 -36 -7 -85 -9 -110 -2 -25 -5 -57 -5
-72 -1 -17 -8 -29 -20 -33 -17 -5 -18 -8 -6 -33 8 -15 15 -61 15 -102 1 -41 6
-106 12 -144 7 -46 7 -76 0 -90 -6 -11 -13 -45 -16 -74 -3 -30 -17 -74 -31
-100 -14 -26 -22 -48 -17 -50 29 -9 41 -32 47 -87 3 -33 8 -79 11 -103 3 -28
-1 -54 -11 -74 -18 -38 -19 -65 -2 -71 9 -3 9 -9 -1 -26 -7 -12 -9 -27 -5 -34
4 -7 6 -22 4 -34 -1 -15 3 -23 12 -23 18 0 28 -133 24 -342 -1 -90 2 -141 9
-148 8 -8 23 -5 54 11 l43 22 -7 506 c-3 278 -6 616 -7 751 -1 135 -5 290 -9
345 -5 55 -11 264 -15 465 -4 201 -9 381 -10 400 -2 19 -3 52 -4 73 -1 27 -5
37 -17 37 -11 0 -15 -6 -11 -20z"/>
<path d="M13074 10526 c-18 -29 -33 -165 -23 -219 3 -21 20 -55 36 -75 23 -29
29 -46 28 -80 -1 -55 -20 -76 -35 -38 -5 15 -10 38 -10 52 0 27 -12 31 -30 9
-13 -15 -7 -74 13 -132 11 -34 42 -52 59 -35 18 18 27 87 22 172 -7 120 -12
145 -34 165 -23 21 -30 110 -7 103 6 -3 13 -17 15 -31 2 -17 9 -27 19 -27 13
0 15 10 11 65 -8 91 -32 118 -64 71z"/>
<path d="M12931 10448 c-15 -93 -41 -306 -42 -358 -1 -25 -3 -37 -6 -27 -3 10
-14 17 -29 17 -26 0 -25 -7 -29 160 -3 92 -5 104 -15 65 -11 -48 -12 -313 -1
-319 5 -4 28 -3 51 0 28 5 40 11 36 20 -3 7 -1 16 4 19 6 4 10 24 10 46 0 35
3 39 25 39 24 0 25 -3 25 -55 0 -44 3 -55 16 -55 13 0 15 8 10 48 -3 26 -6 56
-6 67 -1 11 -6 23 -13 27 -9 6 -9 8 1 8 6 0 12 7 12 15 0 8 -8 15 -17 15 -13
0 -14 3 -5 12 14 14 16 108 3 108 -6 0 -11 -21 -13 -47 -2 -27 -7 -48 -13 -48
-13 0 -6 102 11 150 15 44 19 155 5 155 -5 0 -14 -28 -20 -62z"/>
<path d="M12730 10475 c-37 -44 -35 -454 2 -491 23 -24 36 1 47 96 21 162 6
397 -25 407 -6 2 -17 -3 -24 -12z"/>
<path d="M1147 10473 c-6 -10 34 -143 63 -208 12 -27 33 -65 46 -83 14 -18 32
-53 41 -77 8 -25 17 -45 20 -45 20 0 -49 265 -88 342 -30 60 -69 93 -82 71z"/>
<path d="M12673 10282 c3 -106 3 -192 2 -190 -4 3 -8 40 -26 226 -12 123 -25
172 -27 101 -1 -46 -12 -49 -12 -4 0 36 -1 38 -16 23 -14 -14 -15 -31 -5 -154
5 -77 13 -181 17 -231 7 -100 23 -126 25 -40 1 29 4 39 6 22 8 -65 12 -72 36
-68 l22 4 -3 237 c-2 130 -8 244 -14 252 -6 10 -8 -54 -5 -178z"/>
<path d="M14066 10436 c-27 -14 -55 -22 -62 -19 -8 3 -14 -1 -14 -10 0 -14
-46 -38 -133 -68 -20 -7 -36 -18 -34 -24 7 -19 57 -17 92 5 41 25 42 23 15
-30 -11 -22 -20 -43 -20 -47 1 -4 14 18 31 50 16 31 33 57 38 57 13 0 4 -360
-10 -442 -11 -61 -7 -109 8 -95 3 4 7 33 8 65 1 32 7 74 13 93 6 19 13 119 16
224 6 178 13 214 36 200 3 -2 24 12 45 31 45 40 37 43 -29 10z"/>
<path d="M12437 10399 c-20 -30 -34 -109 -19 -109 5 0 13 11 16 25 4 14 11 23
16 20 15 -9 11 -66 -5 -95 -17 -29 -19 -76 -5 -85 22 -14 5 -135 -19 -135 -5
0 -11 10 -13 22 -2 12 -9 23 -15 26 -9 2 -13 -10 -13 -43 0 -84 35 -112 67
-52 13 24 19 60 21 142 2 61 5 146 8 190 4 60 2 85 -9 99 -14 19 -15 19 -30
-5z"/>
<path d="M12516 10398 c-12 -57 -16 -228 -6 -228 5 0 10 5 10 10 0 6 5 10 10
10 11 0 14 -128 4 -154 -9 -25 -24 -19 -24 9 0 14 -4 25 -10 25 -15 0 -12 -93
4 -115 13 -18 14 -17 32 10 16 25 19 49 19 158 0 111 -2 130 -17 141 -22 16
-23 36 -3 62 20 26 20 94 0 94 -8 0 -17 -10 -19 -22z"/>
<path d="M12350 10399 c0 -10 -13 -43 -30 -74 -32 -61 -43 -128 -15 -91 8 11
17 17 20 14 3 -2 -2 -69 -12 -146 -15 -134 -14 -168 6 -146 15 16 54 421 42
441 -9 16 -10 16 -11 2z"/>
<path d="M12178 10383 c-21 -25 -48 -79 -48 -98 0 -24 30 -17 40 10 20 52 63
40 54 -14 -10 -62 -19 -81 -84 -171 -38 -52 -71 -107 -75 -122 -8 -30 -4 -32
87 -42 51 -6 68 7 68 53 0 17 -6 21 -30 21 -41 0 -47 22 -16 62 69 91 106 241
72 293 -19 29 -46 32 -68 8z"/>
<path d="M4140 10205 l0 -86 50 6 c45 6 50 4 50 -13 0 -18 -36 -42 -65 -42
-17 0 -20 -35 -5 -45 5 -3 14 -14 19 -23 8 -15 4 -17 -30 -14 -31 3 -39 1 -39
-12 0 -12 10 -16 38 -16 21 0 43 5 49 11 9 9 17 3 33 -25 25 -41 56 -50 46
-13 -3 12 -6 89 -6 170 0 142 -1 147 -19 138 -16 -9 -20 -7 -25 14 -4 17 -13
25 -29 25 -12 0 -32 3 -44 6 -23 6 -23 5 -23 -81z"/>
<path d="M15716 10147 l-118 -10 6 -631 c6 -652 13 -859 27 -850 5 3 9 14 9
26 0 11 18 103 40 205 22 102 47 246 55 321 9 74 27 201 41 281 26 157 28 182
17 180 -19 -3 -33 2 -33 12 0 7 9 9 24 5 21 -5 24 -2 29 32 4 20 9 52 13 70 5
26 3 32 -10 32 -9 0 -16 -6 -15 -12 3 -27 -2 -37 -15 -32 -12 5 -12 11 4 39
10 18 16 36 12 40 -4 4 3 4 16 1 14 -5 22 -3 22 4 0 6 -5 8 -11 4 -7 -4 -9 1
-7 12 2 11 10 18 16 17 15 -4 16 24 1 29 -9 3 -8 11 1 28 7 14 16 27 20 30 10
7 40 122 40 153 0 31 11 30 -184 14z"/>
<path d="M1474 9978 c-3 -5 -3 -29 1 -54 8 -59 28 -68 124 -60 101 10 118 20
67 41 -21 9 -46 26 -55 37 -19 23 -127 52 -137 36z"/>
<path d="M19085 9941 l-80 -6 -7 -55 c-3 -30 -6 -81 -7 -112 l-1 -58 105 0
105 0 0 120 c0 108 -2 120 -17 118 -10 -1 -54 -4 -98 -7z"/>
<path d="M1555 9803 c-49 -5 -55 -14 -43 -63 l10 -37 101 -5 c127 -7 142 -1
133 55 -4 22 -9 44 -12 49 -5 8 -111 8 -189 1z"/>
<path d="M13138 9793 c-30 -35 -41 -93 -36 -202 5 -107 18 -152 53 -181 15
-12 19 -12 30 3 22 30 27 19 20 -40 -8 -70 -20 -87 -35 -49 -14 38 -36 28 -32
-15 4 -50 33 -103 59 -107 18 -3 23 4 32 48 15 72 13 349 -4 443 -18 104 -51
141 -87 100z"/>
<path d="M12982 9793 c-7 -3 -20 -19 -29 -36 -14 -27 -16 -68 -17 -247 -1
-196 1 -219 19 -255 52 -104 155 -63 155 63 0 44 -38 208 -57 245 -16 31 -37
35 -52 10 -8 -14 -10 -1 -11 50 0 53 3 67 15 67 9 0 15 -9 15 -25 0 -29 0 -29
35 -13 29 13 29 13 10 69 -24 66 -47 87 -83 72z"/>
<path d="M12784 9755 c-24 -37 -26 -158 -3 -163 10 -2 18 9 25 35 11 48 38 51
42 6 2 -17 -8 -73 -22 -125 -14 -51 -28 -127 -32 -168 l-8 -75 -12 70 c-7 39
-13 88 -13 109 -2 82 -12 23 -16 -85 -2 -63 -6 -121 -10 -130 -5 -14 4 -18 59
-24 87 -9 106 -2 106 39 0 43 -21 86 -42 86 -26 0 -23 36 12 126 38 100 44
132 35 199 -12 103 -82 160 -121 100z"/>
<path d="M11975 9741 c-49 -32 -78 -93 -83 -177 -5 -73 -4 -74 31 -109 39 -39
70 -44 118 -19 17 8 33 13 36 10 3 -2 -3 -31 -14 -63 -17 -55 -20 -58 -53 -61
-28 -2 -41 3 -60 23 -47 50 -106 17 -80 -45 33 -80 200 -77 253 4 45 68 81
217 73 298 -11 118 -38 149 -133 155 -46 3 -65 -1 -88 -16z m125 -86 c16 -20
8 -96 -14 -130 -21 -32 -68 -34 -89 -5 -18 25 -6 104 20 132 20 22 66 24 83 3z"/>
<path d="M12551 9734 c-48 -61 -69 -240 -36 -304 16 -32 51 -40 73 -18 18 18
16 -44 -3 -88 -14 -34 -35 -39 -35 -9 0 19 -17 27 -40 20 -35 -11 -17 -113 24
-128 92 -35 152 192 115 436 -17 114 -54 148 -98 91z"/>
<path d="M12362 9658 c-88 -167 -97 -183 -110 -191 -7 -5 -10 -12 -7 -17 3 -4
-1 -10 -9 -13 -7 -3 -12 -18 -11 -36 1 -18 -2 -34 -7 -37 -21 -13 17 -34 61
-34 67 0 86 -17 78 -67 -6 -38 -5 -41 20 -48 31 -7 43 6 43 52 0 22 6 36 20
43 15 8 20 21 20 55 0 25 -5 54 -12 64 -9 15 -9 48 0 148 17 176 17 173 -12
173 -21 0 -33 -14 -74 -92z"/>
<path d="M2074 9718 c15 -52 18 -86 7 -92 -12 -8 -15 -75 -5 -124 5 -23 10
-28 25 -25 10 3 19 0 19 -6 0 -6 -9 -11 -21 -11 -15 0 -19 -5 -15 -17 2 -10 8
-46 11 -80 4 -34 12 -66 18 -71 16 -13 331 -22 369 -11 17 4 36 16 43 26 13
17 16 17 58 2 l44 -16 7 90 c3 50 6 113 6 141 0 58 -31 136 -55 136 -8 0 -15
4 -15 9 0 5 -24 14 -52 20 -66 13 -375 51 -418 51 -29 0 -32 -2 -26 -22z"/>
<path d="M3930 9674 c0 -11 4 -25 9 -33 7 -11 4 -18 -12 -26 -16 -7 -23 -21
-25 -47 -4 -43 -28 -70 -43 -47 -5 8 -9 35 -9 62 0 33 -4 47 -14 47 -9 0 -15
-22 -19 -76 -8 -84 -5 -94 23 -94 11 0 31 -5 45 -12 24 -11 26 -16 25 -72 -3
-132 -6 -125 54 -151 29 -13 56 -31 60 -40 11 -29 7 -62 -10 -76 -14 -11 -18
-10 -30 6 -8 10 -14 22 -14 27 0 13 -17 9 -23 -6 -7 -16 30 -59 44 -51 5 4 9
2 9 -4 0 -6 14 -18 32 -27 30 -15 32 -15 45 2 7 9 16 32 19 50 6 33 33 52 54
39 5 -3 10 -33 10 -66 0 -55 2 -59 23 -59 144 3 279 19 304 35 15 10 49 30 74
44 148 83 167 99 140 116 -13 8 -118 8 -161 1 -44 -8 -60 2 -70 45 l-7 34 -12
-30 c-7 -16 -24 -41 -37 -54 -20 -18 -24 -30 -20 -50 21 -90 20 -93 -5 -89
-20 3 -25 11 -32 56 -7 44 -6 57 8 72 17 19 14 51 -7 77 -26 32 -47 89 -41
108 4 11 6 30 4 42 -1 14 12 35 38 61 23 22 41 45 41 50 0 14 -25 22 -65 22
-31 0 -65 21 -65 39 0 11 -51 33 -59 26 -3 -4 -6 -48 -6 -98 -1 -51 -4 -99 -9
-108 -5 -13 0 -18 25 -23 55 -11 76 -39 39 -51 -28 -9 -25 -23 7 -27 20 -2 32
-14 50 -47 36 -69 32 -78 -34 -87 -67 -8 -82 5 -85 70 0 23 -2 46 -3 51 -2 6
-3 15 -4 21 0 7 -12 15 -26 18 -24 6 -25 10 -25 84 0 100 -13 146 -45 160 -18
8 -25 20 -25 39 0 46 -14 56 -79 61 -55 4 -61 2 -61 -14z"/>
<path d="M1703 9619 c-6 -6 -33 -15 -59 -20 -26 -5 -49 -11 -51 -13 -10 -9 12
-36 37 -44 29 -10 34 -27 42 -132 3 -30 7 -35 32 -38 27 -3 28 -2 22 23 -4 15
-10 41 -13 58 l-6 30 47 -5 c25 -3 49 -2 51 2 9 14 -18 109 -34 124 -24 20
-55 28 -68 15z"/>
<path d="M1928 9608 c-28 -10 -34 -19 -21 -32 4 -4 9 -50 10 -101 2 -121 15
-149 67 -153 l39 -3 -5 93 c-3 58 -11 105 -21 125 -10 18 -17 43 -17 58 0 27
-9 29 -52 13z"/>
<path d="M19172 9403 c-44 -119 -117 -436 -106 -455 3 -4 34 -8 70 -8 l64 0 0
260 c0 143 -2 260 -4 260 -2 0 -13 -26 -24 -57z"/>
<path d="M5450 9410 c0 -5 -19 -22 -42 -36 -24 -15 -56 -39 -73 -55 -41 -38
-118 -101 -145 -119 -45 -30 -110 -81 -110 -87 0 -3 9 -3 21 0 31 8 37 -22 10
-45 -31 -24 -44 -23 -91 8 l-40 26 -62 -25 c-35 -14 -77 -31 -95 -37 -18 -7
-38 -18 -44 -26 -15 -18 -2 -18 199 -2 l154 12 66 61 c37 34 128 114 202 180
74 65 136 126 138 137 3 15 -3 18 -42 18 -25 0 -46 -4 -46 -10z"/>
<path d="M3077 9303 c-4 -3 -7 -22 -7 -40 0 -29 5 -36 30 -45 35 -12 35 -30
-1 -38 -13 -3 -24 -11 -23 -18 1 -7 2 -25 3 -42 1 -26 5 -30 30 -30 21 0 34 9
52 35 13 19 27 35 32 35 4 0 7 6 7 14 0 8 11 28 25 44 29 35 31 42 10 42 -8 0
-38 11 -67 25 -52 25 -79 31 -91 18z"/>
<path d="M2273 9107 c-23 -7 -44 -15 -48 -18 -11 -11 13 -302 30 -371 15 -56
15 -81 6 -165 -6 -55 -17 -117 -25 -140 -12 -34 -12 -47 -1 -79 7 -22 18 -85
25 -142 8 -57 17 -105 21 -108 5 -3 32 2 61 11 31 9 70 13 93 10 22 -3 62 -7
90 -9 29 -3 54 -11 61 -20 6 -9 20 -16 31 -16 17 0 21 9 27 53 8 68 8 309 -1
619 l-6 247 -71 3 c-39 2 -93 -2 -120 -9 -35 -9 -63 -9 -94 -2 -24 5 -48 7
-53 3 -6 -3 -21 -3 -35 0 -29 8 -31 31 -8 80 13 26 25 36 51 41 18 3 31 10 28
16 -7 11 -7 11 -62 -4z"/>
<path d="M3617 9104 c-25 -13 -27 -18 -21 -57 5 -28 15 -49 33 -64 21 -17 23
-24 14 -34 -13 -13 -45 -7 -128 23 -16 6 -41 10 -55 9 -14 0 -55 -2 -92 -3
-57 -3 -70 -6 -83 -25 -20 -29 -27 -29 -63 2 -32 26 -73 32 -116 15 -24 -9
-26 -14 -26 -77 0 -80 15 -142 36 -150 8 -3 13 -12 10 -19 -3 -8 0 -14 7 -14
7 0 21 -3 33 -6 13 -3 28 1 37 11 13 12 21 14 34 6 14 -8 15 -11 3 -11 -8 -1
-4 -6 10 -12 l25 -11 -34 -9 c-22 -6 -36 -6 -40 1 -4 6 -12 7 -21 0 -13 -8
-13 -11 2 -23 12 -8 14 -16 7 -23 -12 -12 19 -11 39 1 18 11 14 -5 -5 -19 -15
-11 -15 -13 5 -24 13 -7 20 -16 17 -21 -3 -5 -1 -19 5 -30 8 -16 8 -20 -4 -20
-7 0 -17 -7 -20 -17 -6 -15 -8 -14 -20 2 -16 23 -46 13 -46 -15 0 -18 16 -26
43 -21 4 1 7 -4 6 -11 -4 -30 2 -58 15 -70 10 -11 11 -27 3 -76 -6 -37 -14
-59 -20 -55 -6 4 -8 -2 -5 -13 4 -16 -1 -19 -28 -20 -17 0 -44 -8 -59 -18 -23
-15 -26 -22 -20 -49 4 -18 8 -50 9 -72 1 -38 3 -40 41 -50 26 -6 55 -25 83
-54 43 -44 46 -45 115 -48 109 -6 140 -4 177 9 26 10 93 27 150 39 30 6 72 22
92 36 47 32 109 41 130 19 9 -9 23 -16 30 -16 7 0 30 -14 50 -30 l37 -30 28
26 28 26 -34 28 c-34 27 -34 28 -13 39 24 13 29 40 10 59 -7 7 -34 12 -60 12
-45 0 -92 19 -109 44 -4 5 -10 25 -13 46 -3 23 -24 59 -55 98 -52 64 -72 121
-52 145 6 8 28 19 48 25 l38 11 0 153 c0 183 18 296 49 307 20 8 20 8 -2 27
-12 10 -39 21 -60 24 -28 4 -40 12 -50 33 -9 18 -21 27 -36 27 -13 0 -29 7
-36 15 -16 19 -37 18 -73 -1z"/>
<path d="M940 8926 c-6 -17 -10 -161 -10 -376 0 -302 2 -349 15 -354 27 -10
279 -19 329 -12 47 7 47 8 46 44 -1 20 -1 39 0 42 1 3 4 14 7 25 10 32 10 636
0 642 -5 3 -91 8 -192 11 l-184 5 -11 -27z"/>
<path d="M0 8813 l0 -85 122 3 123 4 3 -106 c2 -70 0 -109 -7 -114 -6 -3 -24
3 -40 14 -33 24 -43 18 -34 -17 l6 -25 -87 8 -86 7 0 -95 0 -94 73 -6 c213
-19 272 -20 284 -6 16 21 22 544 6 560 -7 7 -61 16 -125 20 -62 5 -141 10
-175 13 l-63 5 0 -86z"/>
<path d="M3868 8704 c-3 -80 3 -158 13 -169 10 -10 211 -17 242 -9 11 4 17 15
17 35 0 33 -46 153 -64 168 -7 6 -56 14 -109 17 l-97 7 -2 -49z"/>
<path d="M15559 8489 c-31 -31 -67 -116 -75 -175 -11 -88 25 -155 75 -139 24
7 66 68 86 124 20 57 20 160 -1 189 -19 28 -58 28 -85 1z"/>
<path d="M1770 8270 c-6 -12 -22 -59 -34 -104 -36 -126 -33 -384 3 -361 5 3
20 31 32 63 19 49 22 80 24 229 2 176 -3 214 -25 173z"/>
<path d="M480 8243 c-80 -14 -113 -40 -89 -69 26 -32 181 -46 247 -23 28 10
31 14 25 37 -8 34 -15 39 -72 47 -25 3 -55 8 -66 10 -11 1 -31 1 -45 -2z"/>
<path d="M2101 7954 c-11 -14 -32 -49 -45 -78 -24 -50 -77 -103 -216 -216 -67
-54 -71 -60 -60 -80 4 -8 10 -57 12 -107 2 -76 0 -94 -15 -110 -12 -14 -17
-36 -17 -76 l0 -57 155 0 c103 0 155 -4 155 -11 0 -6 -24 -35 -52 -64 -29 -30
-65 -69 -79 -87 -27 -32 -27 -32 -109 -30 -79 2 -81 2 -78 -20 2 -16 13 -25
43 -33 22 -5 45 -13 52 -18 17 -11 4 -44 -24 -62 -14 -9 -22 -19 -19 -22 7 -7
-19 -33 -33 -33 -13 0 -31 -33 -31 -55 0 -11 32 15 83 66 46 46 122 119 169
162 55 50 88 88 91 105 5 26 28 53 111 131 42 40 44 48 12 62 -17 8 -28 27
-39 68 -23 82 -26 113 -33 361 -4 124 -8 226 -9 228 -2 2 -12 -9 -24 -24z"/>
<path d="M2710 7780 c-8 -15 -21 -20 -53 -19 -98 1 -146 -22 -117 -56 13 -15
60 -21 60 -7 0 4 28 7 63 6 74 0 102 8 117 35 8 17 7 24 -10 41 -25 25 -46 26
-60 0z"/>
<path d="M6967 6164 c-11 -11 -8 -59 4 -71 6 -6 16 -33 21 -60 10 -52 15 -75
18 -83 1 -3 1 -13 0 -24 -1 -12 3 -16 10 -11 9 6 9 2 1 -14 -15 -26 -1 -60 16
-39 15 19 22 67 10 71 -6 2 -7 9 -2 17 14 23 3 159 -14 170 -5 3 -10 14 -12
25 -4 20 -38 32 -52 19z"/>
</g>
</svg>
