<?xml version="1.0" standalone="no"?>
<!DOCTYPE svg PUBLIC "-//W3C//DTD SVG 20010904//EN"
 "http://www.w3.org/TR/2001/REC-SVG-20010904/DTD/svg10.dtd">
<svg version="1.0" xmlns="http://www.w3.org/2000/svg"
 width="1920.000000pt" height="1080.000000pt" viewBox="0 0 1920.000000 1080.000000"
 preserveAspectRatio="xMidYMid meet">
<metadata>
Created by potrace 1.15, written by Peter Selinger 2001-2017
</metadata>
<g transform="translate(0.000000,1080.000000) scale(0.100000,-0.100000)"
fill="#000000" stroke="none">
<path d="M1553 10783 c3 -10 15 -43 27 -73 12 -30 30 -84 40 -120 9 -36 29
-94 44 -130 15 -36 30 -76 32 -90 3 -14 18 -58 34 -98 16 -40 37 -100 46 -135
9 -34 27 -86 40 -115 13 -29 24 -58 24 -65 0 -7 12 -42 26 -78 14 -35 43 -113
64 -174 21 -60 42 -123 48 -140 59 -167 92 -265 98 -290 4 -16 23 -70 42 -120
19 -49 36 -100 38 -113 3 -12 16 -47 30 -78 14 -30 26 -71 27 -90 1 -19 5 -34
8 -34 4 0 9 -8 12 -17 5 -18 58 -166 142 -398 58 -161 107 -303 146 -420 16
-49 35 -103 43 -120 7 -16 21 -55 31 -85 9 -30 33 -92 51 -137 19 -45 34 -88
34 -96 0 -8 14 -48 31 -88 32 -78 59 -159 54 -159 -4 0 13 -45 35 -95 4 -11
11 -29 15 -40 59 -163 78 -218 92 -260 8 -27 25 -70 36 -95 29 -66 129 -344
254 -705 41 -121 84 -242 93 -270 90 -251 507 -1472 526 -1539 20 -70 75 -218
89 -236 17 -23 41 -107 56 -190 7 -41 18 -84 26 -95 7 -11 13 -27 13 -37 0 -9
9 -22 20 -28 20 -11 43 -77 55 -160 4 -25 17 -63 29 -85 43 -77 128 -334 143
-430 3 -22 9 -44 13 -50 20 -27 66 -203 62 -237 -1 -10 3 -18 8 -18 6 0 15
-12 21 -27 32 -81 49 -129 49 -144 0 -9 11 -24 24 -33 14 -8 27 -25 31 -36 4
-13 15 -20 33 -20 40 0 86 -33 107 -76 29 -61 32 -161 5 -220 l-21 -49 22 -70
c12 -38 31 -95 42 -125 10 -30 27 -82 37 -115 10 -33 33 -98 50 -145 42 -114
73 -207 106 -315 15 -49 31 -97 36 -105 4 -8 23 -60 42 -115 18 -55 41 -120
49 -145 9 -25 28 -79 42 -120 14 -41 35 -107 46 -147 11 -40 28 -87 38 -105
10 -18 29 -67 40 -108 12 -41 31 -100 42 -130 35 -93 57 -163 63 -200 11 -69
35 -139 57 -169 l23 -31 123 0 c68 0 123 3 123 8 0 13 -41 145 -66 210 -13 34
-24 67 -24 73 0 6 -7 27 -16 47 -35 79 -43 100 -69 187 -15 50 -35 108 -45
130 -10 22 -39 105 -65 185 -26 80 -62 184 -81 232 -19 48 -34 97 -34 109 0
11 -15 55 -33 97 -19 43 -37 92 -40 109 -4 18 -19 67 -35 110 -34 91 -42 113
-135 378 -38 110 -80 236 -92 280 -12 44 -29 94 -38 110 -16 30 -16 29 -17
-67 l0 -98 -34 0 -34 0 -4 228 -4 227 -66 185 c-36 102 -83 239 -104 305 -20
66 -48 143 -61 170 -12 28 -23 60 -23 73 0 13 -13 51 -28 85 -16 34 -37 89
-47 122 -10 33 -29 92 -42 132 -12 39 -23 78 -23 86 0 8 -11 34 -24 58 -13 24
-32 73 -42 109 -9 36 -25 82 -36 102 -10 21 -18 55 -18 77 0 22 -5 52 -11 68
-23 56 -121 342 -175 508 -30 94 -60 181 -66 195 -5 14 -25 70 -44 125 -18 55
-54 159 -79 230 -25 72 -75 216 -110 320 -36 105 -88 255 -115 335 -28 80 -64
183 -80 230 -16 47 -47 137 -70 200 -49 137 -121 357 -226 685 -91 284 -279
849 -364 1095 -34 96 -69 200 -79 230 -10 30 -26 71 -34 90 -8 19 -32 89 -52
155 -20 66 -41 130 -46 143 -5 12 -13 32 -18 45 -6 12 -23 63 -40 112 -27 81
-100 291 -197 570 -20 55 -36 105 -38 110 -5 22 -39 122 -51 150 -8 17 -23 62
-35 100 -13 39 -58 176 -102 305 -44 129 -86 258 -95 285 -8 28 -44 127 -78
220 -35 94 -67 184 -72 200 l-10 30 -173 3 c-161 2 -172 1 -167 -15z"/>
<path d="M14203 10793 c4 -3 2 -12 -4 -20 -7 -7 -7 -13 -2 -13 6 0 10 -12 10
-27 1 -31 5 -52 15 -68 3 -5 9 -32 13 -60 11 -70 12 -75 25 -120 6 -22 13 -56
16 -75 3 -19 8 -37 12 -40 4 -3 7 -23 8 -45 0 -22 12 -92 26 -155 15 -63 24
-118 21 -123 -2 -4 0 -13 5 -20 10 -12 29 -88 37 -142 2 -16 11 -57 20 -89 9
-33 14 -65 11 -72 -3 -7 -1 -14 4 -16 8 -3 16 -35 24 -98 4 -29 9 -52 35 -186
11 -54 17 -102 14 -107 -2 -4 0 -13 5 -20 9 -12 20 -59 28 -126 3 -19 7 -37 9
-41 4 -6 17 -116 18 -147 0 -7 4 -13 7 -13 4 0 8 -10 8 -22 0 -13 9 -63 21
-113 11 -49 20 -108 21 -130 1 -68 5 -90 17 -98 7 -4 10 -14 7 -21 -3 -8 -1
-24 5 -35 6 -11 13 -33 15 -48 3 -15 9 -43 15 -62 6 -19 8 -44 5 -57 -3 -12 6
-57 21 -101 15 -43 29 -87 30 -98 2 -11 15 -63 28 -115 14 -52 24 -114 23
-137 0 -24 3 -43 8 -43 5 0 7 -3 3 -6 -3 -3 1 -27 9 -52 21 -72 65 -284 59
-290 -2 -3 0 -11 6 -18 6 -7 13 -28 16 -46 2 -18 11 -59 18 -91 8 -33 11 -65
9 -72 -3 -7 -1 -16 5 -19 6 -4 8 -13 5 -20 -3 -8 0 -31 6 -53 31 -104 52 -196
60 -268 5 -44 20 -123 35 -175 26 -97 38 -180 25 -180 -9 0 -6 -32 4 -48 4 -7
9 -25 12 -40 3 -15 11 -43 18 -62 8 -20 17 -53 20 -75 4 -22 9 -48 12 -57 3
-12 0 -18 -9 -18 -13 0 -13 -7 -3 -47 7 -27 20 -62 29 -80 10 -18 17 -41 17
-52 0 -11 5 -23 10 -26 6 -3 10 -17 10 -31 0 -14 5 -34 11 -45 7 -15 7 -24 -2
-35 -8 -10 -8 -14 0 -14 6 0 11 -9 11 -20 0 -11 -5 -20 -11 -20 -8 0 -8 -5 1
-15 10 -12 10 -15 0 -15 -8 0 -9 -4 -3 -12 12 -17 46 -112 76 -215 17 -58 21
-85 13 -93 -7 -7 -7 -16 2 -30 9 -14 9 -20 1 -20 -8 0 -8 -4 -2 -12 9 -13 14
-29 52 -163 19 -67 22 -98 9 -110 -10 -10 3 -87 20 -120 27 -53 53 -169 44
-194 -4 -11 -7 -10 -14 5 -5 12 -7 0 -4 -33 3 -29 13 -69 22 -89 10 -20 17
-42 17 -50 0 -8 4 -14 8 -14 4 0 10 -12 14 -27 5 -16 10 -35 12 -43 3 -8 5
-23 6 -32 1 -10 5 -18 10 -18 4 0 5 -5 2 -11 -5 -6 -11 -4 -19 7 -17 22 -31 2
-17 -24 6 -11 8 -22 5 -25 -8 -7 15 -108 27 -123 5 -6 7 -18 4 -26 -4 -9 1
-18 12 -22 15 -6 15 -8 3 -16 -10 -7 -11 -10 -2 -10 7 0 12 -12 12 -27 -1 -55
33 -202 61 -261 54 -116 79 -220 52 -214 -7 1 -13 -7 -13 -18 0 -11 4 -20 8
-20 5 0 9 -6 10 -12 3 -42 13 -82 22 -93 12 -14 45 -113 55 -165 7 -33 6 -34
-8 -15 -14 19 -15 17 -11 -20 3 -22 11 -56 18 -75 7 -19 11 -41 9 -47 -3 -7 0
-13 5 -13 5 0 13 -10 17 -22 4 -13 8 -25 10 -28 9 -22 45 -143 45 -153 0 -4
-7 -7 -16 -7 -11 0 -14 -5 -9 -17 4 -10 9 -32 11 -50 3 -18 17 -60 33 -94 16
-33 33 -80 36 -103 4 -22 11 -46 17 -53 5 -7 5 -14 -1 -17 -6 -4 -8 -13 -4
-21 3 -8 0 -15 -6 -15 -6 0 -11 5 -11 12 0 6 -2 9 -5 7 -8 -9 24 -123 54 -194
32 -74 38 -107 20 -103 -19 5 -18 -51 2 -129 10 -42 19 -85 19 -95 0 -11 4
-17 9 -13 19 11 31 -33 25 -90 -4 -41 -2 -55 6 -50 6 4 9 13 6 21 -3 7 -1 16
3 19 5 2 11 -4 14 -15 3 -11 1 -20 -5 -20 -5 0 -6 -4 -3 -10 3 -5 -1 -10 -10
-10 -12 0 -13 -4 -6 -18 5 -10 12 -40 15 -67 3 -27 12 -52 19 -57 6 -4 8 -8 2
-8 -5 0 -2 -7 8 -15 12 -8 19 -27 20 -49 1 -20 5 -36 9 -36 4 0 8 -8 8 -18 0
-10 5 -23 11 -29 8 -8 8 -16 0 -30 -6 -10 -11 -12 -11 -5 0 6 -4 12 -9 12 -5
0 -5 -16 0 -37 5 -21 9 -57 9 -80 0 -25 5 -43 11 -43 7 0 9 -9 5 -24 -4 -19
-1 -25 15 -29 17 -5 20 -11 17 -31 -3 -16 -1 -26 7 -26 19 0 36 -45 22 -59
-12 -12 -11 -79 2 -96 5 -5 7 -27 6 -47 -2 -21 1 -38 6 -38 5 0 9 -9 9 -20 0
-11 4 -20 9 -20 11 0 32 -56 24 -64 -4 -3 -1 -6 6 -6 9 0 12 -10 9 -31 -3 -20
0 -33 9 -36 18 -7 17 -29 -2 -37 -11 -4 -13 -18 -9 -63 5 -54 7 -72 21 -160 3
-18 8 -31 12 -29 4 3 8 -3 9 -12 1 -9 5 -43 10 -75 5 -38 5 -57 -2 -57 -6 0
-5 -4 2 -8 7 -5 12 -22 10 -38 -1 -18 7 -43 20 -61 12 -17 22 -38 22 -47 0 -9
3 -16 8 -16 4 0 8 -12 10 -27 11 -112 12 -139 4 -150 -10 -15 -77 -17 -264 -8
-117 6 -165 4 -235 -8 -162 -30 -262 -37 -418 -28 -169 9 -243 6 -360 -15 -87
-16 -125 -35 -125 -63 0 -40 23 -80 60 -106 38 -27 57 -56 46 -73 -13 -21 22
-45 72 -50 49 -4 52 -3 62 22 5 15 10 47 10 72 0 36 6 51 33 79 l32 35 93 -9
c98 -9 164 -1 220 25 34 16 132 38 218 48 43 5 56 3 85 -17 39 -26 98 -108
106 -149 3 -15 13 -33 22 -41 23 -20 157 -40 181 -27 26 14 72 12 111 -4 19
-8 49 -16 68 -19 18 -3 38 -10 44 -16 14 -14 413 -15 421 -2 6 10 91 21 171
22 28 0 460 1 960 1 501 0 953 2 1005 3 52 2 139 3 193 4 l97 1 0 146 0 145
-232 -8 c-291 -10 -1305 -10 -1783 0 -395 8 -443 15 -508 68 -22 18 -38 41
-42 62 -3 17 -10 50 -16 72 -9 34 -7 50 10 95 25 65 26 96 7 147 -32 83 -79
274 -92 372 -3 19 -8 39 -11 45 -4 6 -8 16 -9 21 -3 15 -12 55 -24 104 -6 24
-8 46 -5 49 2 3 1 10 -4 16 -5 6 -11 31 -14 56 -4 25 -11 61 -17 80 -6 19 -22
91 -36 160 -24 117 -55 236 -88 340 -8 25 -17 59 -20 75 -3 17 -17 82 -32 145
-14 63 -27 122 -28 130 -1 9 -5 20 -8 25 -3 6 -9 33 -12 60 -15 101 -18 117
-42 213 -14 53 -32 131 -39 172 -14 79 -30 151 -39 185 -10 36 -46 188 -66
280 -11 50 -24 104 -29 120 -5 17 -16 66 -25 110 -10 44 -22 100 -27 125 -6
25 -13 56 -15 70 -11 62 -34 169 -39 181 -3 8 -7 32 -10 54 -3 22 -11 74 -20
115 -13 68 -32 184 -40 250 -1 14 -7 43 -13 65 -6 22 -16 74 -23 115 -7 41
-13 77 -14 80 -1 3 -5 23 -9 45 -4 22 -17 84 -28 138 -11 54 -18 107 -15 117
3 11 1 22 -3 25 -4 3 -8 27 -8 54 -1 27 -5 58 -11 68 -11 21 -28 104 -36 178
-8 66 -23 137 -45 205 -10 31 -23 88 -29 127 -16 91 -17 95 -24 113 -4 8 -16
50 -27 93 -11 43 -22 82 -24 86 -3 5 -8 26 -11 47 -10 61 -13 79 -15 79 -1 0
-4 14 -6 30 -5 43 -9 64 -24 115 -6 25 -14 55 -16 67 -2 12 -9 34 -14 49 -6
14 -8 29 -5 34 3 5 0 12 -5 15 -6 4 -10 17 -9 28 1 12 -2 30 -6 40 -4 10 -5
21 -2 24 4 3 2 13 -3 23 -5 9 -12 32 -15 51 -3 19 -14 68 -25 109 -10 41 -21
95 -24 120 -3 25 -8 56 -11 70 -3 14 -10 48 -16 75 -22 99 -30 141 -40 200 -5
33 -21 112 -34 175 -14 63 -26 122 -26 130 -1 8 -6 38 -11 65 -5 28 -11 66
-14 85 -2 19 -12 62 -20 95 -19 69 -34 145 -40 194 -2 19 -7 37 -11 40 -4 3
-9 15 -10 26 -2 21 -20 137 -26 168 -2 10 -10 23 -18 28 -11 7 -11 9 0 9 9 0
11 6 6 18 -4 9 -11 37 -16 62 -4 25 -17 80 -28 123 -11 43 -22 97 -25 120 -7
50 -22 123 -37 181 -6 22 -13 52 -15 66 -3 14 -9 39 -14 55 -5 17 -14 66 -20
110 -6 44 -15 97 -19 118 -5 20 -7 37 -4 37 3 0 1 6 -4 13 -12 14 -22 73 -29
162 -3 33 -11 83 -19 110 -35 123 -66 267 -70 321 -1 11 -5 26 -9 32 -9 16
-25 84 -31 132 -1 14 -5 32 -8 40 -3 8 -8 35 -11 60 -2 25 -7 56 -10 70 -3 14
-9 39 -13 55 -9 40 -11 53 -18 95 -4 19 -9 42 -12 50 -4 8 -8 29 -9 45 -2 17
-6 55 -9 85 -4 30 -7 62 -7 70 0 8 -5 20 -9 26 -5 6 -11 33 -14 60 -3 27 -8
67 -12 89 -4 22 -8 45 -9 50 -1 6 -3 12 -4 15 -1 3 -4 18 -6 34 -2 16 -6 36
-10 45 -10 21 -13 44 -15 109 0 28 -5 52 -10 52 -5 0 -8 8 -7 18 4 54 12 52
-179 52 -97 0 -173 -3 -170 -7z"/>
<path d="M6600 10758 c-30 -3 -89 -6 -130 -7 -91 -1 -353 -32 -360 -43 -7 -10
-118 -48 -139 -48 -9 0 -29 -7 -45 -15 -15 -8 -37 -15 -47 -15 -11 0 -19 -4
-19 -10 0 -5 5 -10 11 -10 15 0 106 30 144 47 17 7 55 17 85 22 359 60 332 57
599 54 189 -2 268 -6 305 -17 28 -8 76 -18 106 -21 63 -7 104 -25 55 -24 -16
0 -50 4 -75 9 -25 4 -47 4 -50 0 -7 -12 -58 -31 -95 -37 -16 -2 -46 -8 -65
-14 -56 -14 -89 -11 -123 15 -18 12 -40 26 -49 29 -31 11 -19 -10 17 -32 43
-25 44 -36 4 -50 -42 -15 -69 -14 -70 2 0 6 -4 3 -9 -9 -6 -15 -27 -26 -73
-38 -36 -10 -74 -24 -84 -32 -10 -7 -28 -14 -40 -14 -12 0 -25 -4 -28 -10 -3
-5 -13 -10 -22 -10 -18 0 -143 -48 -155 -59 -5 -4 7 -5 26 -3 19 2 42 0 52 -6
15 -8 12 -13 -24 -37 -44 -29 -77 -29 -106 0 -15 16 -56 21 -56 7 0 -5 -12
-13 -27 -20 -26 -11 -25 -11 14 -7 24 3 45 1 49 -6 9 -14 -53 -78 -93 -95 -17
-8 -35 -18 -38 -24 -4 -6 -11 -8 -16 -4 -6 3 -18 -4 -26 -16 -13 -18 -22 -21
-57 -16 -56 8 -115 24 -93 25 9 1 17 8 17 16 0 19 -4 19 -39 0 -36 -18 -131
-14 -185 9 -46 19 -47 19 -41 3 4 -9 -7 -11 -42 -9 -98 5 -279 24 -323 33 -25
5 -74 10 -110 12 -51 2 -64 6 -62 17 2 8 1 12 -3 8 -14 -13 -195 54 -195 73 0
5 -12 9 -27 9 -16 0 -47 9 -70 19 -69 32 -222 66 -236 52 -8 -8 -3 -11 19 -11
17 0 55 -7 84 -16 53 -16 54 -16 30 -30 -14 -7 -32 -13 -40 -14 -35 -1 -90
-22 -90 -35 0 -11 7 -12 33 -4 17 5 46 7 62 4 17 -3 24 -2 18 1 -10 4 -10 9 1
20 19 18 55 18 62 -1 4 -8 13 -15 21 -15 8 0 26 -8 39 -19 23 -18 23 -19 -101
-20 -130 -2 -176 9 -153 36 8 10 5 13 -11 13 -18 0 -21 -4 -16 -20 6 -18 2
-20 -42 -21 -26 -1 -53 -1 -60 0 -6 1 -15 -4 -19 -10 -5 -9 -2 -10 9 -6 9 3
19 2 22 -3 4 -6 17 -7 30 -4 13 3 37 -1 54 -10 17 -9 31 -12 31 -7 0 5 33 7
73 5 268 -13 265 -12 411 -107 85 -56 169 -124 263 -215 24 -24 49 -42 55 -40
16 6 -117 146 -190 202 -35 26 -61 50 -59 53 9 8 50 -18 116 -74 35 -29 66
-52 68 -49 7 7 -66 74 -100 92 -16 9 -26 18 -23 21 10 11 -16 33 -38 33 -26 0
-64 25 -54 36 10 9 122 -48 120 -61 0 -5 32 -25 71 -43 143 -67 257 -134 257
-152 0 -11 -47 -60 -58 -60 -5 0 -22 18 -37 40 -15 22 -31 38 -35 35 -4 -3
-25 9 -45 25 -21 17 -39 30 -41 30 -10 0 0 -12 46 -61 50 -53 59 -69 39 -69
-5 0 -8 -4 -4 -9 3 -5 2 -12 -3 -15 -10 -6 -127 29 -222 67 -124 48 -281 79
-409 78 -64 0 -132 -4 -151 -9 -25 -6 7 -8 105 -8 103 0 157 -4 205 -18 36 -9
84 -22 108 -28 23 -6 42 -15 42 -20 0 -5 8 -7 18 -4 21 7 126 -23 200 -56 26
-12 54 -22 62 -24 26 -5 60 -27 60 -39 0 -7 -10 -24 -21 -39 -12 -15 -19 -30
-15 -33 7 -7 45 38 46 55 1 33 100 -19 100 -53 0 -7 10 -20 23 -29 l22 -16
-25 -17 c-26 -19 -33 -26 -95 -100 -57 -68 -106 -110 -138 -118 -23 -6 -27 -4
-27 14 0 22 -16 29 -22 10 -3 -8 -14 -7 -36 5 -41 21 -82 37 -82 31 0 -3 23
-16 50 -30 28 -14 50 -31 50 -39 0 -9 8 -12 25 -8 27 5 35 -15 10 -24 -8 -4
-30 -21 -49 -40 -19 -19 -43 -34 -55 -34 -14 0 -21 -6 -21 -19 0 -11 -9 -22
-19 -26 -11 -3 -22 -14 -26 -24 -3 -9 -25 -30 -50 -45 -25 -16 -45 -33 -45
-37 0 -15 -21 -10 -52 13 l-30 21 11 -21 c6 -12 19 -25 29 -31 9 -5 14 -12 11
-15 -9 -9 -279 124 -286 139 -7 21 -142 159 -149 153 -3 -3 8 -21 24 -39 16
-19 38 -48 49 -66 27 -45 120 -114 225 -168 l89 -46 -26 -31 c-15 -17 -38 -40
-51 -51 -34 -26 -60 -82 -68 -144 -7 -58 1 -80 77 -202 23 -36 48 -79 56 -96
28 -61 56 -112 112 -200 52 -84 109 -187 109 -200 0 -3 -19 -6 -42 -7 l-43 -1
50 -6 c48 -6 51 -8 77 -56 36 -66 145 -313 153 -347 4 -16 11 -28 16 -28 5 0
6 -7 2 -16 -3 -9 3 -23 16 -35 33 -31 25 -39 -37 -39 -79 0 -80 -23 -3 -39 83
-18 92 -21 85 -32 -3 -6 2 -16 11 -23 10 -7 16 -22 13 -37 -3 -21 -7 -24 -42
-22 -21 2 -44 7 -50 11 -17 14 -78 24 -71 12 3 -6 13 -10 21 -10 8 0 14 -4 14
-10 0 -5 10 -10 23 -10 26 0 56 -38 35 -45 -22 -7 -99 -16 -183 -22 -79 -5
-80 -6 -45 -18 l35 -13 -37 -1 c-21 -1 -38 4 -38 9 0 6 -12 21 -26 33 -19 17
-35 22 -60 19 -34 -4 -43 -15 -24 -27 6 -3 10 -1 10 5 0 7 7 7 22 -1 22 -12
22 -12 3 -20 -18 -7 -17 -8 6 -8 17 -1 29 -9 37 -26 12 -27 32 -31 64 -14 11
6 37 12 57 14 20 1 70 5 111 8 41 4 67 4 57 1 -12 -4 -16 -12 -12 -23 9 -29
-33 -48 -118 -56 -63 -6 -79 -5 -92 9 -21 21 -36 21 -28 -1 5 -13 1 -15 -23
-10 -16 3 -42 11 -59 18 -16 7 -34 11 -40 10 -18 -5 -115 31 -152 56 -20 14
-48 29 -62 34 -24 10 -25 10 -7 -10 24 -26 167 -95 244 -117 34 -9 59 -21 54
-26 -4 -4 -22 -4 -40 1 -25 8 -32 7 -32 -5 0 -20 -48 -18 -52 2 -2 11 -16 17
-45 19 -27 2 -58 15 -88 35 -77 53 -62 26 19 -35 83 -63 95 -85 44 -85 -52 0
-27 -8 45 -14 37 -4 93 -13 124 -21 32 -8 66 -15 78 -15 11 0 37 -5 58 -11 32
-9 42 -18 58 -53 25 -58 58 -98 75 -92 8 3 13 0 11 -6 -1 -6 20 -18 47 -26 44
-13 68 -12 201 2 198 21 205 21 205 -4 0 -11 -3 -20 -7 -21 -5 -1 -24 -4 -43
-6 -19 -3 -82 -6 -139 -6 -80 0 -100 -2 -85 -11 11 -6 64 -10 127 -10 106 1
107 1 100 -20 -5 -11 -7 -56 -6 -98 l2 -78 -27 -1 c-15 0 -43 -2 -62 -4 -58
-6 -156 12 -212 39 -53 25 -83 51 -160 136 l-40 45 23 -43 c54 -100 165 -182
271 -198 20 -4 35 -10 32 -15 -3 -5 37 -10 88 -10 51 -1 85 -3 75 -6 -30 -8
-13 -28 24 -28 19 0 34 -4 34 -10 -1 -19 -36 -130 -47 -150 -6 -11 -20 -37
-31 -57 -20 -38 -68 -68 -105 -68 -12 0 -24 -4 -27 -10 -3 -5 2 -10 11 -10 23
0 124 -50 147 -73 15 -15 21 -17 27 -6 12 19 -31 55 -74 63 -20 4 -36 11 -36
17 0 14 71 4 80 -11 6 -10 15 -10 40 -1 42 14 40 15 40 -12 0 -22 27 -57 43
-57 4 0 7 9 7 21 0 11 8 31 18 44 18 22 19 22 30 4 17 -27 15 -31 -10 -24 -22
6 -22 6 -4 -9 11 -9 23 -16 28 -16 4 0 8 -5 8 -11 0 -5 16 -27 36 -48 21 -21
42 -53 48 -72 9 -27 16 -33 35 -31 22 2 23 0 16 -44 -6 -40 -3 -52 25 -97 21
-35 48 -62 81 -82 79 -47 96 -63 103 -92 11 -48 37 -136 52 -176 8 -20 14 -46
14 -56 0 -11 30 -81 66 -157 44 -93 64 -146 61 -163 -4 -17 3 -33 24 -55 41
-44 35 -61 -24 -61 -59 0 -60 -11 -2 -26 25 -6 48 -15 51 -20 3 -5 15 -9 27
-10 25 -1 73 -53 82 -91 6 -21 2 -28 -17 -34 -12 -4 -32 -7 -43 -6 -11 1 -14
-1 -7 -4 6 -3 12 -12 12 -20 0 -9 11 -14 34 -14 27 0 36 -5 41 -21 5 -16 9
-18 15 -9 9 15 30 5 30 -16 0 -8 7 -14 15 -14 8 0 15 -5 15 -11 0 -5 -4 -7
-10 -4 -5 3 -10 2 -10 -3 0 -5 13 -16 30 -24 58 -28 75 -67 110 -253 9 -50 14
-114 11 -149 -1 -16 -3 -16 -17 -6 -12 11 -15 11 -12 -1 2 -8 8 -17 13 -21 6
-4 1 -8 -10 -8 -18 -1 -18 -2 -3 -11 10 -5 15 -16 11 -25 -5 -13 -7 -13 -14
-2 -7 11 -9 11 -9 0 0 -8 9 -16 20 -19 11 -3 20 -9 20 -14 0 -5 7 -9 15 -9 8
0 15 -5 15 -11 0 -5 -5 -7 -12 -3 -7 4 -2 -7 11 -24 12 -18 28 -32 35 -32 21
0 62 -43 74 -79 16 -45 16 -44 -13 -39 -28 6 -34 -12 -11 -34 9 -10 11 -20 5
-30 -6 -11 -4 -18 6 -22 8 -3 15 -1 15 4 0 16 37 11 44 -6 8 -22 8 -59 -1 -68
-5 -4 -8 -13 -8 -19 0 -6 -15 -15 -32 -19 -18 -5 -33 -13 -33 -19 0 -6 5 -7
10 -4 6 3 10 1 10 -4 0 -6 15 -11 33 -11 21 0 36 -7 45 -20 7 -12 8 -20 2 -20
-5 0 -10 4 -10 8 0 4 -11 9 -26 10 -14 1 -23 -2 -19 -8 3 -6 2 -10 -3 -10 -6
0 -8 -9 -5 -19 3 -13 15 -21 34 -23 29 -3 29 -4 14 -26 -10 -13 -21 -19 -28
-15 -7 4 -18 8 -25 9 -21 4 -27 13 -14 26 18 18 -13 41 -46 33 l-27 -8 25 -8
c21 -7 18 -8 -14 -6 -26 1 -41 -3 -44 -12 -3 -9 0 -11 8 -6 13 8 30 -10 30
-33 0 -8 -8 -10 -25 -6 -14 3 -25 2 -25 -4 0 -5 -18 -12 -39 -16 -51 -8 -59
-30 -22 -67 16 -16 26 -29 23 -29 -4 0 20 -25 53 -57 47 -44 55 -55 35 -50
l-25 6 25 -19 c14 -11 30 -20 36 -20 5 0 23 -14 40 -32 16 -18 22 -28 14 -23
-9 6 -7 2 3 -7 14 -14 16 -18 5 -18 -8 0 -15 -7 -15 -15 0 -8 6 -15 14 -15 7
0 13 -5 13 -10 0 -7 -6 -7 -20 0 -11 6 -20 16 -20 22 0 7 -4 7 -13 -1 -8 -6
-18 -7 -22 -3 -5 4 -5 1 -1 -5 4 -7 16 -13 26 -13 10 0 22 -4 25 -10 3 -5 15
-10 26 -10 11 0 17 5 14 10 -3 6 -1 10 4 10 6 0 11 -6 11 -12 0 -7 7 -22 15
-32 13 -17 17 -18 28 -6 9 10 9 12 0 6 -8 -4 -13 -1 -13 8 0 19 11 21 28 4 18
-18 15 -38 -5 -39 -11 0 -13 -3 -5 -6 6 -2 12 -9 12 -14 0 -17 -31 -9 -55 15
-16 16 -27 21 -31 14 -7 -11 3 -20 76 -76 23 -18 28 -27 21 -40 -7 -13 -2 -23
22 -45 20 -17 32 -38 33 -55 2 -44 16 -92 26 -92 6 0 7 -7 4 -16 -4 -10 -2
-13 6 -8 7 5 9 2 5 -9 -3 -9 7 -46 24 -82 32 -70 31 -85 -4 -85 -25 0 -60 -35
-54 -53 2 -7 -11 -28 -30 -47 -18 -19 -33 -42 -33 -51 0 -28 -72 -96 -110
-104 -19 -3 -64 -15 -100 -26 -39 -12 -76 -17 -93 -13 -17 3 -40 1 -54 -7 -19
-10 -28 -10 -43 -1 -14 9 -20 8 -23 -1 -3 -7 -8 -4 -13 8 -8 17 -19 20 -74 22
-36 1 -57 -2 -46 -6 10 -4 25 -18 33 -32 8 -13 12 -16 9 -7 -8 25 16 23 32 -3
10 -15 10 -19 1 -14 -8 5 -10 4 -5 -3 4 -7 21 -12 37 -12 24 0 30 -5 35 -28 5
-25 10 -28 32 -25 20 3 23 2 13 -5 -20 -14 -6 -46 16 -38 10 4 14 4 10 0 -4
-4 -2 -13 4 -20 7 -8 7 -14 -1 -19 -5 -3 -13 1 -16 9 -7 17 -54 22 -54 6 0 -5
6 -10 13 -11 6 0 4 -3 -5 -7 -15 -6 -15 -9 -2 -32 9 -14 13 -17 10 -7 -9 27
19 20 32 -9 7 -14 8 -23 3 -19 -19 11 -21 -14 -3 -32 11 -10 24 -27 30 -38 6
-11 12 -14 12 -8 0 9 7 10 24 3 21 -7 23 -6 19 11 -3 10 -9 17 -13 14 -5 -3
-11 -1 -15 5 -4 6 4 10 19 10 13 0 27 -6 29 -12 4 -10 6 -10 6 0 3 41 61 -20
61 -64 0 -10 5 -14 15 -10 8 3 14 0 12 -7 -1 -7 6 -11 15 -9 11 2 25 -9 35
-26 10 -16 24 -27 31 -25 6 3 12 -2 12 -11 0 -13 3 -14 19 -5 10 7 18 19 17
28 -1 12 9 16 42 16 33 0 46 5 54 20 15 28 28 35 63 35 17 0 41 8 55 17 17 12
25 13 28 5 2 -7 8 -10 13 -6 5 3 12 -1 15 -10 3 -8 11 -13 18 -10 7 3 25 0 39
-5 22 -9 27 -8 27 5 0 8 -4 12 -10 9 -6 -3 -10 4 -10 16 0 22 0 22 -14 3 -8
-10 -18 -16 -22 -11 -4 4 -2 7 4 7 7 0 12 5 12 11 0 8 -12 10 -34 6 -32 -5
-34 -4 -27 16 5 12 18 23 30 25 11 2 21 8 21 13 0 5 9 9 20 9 11 0 20 -4 20
-9 0 -5 16 -8 35 -7 19 1 35 -2 35 -7 0 -4 12 -4 26 -1 19 5 25 4 20 -5 -9
-14 -3 -14 28 0 19 9 29 9 39 0 11 -9 17 -8 26 2 6 8 7 17 3 22 -4 4 3 4 16 1
12 -4 22 -3 22 2 0 17 -29 34 -47 28 -12 -4 -25 2 -37 19 -10 14 -27 25 -37
25 -11 0 -19 4 -19 10 0 19 64 75 89 78 14 1 31 9 37 17 6 8 14 12 18 8 3 -4
3 8 0 25 -4 20 -2 32 4 32 6 0 12 10 14 23 2 12 9 23 16 23 6 1 17 2 22 3 6 0
9 6 8 13 -2 7 6 12 17 13 11 0 30 6 42 13 15 8 24 9 28 2 4 -7 11 -8 18 -2 7
6 30 12 52 15 22 2 45 6 50 8 41 13 89 -56 78 -113 -8 -45 -21 -68 -38 -68 -8
0 -15 -6 -15 -13 0 -8 -13 -26 -30 -40 -16 -15 -30 -33 -30 -40 0 -8 -4 -7
-10 3 -8 11 -9 8 -4 -12 4 -17 2 -28 -5 -28 -6 0 -8 -8 -5 -17 5 -15 4 -16 -5
-3 -10 13 -12 13 -21 0 -17 -26 -11 -56 13 -68 12 -6 17 -11 10 -11 -15 -1 -4
-41 11 -41 8 0 11 10 8 28 -3 25 -1 28 24 27 15 -1 43 9 62 22 37 24 52 29 52
14 0 -4 17 -5 38 -1 21 4 51 6 65 6 15 -1 27 1 27 5 0 3 6 6 13 7 6 0 21 3 32
7 17 5 28 -5 60 -49 22 -31 43 -56 48 -56 4 0 7 -6 7 -14 0 -8 7 -22 16 -30 9
-10 11 -16 4 -16 -6 0 -18 -7 -26 -15 -9 -8 -12 -15 -8 -15 5 0 2 -6 -5 -12
-10 -11 -14 -10 -22 5 -13 22 -28 22 -44 0 -11 -15 -8 -19 23 -30 25 -8 41 -9
55 -2 10 6 25 8 33 5 9 -3 12 -1 9 4 -3 6 0 10 8 10 21 0 57 -39 51 -55 -4 -8
-1 -15 6 -15 6 0 8 5 5 10 -3 6 -1 10 4 10 6 0 11 -7 11 -15 0 -8 6 -15 13
-15 6 0 25 -14 41 -31 17 -17 48 -43 70 -58 22 -14 48 -33 58 -41 38 -34 48
-40 63 -40 8 0 38 -11 67 -25 56 -27 69 -24 119 26 18 18 18 21 4 35 -12 12
-14 28 -8 71 6 56 25 98 73 162 14 18 25 38 25 44 0 7 10 13 23 15 19 3 21 8
15 30 -6 24 -5 26 11 13 9 -8 20 -11 24 -7 4 4 -2 14 -13 22 -19 14 -19 16 -2
47 9 17 15 42 13 54 -6 29 16 30 42 3 l19 -21 6 21 c3 11 10 20 16 20 14 0 3
-133 -10 -138 -12 -5 -11 -32 1 -32 6 0 10 5 10 10 0 6 6 10 13 9 27 -3 48 1
43 10 -4 5 0 12 6 14 10 4 10 6 1 6 -7 1 -13 6 -13 11 0 6 7 10 16 8 12 -2 20
8 28 34 6 21 21 45 34 54 23 16 30 48 12 59 -21 13 -8 24 21 18 25 -5 35 -2
48 16 14 18 21 20 43 12 22 -8 30 -5 57 23 38 39 42 71 9 60 -13 -4 -25 -10
-28 -15 -3 -4 -19 -11 -35 -15 -17 -4 -39 -13 -50 -20 -26 -18 -51 -18 -59 1
-3 8 -12 12 -21 9 -19 -8 -65 21 -65 41 0 8 9 15 20 15 13 0 24 10 30 25 5 14
15 25 22 25 9 0 9 -3 2 -8 -6 -4 -13 -17 -16 -29 -4 -16 -1 -24 13 -28 11 -4
17 -10 14 -15 -7 -11 25 -43 34 -34 3 4 0 9 -6 11 -15 6 -17 33 -3 33 6 0 10
12 9 28 -2 33 67 152 88 152 9 0 13 8 11 23 -2 18 2 23 25 25 16 2 31 10 34
17 7 20 63 46 83 40 9 -3 31 6 50 20 47 34 67 33 40 -3 -18 -24 -19 -34 -11
-77 9 -46 -1 -96 -16 -81 -8 8 -32 -26 -33 -46 0 -10 -8 -22 -18 -27 -14 -7
-17 -18 -14 -39 3 -24 9 -29 33 -30 30 -1 36 13 31 71 -1 9 5 17 12 17 8 0 16
6 19 13 4 9 7 9 18 -1 17 -16 39 -16 39 1 1 6 17 22 37 35 27 17 38 20 49 11
10 -8 11 -16 4 -29 -13 -24 -13 -57 -1 -44 14 14 20 86 9 107 -6 13 -7 22 0
29 11 11 34 -22 31 -45 -5 -40 2 -63 21 -64 11 -1 20 3 20 8 0 6 11 21 25 34
20 17 24 29 20 48 -9 34 6 40 49 17 30 -15 43 -17 62 -8 18 9 21 14 13 25 -6
7 -20 13 -30 13 -11 0 -19 6 -19 14 0 8 -8 21 -18 28 -31 21 -23 47 15 54 19
4 37 13 40 20 8 22 44 16 69 -11 13 -14 18 -25 13 -25 -13 0 -39 -25 -39 -38
0 -23 29 -18 58 9 33 31 51 37 53 17 0 -7 3 -26 5 -42 7 -42 -2 -62 -21 -46
-20 17 -32 4 -19 -18 16 -25 72 -28 81 -5 4 10 22 37 41 60 24 31 33 50 30 67
-4 19 0 26 18 30 12 3 25 14 29 24 10 34 49 59 130 86 44 15 107 42 140 61 33
19 80 44 105 56 25 12 68 37 97 55 29 18 74 44 101 58 64 32 79 50 61 73 -13
15 -12 15 10 4 15 -8 21 -9 17 -2 -4 6 -2 11 5 11 7 0 4 7 -7 16 -10 8 -12 12
-4 8 8 -4 22 -12 30 -19 25 -20 63 -25 100 -13 110 34 114 36 143 96 15 31 27
63 27 69 0 7 9 18 19 25 14 8 17 16 10 24 -12 15 -59 6 -59 -12 0 -17 -37 -37
-44 -25 -11 18 -47 -1 -44 -23 2 -13 -3 -22 -12 -22 -8 -1 -19 -2 -25 -3 -5
-1 -26 -15 -45 -31 -36 -31 -73 -39 -86 -19 -5 8 -10 6 -16 -5 -14 -25 -31
-20 -17 5 8 15 8 19 0 15 -6 -4 -17 -4 -23 1 -17 10 -38 10 -66 1 -19 -7 -25
-4 -29 11 -3 11 -11 17 -18 15 -7 -3 -19 1 -26 8 -8 7 -32 21 -54 32 -22 10
-53 25 -68 32 -16 8 -37 14 -47 14 -10 0 -22 5 -25 10 -4 6 -12 10 -18 9 -7
-1 -30 6 -52 16 -22 9 -51 19 -65 22 -13 2 -40 16 -58 31 -19 15 -42 31 -52
36 -9 5 -25 25 -35 43 -33 61 -154 167 -244 213 -68 34 -206 53 -299 40 -41
-6 -89 -17 -105 -25 -55 -28 -88 -18 -168 50 -20 16 -56 42 -80 57 -24 15 -51
32 -59 37 -8 5 -36 17 -62 27 -32 11 -48 22 -48 34 0 9 -9 27 -20 40 -11 13
-20 26 -20 29 0 3 -7 44 -15 90 -10 54 -15 158 -16 299 -1 198 0 217 17 229
10 7 24 11 30 9 7 -3 15 1 17 8 3 7 37 29 76 50 39 20 113 73 165 117 51 43
103 79 114 79 58 0 243 58 257 80 3 6 23 19 43 29 20 11 93 74 160 140 68 67
128 121 133 121 5 0 9 9 9 19 0 11 5 23 11 27 30 18 101 133 119 192 20 65 58
140 88 175 35 40 99 174 118 249 12 48 13 75 4 158 -6 56 -14 109 -17 118 -15
44 -72 111 -122 144 -67 44 -88 53 -166 68 -33 7 -70 16 -82 21 -25 9 -31 34
-10 42 7 3 5 6 -5 6 -13 1 -18 9 -18 31 0 17 -4 30 -9 30 -5 0 -12 14 -16 31
-4 17 -14 33 -22 36 -8 3 -11 9 -6 12 5 3 14 19 21 34 7 15 17 25 22 22 16
-10 33 45 19 61 -8 10 -8 14 0 14 6 0 11 10 11 23 0 22 19 61 21 42 0 -5 4 -1
9 10 5 11 9 57 9 102 1 87 8 100 49 94 12 -1 22 2 22 8 0 6 -4 11 -10 11 -5 0
-10 5 -10 11 0 6 9 9 20 6 25 -6 25 -7 -6 54 -19 38 -29 49 -42 44 -9 -3 -13
-3 -9 1 3 4 -7 22 -23 41 -17 18 -30 41 -30 50 0 9 -9 27 -21 39 -11 12 -19
30 -17 41 3 15 7 13 21 -12 l16 -30 1 27 c0 14 -11 40 -25 56 -21 26 -25 40
-25 99 0 80 -16 137 -35 129 -8 -2 -16 2 -19 10 -9 23 -7 31 4 14 5 -8 12 -12
15 -8 4 3 -10 45 -29 92 -32 77 -35 91 -26 129 5 23 10 61 10 85 0 28 5 45 15
48 8 4 15 15 15 26 0 15 -4 18 -17 13 -15 -5 -16 -4 -5 6 20 21 14 58 -13 85
-21 21 -25 34 -25 84 0 32 5 62 10 65 15 9 12 38 -9 108 -10 34 -26 91 -35
127 -9 36 -22 88 -29 115 -8 28 -21 66 -29 85 -9 19 -18 46 -21 60 -8 40 -58
174 -72 190 -7 8 -15 31 -19 50 -3 19 -21 54 -39 76 -17 23 -45 63 -62 90 -46
72 -47 75 -108 138 -31 33 -57 65 -57 72 0 7 -11 25 -24 41 -13 15 -47 66 -76
113 -47 75 -107 156 -213 283 -17 21 -39 51 -47 65 -18 30 -50 59 -50 46 0 -4
10 -19 23 -33 l22 -26 -28 25 c-15 13 -25 30 -23 37 3 7 1 15 -4 18 -6 4 -10
19 -10 36 0 16 -5 29 -11 29 -5 0 -8 4 -5 9 3 5 0 11 -8 14 -8 3 -19 21 -25
40 -6 19 -22 40 -35 46 -13 7 -34 31 -47 53 -32 54 -76 104 -84 97 -3 -4 6
-21 21 -38 14 -18 24 -34 22 -37 -3 -2 -36 16 -74 42 -38 25 -86 53 -106 61
-21 8 -38 19 -38 24 0 5 -15 9 -32 9 -18 1 -51 7 -73 15 -22 8 -47 15 -56 15
-9 0 -22 6 -28 14 -7 8 -38 22 -69 31 -31 9 -77 23 -102 31 -53 17 -70 18 -70
4 0 -5 7 -10 16 -10 9 0 27 -9 41 -20 l25 -19 -27 -7 c-38 -9 -160 33 -264 91
-45 26 -68 33 -41 14 11 -8 8 -9 -15 -4 -16 3 -61 11 -100 17 -75 11 -109 27
-60 29 19 1 8 5 -30 13 -62 13 -73 16 -212 63 -45 15 -85 24 -89 21 -10 -11
22 -38 45 -38 11 0 39 -10 61 -21 24 -13 63 -22 90 -23 31 -1 56 -8 69 -20 12
-11 54 -24 103 -32 78 -14 226 -72 248 -98 18 -23 -6 -39 -49 -31 -23 4 -39
10 -36 15 2 4 -8 10 -24 13 -16 3 -35 12 -43 20 -7 8 -32 20 -53 27 -22 7 -57
21 -78 31 -22 11 -44 19 -50 19 -6 0 -18 6 -26 14 -9 7 -27 17 -41 21 -21 5
-20 3 8 -14 47 -30 39 -42 -15 -25 -27 9 -66 20 -88 25 -22 6 -50 17 -63 25
-13 9 -51 21 -85 29 -64 13 -175 43 -259 69 -27 8 -48 10 -48 5 0 -5 -6 -9
-14 -9 -8 0 -16 -5 -18 -10 -2 -7 -26 -8 -73 -1 -146 20 -361 29 -445 19z
m639 -161 c9 -8 28 -17 44 -21 37 -9 34 -22 -10 -37 -48 -15 -27 -24 24 -10
34 9 36 9 19 -4 -19 -14 -18 -15 12 -15 36 0 38 -6 17 -46 -8 -16 -15 -36 -15
-45 0 -43 -60 -64 -167 -60 -13 0 -23 -4 -23 -9 0 -6 -13 -10 -30 -10 -16 0
-30 5 -30 10 0 6 5 10 11 10 5 0 7 5 4 10 -11 17 -35 11 -35 -9 0 -20 -15 -28
-62 -30 -15 0 -46 -7 -70 -16 -50 -17 -102 -20 -93 -5 4 6 10 8 14 6 11 -7 34
11 37 28 2 14 -1 14 -27 1 -28 -15 -29 -15 -29 10 0 14 5 25 10 25 20 0 9 21
-15 30 -28 11 -31 22 -11 40 8 6 12 18 9 26 -3 8 2 25 11 39 9 13 16 30 16 38
0 20 36 33 121 46 142 21 242 20 268 -2z m-559 -93 c0 -17 -44 -64 -61 -64
-14 0 -19 -7 -19 -25 0 -15 -12 -37 -29 -54 -16 -15 -32 -37 -35 -49 -4 -11
-25 -37 -46 -56 -22 -20 -39 -39 -38 -43 4 -16 -33 -73 -47 -73 -8 0 -15 -7
-15 -16 0 -14 -7 -15 -39 -10 -22 3 -42 2 -45 -3 -3 -5 -22 -9 -41 -8 -34 1
-35 1 -13 14 l23 12 -27 1 c-15 0 -29 4 -32 9 -3 5 -22 12 -41 15 -20 4 -33
11 -30 16 3 5 12 7 20 4 8 -3 21 6 31 21 20 30 107 100 164 130 20 11 47 29
59 41 12 11 34 27 48 35 15 8 66 35 113 61 83 47 100 54 100 42z m-1205 -304
c22 -5 78 -12 125 -16 47 -3 91 -9 98 -13 8 -5 -6 -20 -40 -46 -29 -22 -55
-42 -58 -45 -11 -12 -79 -60 -84 -60 -3 0 -33 21 -67 47 -34 26 -89 60 -123
77 -40 21 -62 38 -64 51 -3 19 2 20 85 17 48 -1 106 -7 128 -12z m386 -47 c79
-8 75 -22 -35 -128 -85 -83 -100 -93 -109 -77 -2 4 -2 1 0 -6 1 -7 -5 -22 -15
-32 -18 -19 -19 -19 -50 10 -22 20 -32 38 -32 58 0 17 -6 32 -15 36 -22 8 -19
17 16 55 55 61 135 105 168 95 8 -3 40 -7 72 -11z m213 -100 c4 -9 -1 -25 -13
-37 -11 -12 -48 -77 -82 -146 -34 -69 -66 -131 -72 -137 -12 -17 -47 1 -48 25
0 10 -3 12 -6 5 -7 -19 -19 -16 -51 15 -16 15 -38 32 -48 39 -13 8 -16 14 -8
20 19 13 96 76 134 108 76 66 159 123 181 125 4 0 10 -7 13 -17z m85 -67 c9
-11 9 -20 2 -35 -14 -26 -14 -26 10 -28 27 -2 49 -21 49 -43 0 -21 -25 -44
-39 -35 -7 3 -8 0 -5 -9 4 -11 0 -16 -15 -16 -12 0 -21 6 -21 14 0 8 -13 19
-28 24 -26 9 -31 7 -45 -18 -10 -15 -17 -36 -17 -45 0 -9 -4 -14 -9 -11 -5 3
-9 0 -8 -7 1 -31 -4 -45 -19 -51 -13 -5 -15 0 -9 36 4 24 13 53 21 65 8 13 16
35 18 50 5 41 38 103 54 103 9 0 11 -7 7 -20 -3 -11 -2 -20 3 -20 5 0 12 14
16 30 6 33 17 38 35 16z m-444 -270 c30 -11 39 -19 37 -33 -2 -10 0 -15 4 -10
8 8 44 -20 44 -35 0 -5 -21 -7 -47 -4 l-48 6 43 -19 c42 -20 51 -34 31 -47 -6
-3 -8 -17 -5 -30 6 -24 -18 -74 -35 -74 -12 0 -11 37 1 45 17 10 11 25 -10 25
-11 0 -19 -3 -19 -7 3 -20 -4 -17 -43 21 l-43 40 -5 -79 c-3 -44 -1 -90 4
-103 7 -15 6 -29 -1 -40 -6 -10 -7 -26 -2 -39 5 -14 4 -25 -3 -29 -13 -8 -27
13 -21 35 2 9 -3 25 -11 36 -12 17 -17 18 -28 7 -11 -11 -10 -16 5 -26 9 -7
17 -21 17 -31 0 -9 11 -26 24 -36 20 -16 23 -24 17 -47 -5 -17 -3 -37 5 -53
11 -22 11 -26 -2 -26 -14 0 -21 17 -26 67 -2 14 -7 23 -13 20 -5 -3 -9 -17 -7
-32 7 -61 -22 -25 -66 82 -10 24 -11 24 -11 3 -1 -12 4 -34 10 -50 7 -19 7
-29 0 -31 -6 -2 -11 -8 -11 -13 0 -6 5 -7 10 -4 13 8 31 -39 37 -100 3 -27 6
-60 7 -72 1 -12 7 -28 13 -35 15 -18 27 -78 16 -78 -5 0 -14 5 -21 12 -9 9
-12 9 -12 -1 0 -8 -8 -10 -22 -6 -13 3 -3 -4 22 -16 25 -13 47 -24 49 -25 6
-5 30 -133 31 -166 0 -18 1 -44 1 -58 0 -29 -15 -102 -24 -117 -4 -6 -2 -13 5
-15 8 -3 8 -9 2 -19 -11 -18 -13 -89 -2 -89 17 0 26 -44 13 -60 -7 -8 -10 -21
-8 -27 3 -7 0 -13 -6 -13 -14 0 -23 18 -12 24 5 3 7 15 4 27 -8 28 -23 5 -23
-34 0 -15 -7 -30 -15 -33 -25 -10 -17 -24 13 -24 21 0 24 -2 12 -10 -13 -9
-13 -10 0 -10 27 0 41 -75 35 -185 -3 -55 -10 -104 -15 -109 -6 -6 -10 -21
-10 -35 0 -15 -7 -39 -15 -55 -8 -15 -15 -32 -15 -37 0 -5 -11 -32 -24 -61
-13 -29 -26 -61 -30 -70 -6 -20 -34 -23 -87 -8 -29 8 -40 18 -52 48 -8 20 -36
81 -61 135 -25 53 -46 100 -46 103 0 3 -25 59 -56 125 -30 65 -53 123 -50 128
3 5 -1 11 -9 15 -8 3 -15 12 -15 19 0 7 -11 36 -25 63 -32 60 -56 126 -44 118
28 -17 -22 74 -60 110 -17 17 -31 36 -31 44 0 7 -13 32 -29 55 -15 23 -38 62
-51 87 -12 25 -30 54 -40 65 -15 18 -60 124 -60 143 0 4 9 19 19 32 11 14 34
45 53 68 18 24 50 53 70 65 l38 21 57 -24 c32 -13 99 -42 148 -65 174 -81 205
-95 232 -101 44 -11 25 1 -60 36 -42 18 -111 50 -153 71 -41 21 -81 39 -89 39
-8 0 -16 4 -20 10 -4 6 4 6 22 0 37 -12 163 -28 163 -21 0 4 -30 14 -67 25
-38 10 -94 26 -127 37 -32 10 -62 16 -67 13 -5 -3 -6 2 -2 11 3 9 32 38 64 63
31 26 99 83 150 126 l92 79 46 -12 c79 -22 88 -22 34 0 -29 12 -53 24 -53 28
1 9 42 53 79 84 26 22 36 25 42 15 6 -9 9 -7 9 9 0 20 33 53 52 53 5 0 6 -12
2 -27 -6 -27 -6 -27 9 -8 9 11 17 29 17 40 1 29 12 43 40 46 18 3 24 9 22 23
-6 36 29 44 93 22z m1052 -1189 c12 4 93 -42 105 -61 9 -13 39 24 31 38 -4 5
-1 6 5 2 15 -9 63 4 56 15 -3 5 4 9 15 9 12 0 21 4 21 9 0 5 11 4 25 -2 14 -7
25 -17 25 -24 0 -6 4 -13 9 -15 6 -1 13 -18 16 -36 5 -30 3 -33 -14 -27 -14 4
-23 0 -30 -14 -9 -16 -7 -21 8 -26 25 -8 49 3 56 26 4 10 9 18 13 18 20 -3 32
2 30 14 -2 6 3 11 11 9 7 -2 22 5 32 14 18 16 19 16 19 -9 0 -14 6 -27 13 -30
6 -2 8 -8 4 -13 -4 -4 -21 0 -37 10 -34 19 -37 16 -15 -18 15 -23 15 -23 -12
-23 -33 1 -73 -11 -73 -22 0 -4 5 -12 12 -19 9 -9 9 -12 -2 -12 -9 0 -11 -3
-5 -8 6 -4 10 -18 10 -31 0 -23 28 -51 40 -40 10 11 -7 39 -19 32 -8 -5 -8 -3
0 8 7 8 10 26 8 42 -3 29 2 32 26 17 12 -8 12 -10 1 -10 -10 0 -11 -3 -2 -14
9 -11 9 -15 -1 -19 -9 -3 -7 -11 10 -26 25 -25 28 -32 10 -29 -8 2 -12 -6 -11
-20 2 -13 -1 -21 -6 -17 -5 3 -12 1 -16 -5 -3 -5 -17 -10 -31 -10 -20 0 -24 4
-19 19 10 32 -12 33 -23 1 -10 -28 -12 -29 -44 -18 -18 6 -37 16 -43 22 -5 6
-16 11 -22 12 -28 2 -33 4 -33 15 0 7 10 9 25 5 16 -4 25 -2 25 5 0 7 8 3 18
-7 19 -21 55 -25 73 -7 9 9 6 19 -11 40 -12 15 -29 31 -38 34 -21 8 -52 -10
-45 -27 3 -7 -8 -15 -26 -19 -17 -4 -33 -11 -36 -16 -7 -10 -45 7 -57 25 -4 6
-8 -1 -8 -15 0 -24 5 -27 46 -33 50 -6 85 -30 59 -40 -8 -3 -15 -1 -15 5 0 6
-5 7 -10 4 -6 -4 -17 -1 -25 5 -9 7 -26 9 -40 6 -20 -5 -31 -1 -44 16 -14 16
-22 20 -32 12 -8 -5 -34 -9 -59 -8 -25 1 -55 -2 -67 -7 -14 -5 -23 -5 -23 1 0
6 5 10 10 10 6 0 10 6 10 13 0 16 -29 31 -89 47 -23 6 -41 15 -41 20 0 11 70
1 87 -12 7 -5 17 -7 23 -3 5 3 10 1 10 -4 0 -6 10 -11 22 -11 l21 0 -22 19
c-14 12 -19 25 -14 36 5 16 2 17 -24 12 -39 -8 -46 0 -22 24 10 10 19 27 19
37 0 14 2 14 9 3 6 -9 16 -11 27 -6 18 6 17 8 -3 15 -26 10 -63 46 -63 60 0 6
-5 10 -11 10 -5 0 -7 5 -4 10 8 13 105 13 105 -1 0 -5 -4 -8 -9 -4 -5 3 -12 1
-15 -4 -8 -12 34 -30 79 -34 24 -2 22 27 -3 58 -16 19 -16 19 3 4 11 -9 25
-14 32 -12z m-1072 -1274 c-4 -32 -11 -62 -16 -67 -5 -6 -26 -9 -46 -9 -31 1
-35 -1 -22 -10 21 -15 51 -75 41 -80 -30 -18 -206 -57 -259 -57 -68 0 -92 14
-165 98 -44 50 -38 58 44 66 40 3 103 18 141 32 71 25 89 25 68 0 -10 -11 -7
-14 16 -12 16 0 40 14 58 34 18 17 41 32 51 32 10 1 30 7 44 15 46 26 52 21
45 -42z m1784 -424 c14 -15 20 -39 23 -82 2 -34 0 -64 -5 -65 -4 -2 -4 -8 -1
-14 12 -20 12 -252 0 -260 -7 -5 -3 -14 12 -28 12 -12 20 -26 16 -31 -3 -6 -6
-39 -5 -74 1 -64 1 -64 -34 -81 -19 -9 -41 -14 -49 -11 -7 3 -24 0 -38 -7 -13
-7 -29 -11 -36 -8 -7 2 -19 -4 -27 -14 -12 -17 -18 -17 -71 -7 -41 9 -72 9
-102 2 -48 -11 -62 -6 -62 20 0 24 58 84 75 77 13 -5 40 47 49 96 9 47 19 83
26 93 9 11 28 79 64 221 24 95 58 153 105 179 34 19 37 18 60 -6z m-946 -681
c33 -7 47 -14 47 -26 -1 -26 -24 -51 -46 -50 -10 1 -35 -6 -55 -16 -20 -9 -40
-16 -45 -15 -5 1 -22 -3 -37 -9 -16 -7 -35 -12 -43 -12 -18 0 -77 29 -85 42
-3 5 -9 9 -13 9 -31 -4 -36 18 -9 45 16 15 16 17 -1 29 -13 10 -14 14 -4 19
18 8 233 -3 291 -16z m1211 -938 c16 -15 -3 -40 -30 -40 -14 0 -52 -7 -84 -15
-72 -19 -159 -15 -172 8 -6 12 -16 15 -33 11 -15 -4 -30 0 -39 9 -13 13 -12
15 16 21 17 3 51 6 77 7 25 1 56 4 69 8 31 8 185 1 196 -9z m-536 -325 c12
-14 31 -25 42 -25 10 0 27 -9 37 -19 23 -24 127 -55 159 -47 14 4 59 0 100 -9
59 -12 88 -13 140 -5 36 6 69 8 74 5 5 -3 38 -1 72 6 71 13 128 17 128 9 0 -3
18 -6 41 -8 28 -2 48 3 66 18 14 11 34 20 43 20 10 0 23 7 30 15 7 8 20 15 29
15 14 -1 14 -2 -1 -11 -10 -5 -18 -17 -18 -26 0 -12 3 -13 14 -4 17 15 46 4
46 -18 0 -19 -47 -91 -59 -91 -5 0 -13 -12 -19 -28 -5 -15 -22 -34 -37 -42
-16 -8 -47 -32 -69 -52 -22 -21 -45 -38 -50 -38 -5 0 -28 -9 -50 -19 -38 -17
-106 -32 -148 -32 -10 0 -20 -5 -24 -10 -4 -6 -11 -6 -20 2 -11 9 -14 9 -14
-1 0 -9 -4 -9 -17 1 -10 8 -14 9 -10 2 4 -6 3 -14 -3 -18 -5 -3 -10 -2 -10 4
0 7 -10 6 -30 -1 -17 -5 -49 -7 -73 -4 -23 3 -50 6 -59 7 -11 0 -15 6 -11 16
5 12 2 15 -10 10 -8 -3 -18 -1 -20 6 -2 7 -8 9 -12 4 -5 -4 0 -14 11 -21 10
-8 16 -17 13 -20 -8 -9 -59 17 -59 30 0 19 -26 34 -65 39 -47 6 -123 61 -161
117 -16 24 -35 47 -41 51 -7 4 -13 21 -13 37 0 17 -4 30 -8 30 -16 0 -7 45 11
52 20 9 23 28 3 28 -23 0 -25 24 -2 37 29 17 29 16 54 -12z"/>
<path d="M6085 5039 c63 -10 150 -37 195 -59 34 -17 81 -60 65 -60 -4 0 -2 -6
4 -14 9 -11 6 -15 -14 -20 -39 -10 -30 -25 18 -28 28 -2 41 -7 39 -16 -1 -7 7
-25 18 -39 11 -14 20 -34 20 -45 0 -16 3 -17 20 -8 11 6 19 7 18 2 -4 -12 148
-142 166 -142 9 0 16 8 16 19 0 13 -9 21 -30 26 -39 9 -126 90 -145 137 -8 20
-19 39 -25 43 -17 10 -11 25 10 25 22 0 130 -68 130 -81 0 -5 5 -9 12 -9 7 0
24 -12 39 -26 l28 -27 6 26 c8 31 0 48 -20 41 -16 -6 -107 47 -128 75 -11 15
-31 27 -112 70 -16 9 -50 30 -75 47 -73 50 -150 74 -233 73 l-72 -1 50 -9z"/>
<path d="M5152 4311 c-18 -11 -18 -82 0 -95 7 -6 12 -18 11 -26 -2 -10 15 -26
47 -43 27 -15 52 -27 55 -27 3 0 5 11 5 24 0 19 4 23 20 19 27 -7 26 15 -1 67
-16 30 -24 38 -30 28 -7 -10 -9 -10 -10 2 -1 8 -1 19 0 23 1 8 -60 37 -76 37
-4 0 -14 -4 -21 -9z"/>
<path d="M11512 3260 c-12 -12 -20 -25 -17 -30 3 -5 -4 -15 -15 -23 -11 -7
-17 -17 -13 -20 3 -4 -1 -7 -9 -7 -21 0 -30 -26 -14 -39 13 -11 56 -4 56 9 0
4 15 10 33 13 101 17 117 21 117 32 0 9 -71 62 -110 83 -3 1 -16 -7 -28 -18z"/>
<path d="M11503 2725 c-17 -7 -41 -11 -52 -8 -11 3 -42 -2 -69 -11 -47 -16
-62 -25 -120 -73 -15 -13 -32 -23 -39 -23 -14 0 -83 -66 -83 -80 0 -6 -4 -9
-8 -6 -5 3 -25 -13 -45 -34 -20 -22 -41 -40 -47 -40 -5 0 -10 -3 -10 -8 0 -4
-22 -30 -50 -57 -27 -28 -50 -54 -50 -60 0 -5 -14 -24 -30 -42 -17 -18 -30
-35 -30 -38 0 -4 -17 -37 -39 -73 -178 -308 -230 -405 -225 -414 2 -3 0 -9 -5
-13 -6 -3 -8 -12 -4 -20 3 -9 -1 -15 -9 -15 -15 0 -19 -6 -73 -105 -21 -38
-48 -86 -60 -105 -12 -19 -39 -66 -59 -103 l-37 -68 32 -97 c18 -53 50 -132
72 -175 22 -43 37 -81 34 -84 -8 -7 -44 34 -57 65 -6 13 -15 20 -20 17 -6 -4
-8 -11 -5 -16 4 -5 1 -9 -5 -9 -6 0 -13 7 -16 15 -4 8 -10 15 -15 15 -5 0 -5
-10 0 -22 8 -22 6 -23 -33 -23 -30 0 -43 5 -48 18 -4 9 -14 17 -23 17 -8 0
-15 4 -15 10 0 5 -7 7 -16 3 -27 -10 -10 -125 28 -192 38 -69 80 -109 232
-223 66 -50 132 -102 146 -115 14 -13 54 -49 88 -81 61 -54 80 -81 109 -145
11 -26 6 -23 -46 22 -32 28 -64 57 -71 66 -7 8 -17 15 -23 15 -11 0 -114 74
-132 94 -18 20 -73 56 -87 56 -16 0 -82 45 -122 83 -16 15 -33 27 -38 27 -6 0
-17 9 -27 21 -9 12 -30 22 -47 24 -16 1 -39 7 -49 12 -75 39 -150 73 -163 73
-21 0 -11 -75 24 -182 37 -118 42 -201 15 -261 -35 -77 -39 -91 -51 -174 -6
-44 -13 -90 -15 -104 -3 -13 -3 -36 1 -51 l6 -28 700 0 c386 0 698 3 694 7 -7
8 -78 28 -138 40 -36 7 -45 19 -53 70 l-6 42 46 12 c50 13 55 24 26 61 -22 28
-35 97 -34 185 1 48 -3 65 -17 78 -21 19 -44 16 -46 -6 -4 -51 -3 -50 -25 -39
-16 9 -18 14 -8 26 10 12 8 14 -10 11 -12 -2 -27 -9 -33 -15 -7 -7 -20 -12
-29 -12 -21 0 -30 -13 -44 -59 -12 -39 -31 -51 -38 -24 -26 96 -36 120 -63
149 -31 32 -76 64 -121 83 -29 13 -66 64 -117 162 -24 46 -53 103 -65 126 -12
23 -29 44 -37 47 -8 3 -14 13 -14 23 1 14 5 12 22 -10 43 -59 151 -166 160
-161 5 3 0 15 -11 25 -12 11 -21 26 -21 34 0 8 -4 15 -9 15 -5 0 -11 8 -15 17
-3 10 -17 36 -31 58 -14 22 -28 47 -31 55 -3 8 -14 38 -24 65 -34 93 -38 112
-40 215 -1 73 1 86 17 115 12 22 8 105 -5 114 -5 3 -9 15 -9 26 -1 11 -4 30
-8 43 -5 14 -3 22 4 22 6 0 11 -6 11 -14 0 -21 24 -63 52 -91 39 -39 53 -81
41 -119 -13 -38 -16 -106 -4 -106 5 0 16 11 25 25 12 19 25 25 51 25 24 0 35
5 35 14 0 8 8 22 17 31 13 14 14 21 5 36 -7 10 -12 28 -12 38 0 11 -4 23 -10
26 -5 3 -10 14 -10 24 0 9 -8 26 -17 37 -10 11 -19 26 -21 34 -2 8 -7 16 -12
18 -5 2 0 12 10 22 27 27 104 6 116 -32 3 -10 12 -18 20 -18 8 0 14 -7 14 -15
0 -13 4 -14 20 -5 15 8 18 8 14 -3 -8 -22 28 -26 69 -8 25 10 43 29 58 59 14
26 28 41 36 38 7 -3 13 1 13 10 0 9 5 12 12 8 6 -4 4 3 -5 17 -21 29 -22 43
-3 36 15 -6 16 9 3 30 -5 8 -1 11 13 8 18 -3 23 4 19 31 -2 13 27 23 50 17 17
-4 22 -2 17 6 -7 12 -4 13 55 15 35 1 89 36 56 36 -9 0 -18 -6 -20 -12 -4 -10
-6 -10 -6 0 -1 7 -5 10 -11 7 -5 -3 -10 -1 -10 4 0 6 7 11 15 11 8 0 15 5 15
10 0 6 7 10 15 10 8 0 15 -5 15 -11 0 -5 5 -7 10 -4 6 3 10 -3 10 -14 0 -20 1
-20 20 -4 27 24 25 33 -7 34 -17 0 -22 3 -13 6 8 4 21 12 28 20 7 7 24 13 36
13 19 0 22 4 18 25 -3 20 -1 24 12 19 26 -10 130 34 171 72 21 19 42 34 47 34
5 0 7 4 3 9 -3 6 4 15 15 21 11 6 18 15 15 20 -3 5 7 13 22 16 29 8 53 26 53
42 0 5 10 14 23 21 14 7 28 29 36 56 7 24 18 46 24 49 9 3 9 7 0 13 -7 5 -10
17 -8 28 2 11 4 23 4 28 1 4 8 7 16 7 8 0 15 6 15 13 0 9 3 8 9 -2 7 -11 15
-11 42 -2 18 6 33 10 34 9 13 -16 35 -72 35 -88 0 -16 5 -21 23 -18 21 3 22 0
20 -52 -1 -30 -7 -68 -14 -85 -19 -46 -21 -68 -7 -77 8 -6 5 -7 -9 -3 -18 5
-25 1 -35 -22 -7 -15 -21 -36 -30 -45 -10 -10 -18 -25 -18 -33 0 -8 -4 -15 -8
-15 -9 0 -93 -104 -111 -137 -5 -11 -26 -28 -44 -37 -19 -8 -40 -23 -48 -32
-7 -8 -29 -22 -49 -30 -20 -8 -56 -35 -79 -59 -24 -25 -46 -43 -51 -40 -4 3
-38 -23 -75 -58 -59 -55 -75 -77 -131 -192 -72 -148 -94 -226 -94 -339 0 -127
17 -201 71 -312 46 -93 50 -109 59 -207 5 -58 18 -137 29 -174 11 -37 22 -113
26 -168 3 -54 10 -102 16 -106 6 -3 4 -11 -6 -19 -19 -16 -19 -30 0 -30 8 0
15 8 15 18 1 16 1 16 11 0 9 -17 35 -18 319 -18 l308 0 7 33 c4 17 18 72 32
122 34 124 55 302 57 485 1 159 -27 531 -44 575 -5 14 -6 25 -1 25 4 0 8 7 8
15 0 10 -6 14 -15 10 -11 -4 -13 1 -10 20 3 15 1 22 -5 18 -6 -4 -8 5 -4 25 4
18 1 44 -5 58 -9 20 -9 27 2 34 10 6 13 51 11 217 -1 114 -6 212 -11 216 -17
18 -204 -390 -253 -553 -14 -47 -37 -132 -52 -190 -15 -58 -31 -121 -36 -141
-5 -20 -9 -46 -9 -57 0 -25 -46 -82 -66 -82 -8 0 -14 -4 -14 -10 0 -5 -7 -10
-15 -10 -7 0 -18 -7 -23 -16 -5 -10 -27 -18 -55 -21 -45 -5 -46 -5 -62 33 -9
22 -17 59 -18 84 0 25 -5 48 -10 52 -6 3 -4 22 6 47 9 23 14 41 12 41 -3 0 -1
9 5 19 8 16 6 22 -7 30 -17 9 -17 11 1 24 11 8 20 25 22 38 1 13 3 27 3 31 1
4 10 10 21 13 12 4 20 14 19 23 -5 50 1 63 32 69 22 4 27 8 17 14 -7 5 -8 9
-3 9 6 0 20 9 33 20 18 15 21 23 14 37 -8 13 -5 24 8 41 10 12 22 22 27 22 12
0 92 141 93 163 0 5 18 30 40 56 22 26 40 51 40 55 0 4 16 32 35 62 19 30 35
60 35 67 0 16 38 87 60 112 9 11 18 27 18 35 3 38 17 78 43 116 21 31 27 49
22 70 -3 16 -5 36 -4 44 8 108 -19 294 -44 304 -8 3 -11 13 -8 25 3 13 1 21
-7 21 -9 0 -10 10 -6 34 5 26 3 37 -10 44 -8 5 -15 13 -15 18 1 5 -11 11 -26
12 -15 2 -33 8 -40 13 -6 6 -31 12 -55 15 -23 3 -56 9 -73 14 -16 5 -58 12
-93 16 -34 4 -65 11 -68 15 -8 14 -116 10 -151 -6z m-950 -1814 c20 -31 37
-61 37 -65 0 -5 12 -25 28 -45 30 -40 44 -61 68 -106 9 -16 23 -34 30 -38 8
-4 14 -13 14 -18 0 -26 116 -179 175 -232 38 -35 65 -67 65 -79 0 -36 -32 -15
-93 60 -51 62 -61 71 -75 60 -19 -16 -15 -16 -37 5 -14 15 -15 21 -6 27 10 5
7 12 -10 24 -13 9 -19 16 -14 16 6 0 1 7 -10 16 -11 8 -20 18 -20 22 -1 4 -9
22 -18 40 -10 18 -17 38 -15 45 3 17 -42 116 -57 125 -6 4 -22 29 -34 55 -13
26 -28 53 -35 60 -30 32 -55 70 -50 78 10 16 19 9 57 -50z m1226 -267 c17 -14
31 -23 31 -19 0 13 27 -21 34 -42 4 -12 13 -27 22 -33 16 -14 2 -40 -22 -40
-17 0 -19 -20 -1 -21 9 0 9 -2 -1 -6 -6 -2 -10 -9 -7 -14 4 -5 -8 -7 -24 -5
-24 3 -31 -1 -31 -14 0 -10 -11 -25 -25 -34 -28 -19 -25 -33 11 -46 30 -12 30
-21 -2 -59 -31 -37 -44 -39 -44 -8 0 13 -5 28 -11 34 -14 14 -3 103 12 103 6
0 6 8 -1 20 -6 11 -20 20 -31 20 -27 0 -34 24 -21 79 10 43 55 111 73 111 4 0
21 -12 38 -26z"/>
<path d="M5823 1863 c-9 -3 -11 -17 -7 -43 6 -34 3 -40 -25 -61 -36 -27 -38
-35 -11 -44 11 -3 25 -18 32 -33 7 -15 19 -28 26 -28 6 -1 17 -2 22 -3 16 -2
29 -44 38 -121 7 -56 6 -70 -5 -70 -7 0 -19 -12 -25 -26 -11 -24 -10 -28 15
-46 15 -11 27 -28 27 -38 0 -11 10 -20 28 -23 15 -3 33 -15 40 -27 20 -32 27
-143 12 -180 -10 -24 -10 -34 -1 -43 18 -18 45 4 55 46 5 21 16 37 23 37 10 0
12 10 7 43 -4 23 -10 47 -14 52 -4 6 -10 23 -14 39 -6 26 -18 45 -66 103 -6 7
-12 38 -15 70 -2 32 -7 72 -10 89 -5 21 -2 34 9 43 13 11 12 16 -10 39 -20 22
-24 34 -20 63 5 29 1 40 -16 55 -11 10 -29 38 -39 60 -19 42 -34 55 -56 47z"/>
<path d="M6914 849 c-4 -7 1 -16 10 -21 20 -11 21 -28 0 -28 -9 0 -13 5 -9 13
4 6 -1 3 -9 -7 -15 -19 -22 -12 -17 17 1 4 -6 10 -14 13 -9 4 -26 -6 -44 -25
-32 -34 -46 -38 -55 -16 -10 28 -21 15 -21 -25 -1 -23 2 -34 7 -27 5 7 8 8 8
1 0 -6 -3 -14 -7 -18 -10 -9 -12 -50 -3 -56 14 -9 15 -53 2 -58 -7 -2 -12 0
-11 5 1 4 0 11 -1 16 -4 10 -7 26 -9 36 0 4 -17 3 -36 -3 -35 -11 -48 -40 -23
-48 16 -6 17 -60 1 -73 -10 -7 -7 -10 13 -11 18 -2 24 2 20 12 -3 8 1 14 10
14 10 0 14 -6 11 -14 -9 -22 5 -28 19 -8 12 16 12 16 11 -3 -2 -16 3 -19 23
-17 20 2 22 0 10 -8 -13 -8 -11 -11 8 -16 14 -4 21 -12 18 -20 -3 -8 -2 -14 3
-14 4 0 13 -11 19 -25 7 -14 20 -25 31 -25 11 0 25 -9 31 -19 15 -28 13 -33
-12 -29 -13 2 -31 -4 -40 -12 -16 -13 -15 -15 20 -32 21 -10 48 -15 64 -12 16
3 37 -1 52 -11 14 -10 32 -15 40 -12 9 4 16 -3 20 -18 5 -21 11 -24 39 -19 24
4 28 3 17 -5 -9 -7 -10 -11 -3 -11 6 0 15 5 18 10 7 11 45 13 69 4 9 -3 16
-17 16 -31 0 -23 3 -25 32 -19 42 8 45 13 22 31 -18 14 -17 14 8 4 15 -7 25
-15 23 -19 -2 -4 3 -7 11 -7 9 0 13 6 9 16 -3 8 -3 12 1 8 4 -4 13 -2 21 5 11
9 15 7 20 -12 5 -20 8 -21 17 -7 12 16 71 12 60 -4 -3 -5 2 -6 11 -3 8 4 14
11 13 18 -1 6 4 22 11 35 12 22 14 22 23 7 13 -23 30 -9 27 22 -2 15 0 33 5
40 8 14 -28 57 -49 57 -5 0 -9 8 -7 18 2 11 -2 15 -11 11 -10 -3 -16 3 -19 20
-3 14 -1 23 3 20 5 -3 9 6 9 21 0 14 -7 28 -15 31 -18 7 -20 35 -4 51 12 12 4
33 -13 33 -6 0 -8 -9 -5 -20 3 -11 0 -20 -6 -20 -7 0 -13 12 -14 26 0 17 -15
39 -39 60 -26 24 -32 34 -21 34 10 0 17 8 17 18 -1 24 -29 59 -38 47 -21 -30
-99 6 -86 40 5 11 2 13 -10 9 -9 -3 -16 -12 -16 -20 0 -15 -43 -30 -59 -20 -5
4 -13 1 -16 -5 -4 -5 -14 -8 -22 -5 -10 4 -13 2 -10 -8 4 -9 0 -14 -11 -14 -9
1 -27 -2 -39 -6 -17 -5 -23 -3 -23 8 0 10 6 13 15 10 10 -4 15 0 15 11 0 11
-7 15 -22 13 -17 -2 -31 7 -52 37 -16 22 -36 44 -44 49 -12 7 -12 10 -1 17 9
6 10 9 2 9 -6 0 -15 -5 -19 -11z"/>
<path d="M1669 258 c-20 -40 -62 -78 -86 -78 -13 0 -23 -2 -23 -4 0 -15 26
-72 39 -86 27 -28 61 -74 61 -82 0 -4 107 -7 238 -7 130 1 230 3 221 6 -14 3
-16 14 -12 56 3 29 11 59 19 68 18 20 18 35 0 42 -8 3 -17 19 -21 35 -6 28
-10 30 -63 36 -31 3 -83 9 -116 14 -55 8 -61 7 -103 -21 l-45 -30 -35 36 c-40
43 -58 46 -74 15z"/>
</g>
</svg>
